%TF.GenerationSoftware,KiCad,Pcbnew,6.0.11+dfsg-1~bpo11+1*%
%TF.CreationDate,2023-05-10T08:43:11-04:00*%
%TF.ProjectId,proto-stm32f427,70726f74-6f2d-4737-946d-333266343237,rev?*%
%TF.SameCoordinates,Original*%
%TF.FileFunction,Paste,Bot*%
%TF.FilePolarity,Positive*%
%FSLAX46Y46*%
G04 Gerber Fmt 4.6, Leading zero omitted, Abs format (unit mm)*
G04 Created by KiCad (PCBNEW 6.0.11+dfsg-1~bpo11+1) date 2023-05-10 08:43:11*
%MOMM*%
%LPD*%
G01*
G04 APERTURE LIST*
G04 Aperture macros list*
%AMRoundRect*
0 Rectangle with rounded corners*
0 $1 Rounding radius*
0 $2 $3 $4 $5 $6 $7 $8 $9 X,Y pos of 4 corners*
0 Add a 4 corners polygon primitive as box body*
4,1,4,$2,$3,$4,$5,$6,$7,$8,$9,$2,$3,0*
0 Add four circle primitives for the rounded corners*
1,1,$1+$1,$2,$3*
1,1,$1+$1,$4,$5*
1,1,$1+$1,$6,$7*
1,1,$1+$1,$8,$9*
0 Add four rect primitives between the rounded corners*
20,1,$1+$1,$2,$3,$4,$5,0*
20,1,$1+$1,$4,$5,$6,$7,0*
20,1,$1+$1,$6,$7,$8,$9,0*
20,1,$1+$1,$8,$9,$2,$3,0*%
G04 Aperture macros list end*
%ADD10RoundRect,0.250000X-0.475000X0.337500X-0.475000X-0.337500X0.475000X-0.337500X0.475000X0.337500X0*%
%ADD11RoundRect,0.250000X-0.450000X0.325000X-0.450000X-0.325000X0.450000X-0.325000X0.450000X0.325000X0*%
%ADD12RoundRect,0.250000X0.450000X-0.325000X0.450000X0.325000X-0.450000X0.325000X-0.450000X-0.325000X0*%
%ADD13RoundRect,0.250000X-0.450000X0.350000X-0.450000X-0.350000X0.450000X-0.350000X0.450000X0.350000X0*%
%ADD14R,2.750000X3.050000*%
%ADD15R,1.200000X2.200000*%
%ADD16RoundRect,0.250000X0.450000X-0.350000X0.450000X0.350000X-0.450000X0.350000X-0.450000X-0.350000X0*%
%ADD17RoundRect,0.250000X0.350000X0.450000X-0.350000X0.450000X-0.350000X-0.450000X0.350000X-0.450000X0*%
%ADD18RoundRect,0.250000X-0.350000X-0.450000X0.350000X-0.450000X0.350000X0.450000X-0.350000X0.450000X0*%
%ADD19R,2.400000X0.740000*%
%ADD20RoundRect,0.150000X-0.150000X0.650000X-0.150000X-0.650000X0.150000X-0.650000X0.150000X0.650000X0*%
G04 APERTURE END LIST*
D10*
X154700000Y-148875000D03*
X154700000Y-146800000D03*
D11*
X150300000Y-148175000D03*
X150300000Y-150225000D03*
D12*
X140208000Y-161036000D03*
X140208000Y-158986000D03*
X141900000Y-134800000D03*
X141900000Y-132750000D03*
D11*
X139300000Y-152900000D03*
X139300000Y-154950000D03*
D12*
X141400000Y-154925000D03*
X141400000Y-152875000D03*
D11*
X145900000Y-132675000D03*
X145900000Y-134725000D03*
D12*
X140500000Y-145375000D03*
X140500000Y-147425000D03*
X142405000Y-145375000D03*
X142405000Y-147425000D03*
D11*
X143900000Y-132700000D03*
X143900000Y-134750000D03*
D12*
X138400000Y-147425000D03*
X138400000Y-145375000D03*
X134300000Y-145375000D03*
X134300000Y-147425000D03*
X136400000Y-147400000D03*
X136400000Y-145350000D03*
X134700000Y-153025000D03*
X134700000Y-150975000D03*
D13*
X133604000Y-158766000D03*
X133604000Y-160766000D03*
D14*
X146303000Y-118075000D03*
X149353000Y-114725000D03*
X149353000Y-118075000D03*
X146303000Y-114725000D03*
D15*
X145548000Y-110100000D03*
X150108000Y-110100000D03*
D12*
X152500000Y-150150000D03*
X152500000Y-148100000D03*
D16*
X132334000Y-137636000D03*
X132334000Y-135636000D03*
D13*
X138430000Y-141002000D03*
X138430000Y-143002000D03*
D12*
X140208000Y-166125000D03*
X140208000Y-164075000D03*
D11*
X137100000Y-152900000D03*
X137100000Y-154950000D03*
D17*
X136652000Y-118110000D03*
X134652000Y-118110000D03*
D18*
X139716000Y-118110000D03*
X141716000Y-118110000D03*
D19*
X130900000Y-139954000D03*
X127000000Y-139954000D03*
X130900000Y-141224000D03*
X127000000Y-141224000D03*
X130900000Y-142494000D03*
X127000000Y-142494000D03*
X130900000Y-143764000D03*
X127000000Y-143764000D03*
X130900000Y-145034000D03*
X127000000Y-145034000D03*
X130900000Y-146304000D03*
X127000000Y-146304000D03*
X130900000Y-147574000D03*
X127000000Y-147574000D03*
X130900000Y-148844000D03*
X127000000Y-148844000D03*
X130900000Y-150114000D03*
X127000000Y-150114000D03*
X130900000Y-151384000D03*
X127000000Y-151384000D03*
D13*
X157000000Y-146800000D03*
X157000000Y-148800000D03*
D20*
X153289000Y-144316000D03*
X154559000Y-144316000D03*
X155829000Y-144316000D03*
X157099000Y-144316000D03*
X157099000Y-137116000D03*
X155829000Y-137116000D03*
X154559000Y-137116000D03*
X153289000Y-137116000D03*
M02*
