%TF.GenerationSoftware,KiCad,Pcbnew,6.0.11+dfsg-1~bpo11+1*%
%TF.CreationDate,2023-05-10T08:44:11-04:00*%
%TF.ProjectId,proto-stm32f427,70726f74-6f2d-4737-946d-333266343237,rev?*%
%TF.SameCoordinates,Original*%
%TF.FileFunction,Drillmap*%
%TF.FilePolarity,Positive*%
%FSLAX45Y45*%
G04 Gerber Fmt 4.5, Leading zero omitted, Abs format (unit mm)*
G04 Created by KiCad (PCBNEW 6.0.11+dfsg-1~bpo11+1) date 2023-05-10 08:44:11*
%MOMM*%
%LPD*%
G01*
G04 APERTURE LIST*
%ADD10C,0.150000*%
%ADD11C,0.200000*%
%ADD12C,0.065000*%
G04 APERTURE END LIST*
D10*
X12470000Y-10790000D02*
X15870000Y-10790000D01*
X15870000Y-10790000D02*
X15870000Y-18590000D01*
X15870000Y-18590000D02*
X12470000Y-18590000D01*
X12470000Y-18590000D02*
X12470000Y-10790000D01*
D11*
D12*
X13521500Y-11378600D02*
X13586500Y-11443600D01*
X13586500Y-11378600D02*
X13521500Y-11443600D01*
X14099500Y-11378600D02*
X14164500Y-11443600D01*
X14164500Y-11378600D02*
X14099500Y-11443600D01*
D11*
X12720119Y-18907976D02*
X12720119Y-18707976D01*
X12767738Y-18707976D01*
X12796309Y-18717500D01*
X12815357Y-18736548D01*
X12824881Y-18755595D01*
X12834405Y-18793690D01*
X12834405Y-18822262D01*
X12824881Y-18860357D01*
X12815357Y-18879405D01*
X12796309Y-18898452D01*
X12767738Y-18907976D01*
X12720119Y-18907976D01*
X12920119Y-18907976D02*
X12920119Y-18774643D01*
X12920119Y-18812738D02*
X12929643Y-18793690D01*
X12939167Y-18784167D01*
X12958214Y-18774643D01*
X12977262Y-18774643D01*
X13043928Y-18907976D02*
X13043928Y-18774643D01*
X13043928Y-18707976D02*
X13034405Y-18717500D01*
X13043928Y-18727024D01*
X13053452Y-18717500D01*
X13043928Y-18707976D01*
X13043928Y-18727024D01*
X13167738Y-18907976D02*
X13148690Y-18898452D01*
X13139167Y-18879405D01*
X13139167Y-18707976D01*
X13272500Y-18907976D02*
X13253452Y-18898452D01*
X13243928Y-18879405D01*
X13243928Y-18707976D01*
X13501071Y-18907976D02*
X13501071Y-18707976D01*
X13567738Y-18850833D01*
X13634405Y-18707976D01*
X13634405Y-18907976D01*
X13815357Y-18907976D02*
X13815357Y-18803214D01*
X13805833Y-18784167D01*
X13786786Y-18774643D01*
X13748690Y-18774643D01*
X13729643Y-18784167D01*
X13815357Y-18898452D02*
X13796309Y-18907976D01*
X13748690Y-18907976D01*
X13729643Y-18898452D01*
X13720119Y-18879405D01*
X13720119Y-18860357D01*
X13729643Y-18841310D01*
X13748690Y-18831786D01*
X13796309Y-18831786D01*
X13815357Y-18822262D01*
X13910595Y-18774643D02*
X13910595Y-18974643D01*
X13910595Y-18784167D02*
X13929643Y-18774643D01*
X13967738Y-18774643D01*
X13986786Y-18784167D01*
X13996309Y-18793690D01*
X14005833Y-18812738D01*
X14005833Y-18869881D01*
X13996309Y-18888929D01*
X13986786Y-18898452D01*
X13967738Y-18907976D01*
X13929643Y-18907976D01*
X13910595Y-18898452D01*
X14091548Y-18888929D02*
X14101071Y-18898452D01*
X14091548Y-18907976D01*
X14082024Y-18898452D01*
X14091548Y-18888929D01*
X14091548Y-18907976D01*
X14091548Y-18784167D02*
X14101071Y-18793690D01*
X14091548Y-18803214D01*
X14082024Y-18793690D01*
X14091548Y-18784167D01*
X14091548Y-18803214D01*
D12*
X12397500Y-19205000D02*
X12462500Y-19270000D01*
X12462500Y-19205000D02*
X12397500Y-19270000D01*
D11*
X12758214Y-19127976D02*
X12777262Y-19127976D01*
X12796309Y-19137500D01*
X12805833Y-19147024D01*
X12815357Y-19166071D01*
X12824881Y-19204167D01*
X12824881Y-19251786D01*
X12815357Y-19289881D01*
X12805833Y-19308929D01*
X12796309Y-19318452D01*
X12777262Y-19327976D01*
X12758214Y-19327976D01*
X12739167Y-19318452D01*
X12729643Y-19308929D01*
X12720119Y-19289881D01*
X12710595Y-19251786D01*
X12710595Y-19204167D01*
X12720119Y-19166071D01*
X12729643Y-19147024D01*
X12739167Y-19137500D01*
X12758214Y-19127976D01*
X12910595Y-19308929D02*
X12920119Y-19318452D01*
X12910595Y-19327976D01*
X12901071Y-19318452D01*
X12910595Y-19308929D01*
X12910595Y-19327976D01*
X13091548Y-19127976D02*
X13053452Y-19127976D01*
X13034405Y-19137500D01*
X13024881Y-19147024D01*
X13005833Y-19175595D01*
X12996309Y-19213690D01*
X12996309Y-19289881D01*
X13005833Y-19308929D01*
X13015357Y-19318452D01*
X13034405Y-19327976D01*
X13072500Y-19327976D01*
X13091548Y-19318452D01*
X13101071Y-19308929D01*
X13110595Y-19289881D01*
X13110595Y-19242262D01*
X13101071Y-19223214D01*
X13091548Y-19213690D01*
X13072500Y-19204167D01*
X13034405Y-19204167D01*
X13015357Y-19213690D01*
X13005833Y-19223214D01*
X12996309Y-19242262D01*
X13291548Y-19127976D02*
X13196309Y-19127976D01*
X13186786Y-19223214D01*
X13196309Y-19213690D01*
X13215357Y-19204167D01*
X13262976Y-19204167D01*
X13282024Y-19213690D01*
X13291548Y-19223214D01*
X13301071Y-19242262D01*
X13301071Y-19289881D01*
X13291548Y-19308929D01*
X13282024Y-19318452D01*
X13262976Y-19327976D01*
X13215357Y-19327976D01*
X13196309Y-19318452D01*
X13186786Y-19308929D01*
X13424881Y-19127976D02*
X13443928Y-19127976D01*
X13462976Y-19137500D01*
X13472500Y-19147024D01*
X13482024Y-19166071D01*
X13491548Y-19204167D01*
X13491548Y-19251786D01*
X13482024Y-19289881D01*
X13472500Y-19308929D01*
X13462976Y-19318452D01*
X13443928Y-19327976D01*
X13424881Y-19327976D01*
X13405833Y-19318452D01*
X13396309Y-19308929D01*
X13386786Y-19289881D01*
X13377262Y-19251786D01*
X13377262Y-19204167D01*
X13386786Y-19166071D01*
X13396309Y-19147024D01*
X13405833Y-19137500D01*
X13424881Y-19127976D01*
X13577262Y-19327976D02*
X13577262Y-19194643D01*
X13577262Y-19213690D02*
X13586786Y-19204167D01*
X13605833Y-19194643D01*
X13634405Y-19194643D01*
X13653452Y-19204167D01*
X13662976Y-19223214D01*
X13662976Y-19327976D01*
X13662976Y-19223214D02*
X13672500Y-19204167D01*
X13691548Y-19194643D01*
X13720119Y-19194643D01*
X13739167Y-19204167D01*
X13748690Y-19223214D01*
X13748690Y-19327976D01*
X13843928Y-19327976D02*
X13843928Y-19194643D01*
X13843928Y-19213690D02*
X13853452Y-19204167D01*
X13872500Y-19194643D01*
X13901071Y-19194643D01*
X13920119Y-19204167D01*
X13929643Y-19223214D01*
X13929643Y-19327976D01*
X13929643Y-19223214D02*
X13939167Y-19204167D01*
X13958214Y-19194643D01*
X13986786Y-19194643D01*
X14005833Y-19204167D01*
X14015357Y-19223214D01*
X14015357Y-19327976D01*
X14405833Y-19118452D02*
X14234405Y-19375595D01*
X14662976Y-19127976D02*
X14682024Y-19127976D01*
X14701071Y-19137500D01*
X14710595Y-19147024D01*
X14720119Y-19166071D01*
X14729643Y-19204167D01*
X14729643Y-19251786D01*
X14720119Y-19289881D01*
X14710595Y-19308929D01*
X14701071Y-19318452D01*
X14682024Y-19327976D01*
X14662976Y-19327976D01*
X14643928Y-19318452D01*
X14634405Y-19308929D01*
X14624881Y-19289881D01*
X14615357Y-19251786D01*
X14615357Y-19204167D01*
X14624881Y-19166071D01*
X14634405Y-19147024D01*
X14643928Y-19137500D01*
X14662976Y-19127976D01*
X14815357Y-19308929D02*
X14824881Y-19318452D01*
X14815357Y-19327976D01*
X14805833Y-19318452D01*
X14815357Y-19308929D01*
X14815357Y-19327976D01*
X14948690Y-19127976D02*
X14967738Y-19127976D01*
X14986786Y-19137500D01*
X14996309Y-19147024D01*
X15005833Y-19166071D01*
X15015357Y-19204167D01*
X15015357Y-19251786D01*
X15005833Y-19289881D01*
X14996309Y-19308929D01*
X14986786Y-19318452D01*
X14967738Y-19327976D01*
X14948690Y-19327976D01*
X14929643Y-19318452D01*
X14920119Y-19308929D01*
X14910595Y-19289881D01*
X14901071Y-19251786D01*
X14901071Y-19204167D01*
X14910595Y-19166071D01*
X14920119Y-19147024D01*
X14929643Y-19137500D01*
X14948690Y-19127976D01*
X15091548Y-19147024D02*
X15101071Y-19137500D01*
X15120119Y-19127976D01*
X15167738Y-19127976D01*
X15186786Y-19137500D01*
X15196309Y-19147024D01*
X15205833Y-19166071D01*
X15205833Y-19185119D01*
X15196309Y-19213690D01*
X15082024Y-19327976D01*
X15205833Y-19327976D01*
X15386786Y-19127976D02*
X15291548Y-19127976D01*
X15282024Y-19223214D01*
X15291548Y-19213690D01*
X15310595Y-19204167D01*
X15358214Y-19204167D01*
X15377262Y-19213690D01*
X15386786Y-19223214D01*
X15396309Y-19242262D01*
X15396309Y-19289881D01*
X15386786Y-19308929D01*
X15377262Y-19318452D01*
X15358214Y-19327976D01*
X15310595Y-19327976D01*
X15291548Y-19318452D01*
X15282024Y-19308929D01*
X15567738Y-19127976D02*
X15529643Y-19127976D01*
X15510595Y-19137500D01*
X15501071Y-19147024D01*
X15482024Y-19175595D01*
X15472500Y-19213690D01*
X15472500Y-19289881D01*
X15482024Y-19308929D01*
X15491548Y-19318452D01*
X15510595Y-19327976D01*
X15548690Y-19327976D01*
X15567738Y-19318452D01*
X15577262Y-19308929D01*
X15586786Y-19289881D01*
X15586786Y-19242262D01*
X15577262Y-19223214D01*
X15567738Y-19213690D01*
X15548690Y-19204167D01*
X15510595Y-19204167D01*
X15491548Y-19213690D01*
X15482024Y-19223214D01*
X15472500Y-19242262D01*
X15662976Y-19127976D02*
X15662976Y-19166071D01*
X15739167Y-19127976D02*
X15739167Y-19166071D01*
X16034405Y-19404167D02*
X16024881Y-19394643D01*
X16005833Y-19366071D01*
X15996309Y-19347024D01*
X15986786Y-19318452D01*
X15977262Y-19270833D01*
X15977262Y-19232738D01*
X15986786Y-19185119D01*
X15996309Y-19156548D01*
X16005833Y-19137500D01*
X16024881Y-19108929D01*
X16034405Y-19099405D01*
X16101071Y-19147024D02*
X16110595Y-19137500D01*
X16129643Y-19127976D01*
X16177262Y-19127976D01*
X16196309Y-19137500D01*
X16205833Y-19147024D01*
X16215357Y-19166071D01*
X16215357Y-19185119D01*
X16205833Y-19213690D01*
X16091548Y-19327976D01*
X16215357Y-19327976D01*
X16453452Y-19327976D02*
X16453452Y-19127976D01*
X16539167Y-19327976D02*
X16539167Y-19223214D01*
X16529643Y-19204167D01*
X16510595Y-19194643D01*
X16482024Y-19194643D01*
X16462976Y-19204167D01*
X16453452Y-19213690D01*
X16662976Y-19327976D02*
X16643928Y-19318452D01*
X16634405Y-19308929D01*
X16624881Y-19289881D01*
X16624881Y-19232738D01*
X16634405Y-19213690D01*
X16643928Y-19204167D01*
X16662976Y-19194643D01*
X16691548Y-19194643D01*
X16710595Y-19204167D01*
X16720119Y-19213690D01*
X16729643Y-19232738D01*
X16729643Y-19289881D01*
X16720119Y-19308929D01*
X16710595Y-19318452D01*
X16691548Y-19327976D01*
X16662976Y-19327976D01*
X16843929Y-19327976D02*
X16824881Y-19318452D01*
X16815357Y-19299405D01*
X16815357Y-19127976D01*
X16996310Y-19318452D02*
X16977262Y-19327976D01*
X16939167Y-19327976D01*
X16920119Y-19318452D01*
X16910595Y-19299405D01*
X16910595Y-19223214D01*
X16920119Y-19204167D01*
X16939167Y-19194643D01*
X16977262Y-19194643D01*
X16996310Y-19204167D01*
X17005833Y-19223214D01*
X17005833Y-19242262D01*
X16910595Y-19261310D01*
X17082024Y-19318452D02*
X17101071Y-19327976D01*
X17139167Y-19327976D01*
X17158214Y-19318452D01*
X17167738Y-19299405D01*
X17167738Y-19289881D01*
X17158214Y-19270833D01*
X17139167Y-19261310D01*
X17110595Y-19261310D01*
X17091548Y-19251786D01*
X17082024Y-19232738D01*
X17082024Y-19223214D01*
X17091548Y-19204167D01*
X17110595Y-19194643D01*
X17139167Y-19194643D01*
X17158214Y-19204167D01*
X17234405Y-19404167D02*
X17243929Y-19394643D01*
X17262976Y-19366071D01*
X17272500Y-19347024D01*
X17282024Y-19318452D01*
X17291548Y-19270833D01*
X17291548Y-19232738D01*
X17282024Y-19185119D01*
X17272500Y-19156548D01*
X17262976Y-19137500D01*
X17243929Y-19108929D01*
X17234405Y-19099405D01*
X17596310Y-19404167D02*
X17586786Y-19394643D01*
X17567738Y-19366071D01*
X17558214Y-19347024D01*
X17548690Y-19318452D01*
X17539167Y-19270833D01*
X17539167Y-19232738D01*
X17548690Y-19185119D01*
X17558214Y-19156548D01*
X17567738Y-19137500D01*
X17586786Y-19108929D01*
X17596310Y-19099405D01*
X17672500Y-19194643D02*
X17672500Y-19327976D01*
X17672500Y-19213690D02*
X17682024Y-19204167D01*
X17701071Y-19194643D01*
X17729643Y-19194643D01*
X17748690Y-19204167D01*
X17758214Y-19223214D01*
X17758214Y-19327976D01*
X17882024Y-19327976D02*
X17862976Y-19318452D01*
X17853452Y-19308929D01*
X17843929Y-19289881D01*
X17843929Y-19232738D01*
X17853452Y-19213690D01*
X17862976Y-19204167D01*
X17882024Y-19194643D01*
X17910595Y-19194643D01*
X17929643Y-19204167D01*
X17939167Y-19213690D01*
X17948690Y-19232738D01*
X17948690Y-19289881D01*
X17939167Y-19308929D01*
X17929643Y-19318452D01*
X17910595Y-19327976D01*
X17882024Y-19327976D01*
X18005833Y-19194643D02*
X18082024Y-19194643D01*
X18034405Y-19127976D02*
X18034405Y-19299405D01*
X18043929Y-19318452D01*
X18062976Y-19327976D01*
X18082024Y-19327976D01*
X18301071Y-19194643D02*
X18301071Y-19394643D01*
X18301071Y-19204167D02*
X18320119Y-19194643D01*
X18358214Y-19194643D01*
X18377262Y-19204167D01*
X18386786Y-19213690D01*
X18396310Y-19232738D01*
X18396310Y-19289881D01*
X18386786Y-19308929D01*
X18377262Y-19318452D01*
X18358214Y-19327976D01*
X18320119Y-19327976D01*
X18301071Y-19318452D01*
X18510595Y-19327976D02*
X18491548Y-19318452D01*
X18482024Y-19299405D01*
X18482024Y-19127976D01*
X18672500Y-19327976D02*
X18672500Y-19223214D01*
X18662976Y-19204167D01*
X18643929Y-19194643D01*
X18605833Y-19194643D01*
X18586786Y-19204167D01*
X18672500Y-19318452D02*
X18653452Y-19327976D01*
X18605833Y-19327976D01*
X18586786Y-19318452D01*
X18577262Y-19299405D01*
X18577262Y-19280357D01*
X18586786Y-19261310D01*
X18605833Y-19251786D01*
X18653452Y-19251786D01*
X18672500Y-19242262D01*
X18739167Y-19194643D02*
X18815357Y-19194643D01*
X18767738Y-19127976D02*
X18767738Y-19299405D01*
X18777262Y-19318452D01*
X18796310Y-19327976D01*
X18815357Y-19327976D01*
X18958214Y-19318452D02*
X18939167Y-19327976D01*
X18901071Y-19327976D01*
X18882024Y-19318452D01*
X18872500Y-19299405D01*
X18872500Y-19223214D01*
X18882024Y-19204167D01*
X18901071Y-19194643D01*
X18939167Y-19194643D01*
X18958214Y-19204167D01*
X18967738Y-19223214D01*
X18967738Y-19242262D01*
X18872500Y-19261310D01*
X19139167Y-19327976D02*
X19139167Y-19127976D01*
X19139167Y-19318452D02*
X19120119Y-19327976D01*
X19082024Y-19327976D01*
X19062976Y-19318452D01*
X19053452Y-19308929D01*
X19043929Y-19289881D01*
X19043929Y-19232738D01*
X19053452Y-19213690D01*
X19062976Y-19204167D01*
X19082024Y-19194643D01*
X19120119Y-19194643D01*
X19139167Y-19204167D01*
X19215357Y-19404167D02*
X19224881Y-19394643D01*
X19243929Y-19366071D01*
X19253452Y-19347024D01*
X19262976Y-19318452D01*
X19272500Y-19270833D01*
X19272500Y-19232738D01*
X19262976Y-19185119D01*
X19253452Y-19156548D01*
X19243929Y-19137500D01*
X19224881Y-19108929D01*
X19215357Y-19099405D01*
M02*
