%TF.GenerationSoftware,KiCad,Pcbnew,6.0.11+dfsg-1~bpo11+1*%
%TF.CreationDate,2023-05-10T08:43:11-04:00*%
%TF.ProjectId,proto-stm32f427,70726f74-6f2d-4737-946d-333266343237,rev?*%
%TF.SameCoordinates,Original*%
%TF.FileFunction,Copper,L1,Top*%
%TF.FilePolarity,Positive*%
%FSLAX46Y46*%
G04 Gerber Fmt 4.6, Leading zero omitted, Abs format (unit mm)*
G04 Created by KiCad (PCBNEW 6.0.11+dfsg-1~bpo11+1) date 2023-05-10 08:43:11*
%MOMM*%
%LPD*%
G01*
G04 APERTURE LIST*
G04 Aperture macros list*
%AMRoundRect*
0 Rectangle with rounded corners*
0 $1 Rounding radius*
0 $2 $3 $4 $5 $6 $7 $8 $9 X,Y pos of 4 corners*
0 Add a 4 corners polygon primitive as box body*
4,1,4,$2,$3,$4,$5,$6,$7,$8,$9,$2,$3,0*
0 Add four circle primitives for the rounded corners*
1,1,$1+$1,$2,$3*
1,1,$1+$1,$4,$5*
1,1,$1+$1,$6,$7*
1,1,$1+$1,$8,$9*
0 Add four rect primitives between the rounded corners*
20,1,$1+$1,$2,$3,$4,$5,0*
20,1,$1+$1,$4,$5,$6,$7,0*
20,1,$1+$1,$6,$7,$8,$9,0*
20,1,$1+$1,$8,$9,$2,$3,0*%
%AMRotRect*
0 Rectangle, with rotation*
0 The origin of the aperture is its center*
0 $1 length*
0 $2 width*
0 $3 Rotation angle, in degrees counterclockwise*
0 Add horizontal line*
21,1,$1,$2,0,0,$3*%
G04 Aperture macros list end*
%TA.AperFunction,ComponentPad*%
%ADD10C,4.000000*%
%TD*%
%TA.AperFunction,SMDPad,CuDef*%
%ADD11RoundRect,0.250000X-0.450000X0.325000X-0.450000X-0.325000X0.450000X-0.325000X0.450000X0.325000X0*%
%TD*%
%TA.AperFunction,ComponentPad*%
%ADD12R,1.700000X1.700000*%
%TD*%
%TA.AperFunction,ComponentPad*%
%ADD13O,1.700000X1.700000*%
%TD*%
%TA.AperFunction,ComponentPad*%
%ADD14C,1.500000*%
%TD*%
%TA.AperFunction,SMDPad,CuDef*%
%ADD15RoundRect,0.250000X0.450000X-0.325000X0.450000X0.325000X-0.450000X0.325000X-0.450000X-0.325000X0*%
%TD*%
%TA.AperFunction,SMDPad,CuDef*%
%ADD16RoundRect,0.250000X-0.450000X0.350000X-0.450000X-0.350000X0.450000X-0.350000X0.450000X0.350000X0*%
%TD*%
%TA.AperFunction,SMDPad,CuDef*%
%ADD17RotRect,1.500000X0.280000X45.000000*%
%TD*%
%TA.AperFunction,SMDPad,CuDef*%
%ADD18RotRect,1.500000X0.280000X135.000000*%
%TD*%
%TA.AperFunction,SMDPad,CuDef*%
%ADD19RoundRect,0.250000X0.350000X0.450000X-0.350000X0.450000X-0.350000X-0.450000X0.350000X-0.450000X0*%
%TD*%
%TA.AperFunction,SMDPad,CuDef*%
%ADD20R,1.000000X1.000000*%
%TD*%
%TA.AperFunction,SMDPad,CuDef*%
%ADD21R,0.600000X1.150000*%
%TD*%
%TA.AperFunction,SMDPad,CuDef*%
%ADD22R,0.300000X1.150000*%
%TD*%
%TA.AperFunction,ComponentPad*%
%ADD23O,1.000000X2.100000*%
%TD*%
%TA.AperFunction,ComponentPad*%
%ADD24O,1.000000X1.800000*%
%TD*%
%TA.AperFunction,ViaPad*%
%ADD25C,0.800000*%
%TD*%
%TA.AperFunction,Conductor*%
%ADD26C,0.250000*%
%TD*%
G04 APERTURE END LIST*
D10*
X156000000Y-183200000D03*
X127400000Y-183200000D03*
X127400000Y-110490000D03*
D11*
X145034000Y-109719000D03*
X145034000Y-111769000D03*
X151892000Y-109719000D03*
X151892000Y-111769000D03*
D12*
X126492000Y-160020000D03*
D13*
X129032000Y-160020000D03*
X126492000Y-162560000D03*
X129032000Y-162560000D03*
X126492000Y-165100000D03*
X129032000Y-165100000D03*
X126492000Y-167640000D03*
X129032000Y-167640000D03*
X126492000Y-170180000D03*
X129032000Y-170180000D03*
X126492000Y-172720000D03*
X129032000Y-172720000D03*
X126492000Y-175260000D03*
X129032000Y-175260000D03*
X126492000Y-177800000D03*
X129032000Y-177800000D03*
D12*
X154178000Y-115077000D03*
D13*
X156718000Y-115077000D03*
X154178000Y-117617000D03*
X156718000Y-117617000D03*
X154178000Y-120157000D03*
X156718000Y-120157000D03*
X154178000Y-122697000D03*
X156718000Y-122697000D03*
X154178000Y-125237000D03*
X156718000Y-125237000D03*
X154178000Y-127777000D03*
X156718000Y-127777000D03*
X154178000Y-130317000D03*
X156718000Y-130317000D03*
X154178000Y-132857000D03*
X156718000Y-132857000D03*
D12*
X141981000Y-121920000D03*
D13*
X144521000Y-121920000D03*
D14*
X136652000Y-159204000D03*
X136652000Y-164084000D03*
D12*
X132857000Y-183896000D03*
D13*
X132857000Y-181356000D03*
X135397000Y-183896000D03*
X135397000Y-181356000D03*
X137937000Y-183896000D03*
X137937000Y-181356000D03*
X140477000Y-183896000D03*
X140477000Y-181356000D03*
X143017000Y-183896000D03*
X143017000Y-181356000D03*
X145557000Y-183896000D03*
X145557000Y-181356000D03*
X148097000Y-183896000D03*
X148097000Y-181356000D03*
X150637000Y-183896000D03*
X150637000Y-181356000D03*
D12*
X126487000Y-115062000D03*
D13*
X129027000Y-115062000D03*
X126487000Y-117602000D03*
X129027000Y-117602000D03*
X126487000Y-120142000D03*
X129027000Y-120142000D03*
X126487000Y-122682000D03*
X129027000Y-122682000D03*
X126487000Y-125222000D03*
X129027000Y-125222000D03*
X126487000Y-127762000D03*
X129027000Y-127762000D03*
X126487000Y-130302000D03*
X129027000Y-130302000D03*
X126487000Y-132842000D03*
X129027000Y-132842000D03*
D15*
X145700000Y-116425000D03*
X145700000Y-114375000D03*
D16*
X149606000Y-109744000D03*
X149606000Y-111744000D03*
X147320000Y-109744000D03*
X147320000Y-111744000D03*
D17*
X132157216Y-146377503D03*
X132510769Y-146731056D03*
X132864323Y-147084610D03*
X133217876Y-147438163D03*
X133571429Y-147791716D03*
X133924983Y-148145270D03*
X134278536Y-148498823D03*
X134632089Y-148852377D03*
X134985643Y-149205930D03*
X135339196Y-149559483D03*
X135692750Y-149913037D03*
X136046303Y-150266590D03*
X136399856Y-150620144D03*
X136753410Y-150973697D03*
X137106963Y-151327250D03*
X137460517Y-151680804D03*
X137814070Y-152034357D03*
X138167623Y-152387911D03*
X138521177Y-152741464D03*
X138874730Y-153095017D03*
X139228284Y-153448571D03*
X139581837Y-153802124D03*
X139935390Y-154155677D03*
X140288944Y-154509231D03*
X140642497Y-154862784D03*
D18*
X143329503Y-154862784D03*
X143683056Y-154509231D03*
X144036610Y-154155677D03*
X144390163Y-153802124D03*
X144743716Y-153448571D03*
X145097270Y-153095017D03*
X145450823Y-152741464D03*
X145804377Y-152387911D03*
X146157930Y-152034357D03*
X146511483Y-151680804D03*
X146865037Y-151327250D03*
X147218590Y-150973697D03*
X147572144Y-150620144D03*
X147925697Y-150266590D03*
X148279250Y-149913037D03*
X148632804Y-149559483D03*
X148986357Y-149205930D03*
X149339911Y-148852377D03*
X149693464Y-148498823D03*
X150047017Y-148145270D03*
X150400571Y-147791716D03*
X150754124Y-147438163D03*
X151107677Y-147084610D03*
X151461231Y-146731056D03*
X151814784Y-146377503D03*
D17*
X151814784Y-143690497D03*
X151461231Y-143336944D03*
X151107677Y-142983390D03*
X150754124Y-142629837D03*
X150400571Y-142276284D03*
X150047017Y-141922730D03*
X149693464Y-141569177D03*
X149339911Y-141215623D03*
X148986357Y-140862070D03*
X148632804Y-140508517D03*
X148279250Y-140154963D03*
X147925697Y-139801410D03*
X147572144Y-139447856D03*
X147218590Y-139094303D03*
X146865037Y-138740750D03*
X146511483Y-138387196D03*
X146157930Y-138033643D03*
X145804377Y-137680089D03*
X145450823Y-137326536D03*
X145097270Y-136972983D03*
X144743716Y-136619429D03*
X144390163Y-136265876D03*
X144036610Y-135912323D03*
X143683056Y-135558769D03*
X143329503Y-135205216D03*
D18*
X140642497Y-135205216D03*
X140288944Y-135558769D03*
X139935390Y-135912323D03*
X139581837Y-136265876D03*
X139228284Y-136619429D03*
X138874730Y-136972983D03*
X138521177Y-137326536D03*
X138167623Y-137680089D03*
X137814070Y-138033643D03*
X137460517Y-138387196D03*
X137106963Y-138740750D03*
X136753410Y-139094303D03*
X136399856Y-139447856D03*
X136046303Y-139801410D03*
X135692750Y-140154963D03*
X135339196Y-140508517D03*
X134985643Y-140862070D03*
X134632089Y-141215623D03*
X134278536Y-141569177D03*
X133924983Y-141922730D03*
X133571429Y-142276284D03*
X133217876Y-142629837D03*
X132864323Y-142983390D03*
X132510769Y-143336944D03*
X132157216Y-143690497D03*
D19*
X145018000Y-128778000D03*
X143018000Y-128778000D03*
D20*
X143490000Y-117856000D03*
X140990000Y-117856000D03*
D15*
X148400000Y-116425000D03*
X148400000Y-114375000D03*
D21*
X141630000Y-115186000D03*
X140830000Y-115186000D03*
D22*
X139680000Y-115186000D03*
X138680000Y-115186000D03*
X138180000Y-115186000D03*
X137180000Y-115186000D03*
D21*
X136030000Y-115186000D03*
X135230000Y-115186000D03*
X135230000Y-115186000D03*
X136030000Y-115186000D03*
D22*
X136680000Y-115186000D03*
X137680000Y-115186000D03*
X139180000Y-115186000D03*
X140180000Y-115186000D03*
D21*
X140830000Y-115186000D03*
X141630000Y-115186000D03*
D23*
X142750000Y-114611000D03*
D24*
X142750000Y-110431000D03*
D23*
X134110000Y-114611000D03*
D24*
X134110000Y-110431000D03*
D12*
X154178000Y-160020000D03*
D13*
X156718000Y-160020000D03*
X154178000Y-162560000D03*
X156718000Y-162560000D03*
X154178000Y-165100000D03*
X156718000Y-165100000D03*
X154178000Y-167640000D03*
X156718000Y-167640000D03*
X154178000Y-170180000D03*
X156718000Y-170180000D03*
X154178000Y-172720000D03*
X156718000Y-172720000D03*
X154178000Y-175260000D03*
X156718000Y-175260000D03*
X154178000Y-177800000D03*
X156718000Y-177800000D03*
D10*
X155956000Y-110490000D03*
D12*
X141986000Y-125476000D03*
D13*
X144526000Y-125476000D03*
D12*
X126746000Y-136652000D03*
D13*
X129286000Y-136652000D03*
D19*
X145000000Y-130600000D03*
X143000000Y-130600000D03*
D25*
X128900000Y-145300000D03*
X141800000Y-130700000D03*
X142558406Y-153739533D03*
X136136665Y-148479243D03*
X138073428Y-154168382D03*
X129300000Y-139735001D03*
X137100000Y-143700000D03*
X135478782Y-146368173D03*
X133787701Y-144212299D03*
X142935101Y-152813733D03*
X152400000Y-145900000D03*
X142500000Y-137500000D03*
X142300000Y-135974500D03*
X139800000Y-151600000D03*
X141312299Y-138612299D03*
X150500000Y-145800000D03*
X125300000Y-138100000D03*
X135968711Y-143383785D03*
X134974001Y-143238938D03*
X144526000Y-112776000D03*
X151892000Y-112776000D03*
X144272000Y-108712000D03*
X148844000Y-108712000D03*
X138500000Y-150800000D03*
X134400000Y-155700000D03*
X131526997Y-153542702D03*
X129121316Y-149370612D03*
X130867583Y-152791584D03*
X128905000Y-146685000D03*
X129032000Y-147828000D03*
X135698501Y-142421500D03*
X139954000Y-116586000D03*
X136906000Y-116586000D03*
X152389500Y-144273857D03*
X155700000Y-142800000D03*
X155104500Y-138881222D03*
X154103003Y-138904324D03*
D26*
X134400000Y-152620000D02*
X134400000Y-155700000D01*
X136399856Y-150620144D02*
X134400000Y-152620000D01*
X133662499Y-152014704D02*
X133150499Y-152526704D01*
X136652000Y-159204000D02*
X136652000Y-158985709D01*
X132751497Y-151654326D02*
X132251497Y-152154326D01*
X134632089Y-148852377D02*
X133212998Y-150271468D01*
X133212998Y-150271468D02*
X133212998Y-151828515D01*
X133600000Y-152712893D02*
X136046303Y-150266590D01*
X134252509Y-168701572D02*
X130234081Y-172720000D01*
X127857000Y-173895000D02*
X126492000Y-175260000D01*
X133803008Y-167440992D02*
X129794000Y-171450000D01*
X132251497Y-152154326D02*
X132251497Y-156492276D01*
X127762000Y-168910000D02*
X126492000Y-170180000D01*
X132904006Y-165799994D02*
X129794000Y-168910000D01*
X133150499Y-156119898D02*
X134702010Y-157671409D01*
X132700998Y-156306087D02*
X134252509Y-157857598D01*
X133600000Y-155933709D02*
X133600000Y-152712893D01*
X133217876Y-147438163D02*
X130802497Y-149853542D01*
X127762000Y-171450000D02*
X126492000Y-172720000D01*
X132904006Y-158416165D02*
X132904006Y-165799994D01*
X130802497Y-149853542D02*
X130802497Y-156314656D01*
X129794000Y-168910000D02*
X127762000Y-168910000D01*
X130234081Y-172720000D02*
X129032000Y-172720000D01*
X129794000Y-171450000D02*
X127762000Y-171450000D01*
X134702010Y-157671409D02*
X134702010Y-169081990D01*
X134702010Y-169081990D02*
X129889000Y-173895000D01*
X133803008Y-158043787D02*
X133803008Y-167440992D01*
X132700998Y-152340515D02*
X132700998Y-156306087D01*
X130802497Y-156314656D02*
X132904006Y-158416165D01*
X134252509Y-157857598D02*
X134252509Y-168701572D01*
X129889000Y-173895000D02*
X127857000Y-173895000D01*
X132751497Y-150025862D02*
X132751497Y-151654326D01*
X133662499Y-150529074D02*
X133662499Y-152014704D01*
X132251497Y-156492276D02*
X133803008Y-158043787D01*
X134278536Y-148498823D02*
X132751497Y-150025862D01*
X133212998Y-151828515D02*
X132700998Y-152340515D01*
X134985643Y-149205930D02*
X133662499Y-150529074D01*
X133150499Y-152526704D02*
X133150499Y-156119898D01*
X136652000Y-158985709D02*
X133600000Y-155933709D01*
X132310001Y-142478566D02*
X132214054Y-142382619D01*
X128396816Y-149070514D02*
X128396816Y-155180355D01*
X130302000Y-162951701D02*
X129423701Y-163830000D01*
X131688998Y-149674147D02*
X131688998Y-156565467D01*
X132005004Y-163904996D02*
X129540000Y-166370000D01*
X131106002Y-161122394D02*
X130302000Y-161926396D01*
X129423701Y-163830000D02*
X127762000Y-163830000D01*
X132157216Y-146377503D02*
X129212497Y-146377503D01*
X131555503Y-161371032D02*
X131473493Y-161453042D01*
X131555503Y-158974732D02*
X131555503Y-161371032D01*
X127254000Y-155308919D02*
X131106002Y-159160921D01*
X130290744Y-141837170D02*
X126746000Y-145381914D01*
X129540000Y-166370000D02*
X127762000Y-166370000D01*
X132682814Y-141387669D02*
X133571429Y-142276284D01*
X127762000Y-166370000D02*
X126492000Y-167640000D01*
X133571429Y-147791716D02*
X131688998Y-149674147D01*
X129286000Y-149352000D02*
X129286000Y-155433849D01*
X132454505Y-164217495D02*
X129032000Y-167640000D01*
X131106002Y-159160921D02*
X131106002Y-161122394D01*
X127947315Y-147642685D02*
X127947315Y-155366544D01*
X129212497Y-146377503D02*
X127947315Y-147642685D01*
X131473493Y-161453042D02*
X131473493Y-162658507D01*
X130135502Y-147331828D02*
X128396816Y-149070514D01*
X132214054Y-142382619D02*
X132143344Y-142382619D01*
X131473493Y-162658507D02*
X129032000Y-165100000D01*
X130656501Y-160935499D02*
X129032000Y-162560000D01*
X132143344Y-142382619D02*
X132047396Y-142286671D01*
X133353507Y-158229976D02*
X133353507Y-167060574D01*
X131909997Y-147331828D02*
X130135502Y-147331828D01*
X131688998Y-156565467D02*
X133353507Y-158229976D01*
X132314256Y-142478566D02*
X132310001Y-142478566D01*
X132047396Y-142286671D02*
X130476933Y-142286671D01*
X128396816Y-155180355D02*
X132005004Y-158788543D01*
X129635000Y-161195000D02*
X130207000Y-160623000D01*
X130234081Y-170180000D02*
X129032000Y-170180000D01*
X127762000Y-163830000D02*
X126492000Y-165100000D01*
X127947315Y-155366544D02*
X131555503Y-158974732D01*
X130302000Y-161926396D02*
X130302000Y-162951701D01*
X133353507Y-167060574D02*
X130234081Y-170180000D01*
X132864323Y-142983390D02*
X132819080Y-142983390D01*
X130656501Y-159347110D02*
X130656501Y-160935499D01*
X126746000Y-155436609D02*
X130656501Y-159347110D01*
X126746000Y-145381914D02*
X126746000Y-155436609D01*
X133217876Y-142629837D02*
X132617104Y-142029065D01*
X126296499Y-155622798D02*
X126296499Y-144847811D01*
X130207000Y-160623000D02*
X130207000Y-159533299D01*
X132496190Y-142029065D02*
X132304295Y-141837170D01*
X132819080Y-142983390D02*
X132314256Y-142478566D01*
X126492000Y-162560000D02*
X127857000Y-161195000D01*
X132304295Y-141837170D02*
X130290744Y-141837170D01*
X132617104Y-142029065D02*
X132496190Y-142029065D01*
X132454505Y-158602354D02*
X132454505Y-164217495D01*
X132005004Y-158788543D02*
X132005004Y-163904996D01*
X126296499Y-144847811D02*
X129756641Y-141387669D01*
X132510769Y-146731056D02*
X131909997Y-147331828D01*
X127254000Y-145509604D02*
X127254000Y-155308919D01*
X129756641Y-141387669D02*
X132682814Y-141387669D01*
X127857000Y-161195000D02*
X129635000Y-161195000D01*
X129286000Y-155433849D02*
X132454505Y-158602354D01*
X130207000Y-159533299D02*
X126296499Y-155622798D01*
X130476933Y-142286671D02*
X127254000Y-145509604D01*
X148400000Y-116425000D02*
X151892000Y-112933000D01*
X151892000Y-112933000D02*
X151892000Y-112776000D01*
X149606000Y-111744000D02*
X149606000Y-113169000D01*
X149606000Y-113169000D02*
X148400000Y-114375000D01*
X149606000Y-109744000D02*
X148269586Y-111080414D01*
X148269586Y-111080414D02*
X148345000Y-111155827D01*
X148345000Y-111155827D02*
X148345000Y-112366396D01*
X148345000Y-112366396D02*
X147000000Y-113711396D01*
X147000000Y-113711396D02*
X147000000Y-123002000D01*
X147000000Y-123002000D02*
X144526000Y-125476000D01*
X145700000Y-116425000D02*
X144526000Y-115251000D01*
X144526000Y-115251000D02*
X144526000Y-112776000D01*
X147320000Y-111744000D02*
X147320000Y-112755000D01*
X147320000Y-112755000D02*
X145700000Y-114375000D01*
X126746000Y-136652000D02*
X126746000Y-137752000D01*
X133875967Y-140459501D02*
X128694494Y-140459501D01*
X128694494Y-140459501D02*
X125397497Y-143756498D01*
X128729001Y-139735001D02*
X129300000Y-139735001D01*
X134632089Y-141215623D02*
X133875967Y-140459501D01*
X125397497Y-143756498D02*
X125397497Y-158925497D01*
X125397497Y-158925497D02*
X126492000Y-160020000D01*
X126746000Y-137752000D02*
X128729001Y-139735001D01*
X134278536Y-141569177D02*
X135130859Y-142421500D01*
X141243269Y-135805988D02*
X141243269Y-136395541D01*
X136650499Y-140988311D02*
X136650499Y-142701997D01*
X144390163Y-136265876D02*
X143674001Y-136982038D01*
X137400098Y-144424500D02*
X135971448Y-144424500D01*
X135971448Y-144424500D02*
X134974001Y-143427053D01*
X134974001Y-143427053D02*
X134974001Y-143238938D01*
X140642497Y-135205216D02*
X141243269Y-135805988D01*
X136650499Y-142701997D02*
X135968711Y-143383785D01*
X141243269Y-136395541D02*
X136650499Y-140988311D01*
X135130859Y-142421500D02*
X135698501Y-142421500D01*
X143674001Y-136982038D02*
X143674001Y-138150597D01*
X143674001Y-138150597D02*
X137400098Y-144424500D01*
X132157216Y-143690497D02*
X132757988Y-144291269D01*
X133708731Y-144291269D02*
X133787701Y-144212299D01*
X132757988Y-144291269D02*
X133708731Y-144291269D01*
X145034000Y-112268000D02*
X144526000Y-112776000D01*
X143764000Y-110989000D02*
X145034000Y-109719000D01*
X145034000Y-111769000D02*
X145034000Y-112268000D01*
X143764000Y-117582000D02*
X143764000Y-110989000D01*
X143490000Y-117856000D02*
X143764000Y-117582000D01*
X136482994Y-126835134D02*
X136482994Y-125685924D01*
X130304760Y-118872000D02*
X127757000Y-118872000D01*
X138196004Y-127912454D02*
X136932495Y-126648945D01*
X138196004Y-135587149D02*
X138196004Y-127912454D01*
X138874730Y-136972983D02*
X137746503Y-135844756D01*
X137381996Y-126462756D02*
X137381996Y-125313546D01*
X138645505Y-135329544D02*
X138645505Y-127726265D01*
X139581837Y-136265876D02*
X138645505Y-135329544D01*
X127757000Y-116332000D02*
X126487000Y-115062000D01*
X129541380Y-116332000D02*
X127757000Y-116332000D01*
X137831497Y-126276567D02*
X137831497Y-124622117D01*
X136932495Y-126648945D02*
X136932495Y-125499735D01*
X139935390Y-135912323D02*
X139095006Y-135071939D01*
X141075500Y-127613500D02*
X139180000Y-125718000D01*
X141075500Y-131000098D02*
X141075500Y-127613500D01*
X143876293Y-133800891D02*
X141075500Y-131000098D01*
X137831497Y-124622117D02*
X129541380Y-116332000D01*
X139180000Y-125718000D02*
X139180000Y-115186000D01*
X129670450Y-117602000D02*
X129027000Y-117602000D01*
X138645505Y-127726265D02*
X137381996Y-126462756D01*
X144081854Y-133800891D02*
X143876293Y-133800891D01*
X138680000Y-124075690D02*
X138730499Y-124126189D01*
X140625999Y-131561689D02*
X143315201Y-134250891D01*
X145698041Y-136252004D02*
X145794488Y-136155557D01*
X145794488Y-135513525D02*
X144081854Y-133800891D01*
X145344488Y-135699921D02*
X145344488Y-135969161D01*
X143018000Y-128778000D02*
X140806000Y-126566000D01*
X145097270Y-136923485D02*
X145698041Y-136322714D01*
X139095006Y-135071939D02*
X139095006Y-127540076D01*
X140806000Y-118040000D02*
X140990000Y-117856000D01*
X130939070Y-120142000D02*
X129027000Y-120142000D01*
X145794488Y-136155557D02*
X145794488Y-135513525D01*
X136482994Y-125685924D02*
X130939070Y-120142000D01*
X136932495Y-125499735D02*
X130304760Y-118872000D01*
X139228284Y-136619429D02*
X138196004Y-135587149D01*
X140806000Y-126566000D02*
X140806000Y-118040000D01*
X138680000Y-115828000D02*
X138680000Y-124075690D01*
X137746503Y-128098643D02*
X136482994Y-126835134D01*
X138280998Y-126090378D02*
X138280998Y-124315998D01*
X138730499Y-124126189D02*
X138730499Y-125904189D01*
X137746503Y-135844756D02*
X137746503Y-128098643D01*
X140288944Y-135558769D02*
X139688172Y-134957997D01*
X137381996Y-125313546D02*
X129670450Y-117602000D01*
X138730499Y-125904189D02*
X140625999Y-127799689D01*
X127757000Y-118872000D02*
X126487000Y-117602000D01*
X140625999Y-127799689D02*
X140625999Y-131561689D01*
X143315201Y-134250891D02*
X143895458Y-134250891D01*
X138280998Y-124315998D02*
X129027000Y-115062000D01*
X145097270Y-136972983D02*
X145097270Y-136923485D01*
X145698041Y-136322714D02*
X145698041Y-136252004D01*
X143895458Y-134250891D02*
X145344488Y-135699921D01*
X139095006Y-127540076D02*
X137831497Y-126276567D01*
X145344488Y-135969161D02*
X144743716Y-136569933D01*
X144743716Y-136569933D02*
X144743716Y-136619429D01*
X139688172Y-134957997D02*
X139688172Y-127497552D01*
X139688172Y-127497552D02*
X138280998Y-126090378D01*
X135382000Y-136308679D02*
X135382000Y-128276900D01*
X137460517Y-138387196D02*
X135382000Y-136308679D01*
X131597790Y-123857000D02*
X127662000Y-123857000D01*
X135890000Y-128149210D02*
X131597790Y-123857000D01*
X131058480Y-122682000D02*
X129027000Y-122682000D01*
X136339501Y-127963021D02*
X131058480Y-122682000D01*
X136339501Y-135851967D02*
X136339501Y-127963021D01*
X127662000Y-121317000D02*
X126487000Y-120142000D01*
X132900499Y-122740499D02*
X131477000Y-121317000D01*
X136789002Y-135594361D02*
X136789002Y-127776832D01*
X138521177Y-137326536D02*
X136789002Y-135594361D01*
X137814070Y-138033643D02*
X135890000Y-136109573D01*
X132327100Y-125222000D02*
X129027000Y-125222000D01*
X138167623Y-137680089D02*
X136339501Y-135851967D01*
X136789002Y-127776832D02*
X132900499Y-123888329D01*
X135890000Y-136109573D02*
X135890000Y-128149210D01*
X132900499Y-123888329D02*
X132900499Y-122740499D01*
X131477000Y-121317000D02*
X127662000Y-121317000D01*
X135382000Y-128276900D02*
X132327100Y-125222000D01*
X127662000Y-123857000D02*
X126487000Y-122682000D01*
X151892000Y-111769000D02*
X151892000Y-112776000D01*
X153881299Y-116252000D02*
X155543000Y-116252000D01*
X152654000Y-117479299D02*
X153881299Y-116252000D01*
X147149501Y-126546343D02*
X148023501Y-125672343D01*
X146157930Y-138033643D02*
X147124499Y-137067074D01*
X146244488Y-135327835D02*
X146244488Y-136532871D01*
X152654000Y-118491690D02*
X152654000Y-117479299D01*
X147124499Y-136995657D02*
X147149501Y-136970655D01*
X146244488Y-136532871D02*
X145450823Y-137326536D01*
X154178000Y-115077000D02*
X152204499Y-117050501D01*
X152204499Y-117797501D02*
X147500000Y-122502000D01*
X152204499Y-117050501D02*
X152204499Y-117797501D01*
X155543000Y-116252000D02*
X156718000Y-115077000D01*
X147149501Y-136970655D02*
X147149501Y-126546343D01*
X147500000Y-122502000D02*
X147500000Y-124682827D01*
X147500000Y-124682827D02*
X144000000Y-128182827D01*
X144000000Y-128182827D02*
X144000000Y-133083347D01*
X148023501Y-123122189D02*
X152654000Y-118491690D01*
X148023501Y-125672343D02*
X148023501Y-123122189D01*
X147124499Y-137067074D02*
X147124499Y-136995657D01*
X144000000Y-133083347D02*
X146244488Y-135327835D01*
X151461231Y-143336944D02*
X152062003Y-142736172D01*
X152062003Y-142736172D02*
X155636172Y-142736172D01*
X155636172Y-142736172D02*
X156718000Y-143818000D01*
X156718000Y-143818000D02*
X156718000Y-160020000D01*
X155104500Y-138986567D02*
X155104500Y-138881222D01*
X151107677Y-142983390D02*
X155104500Y-138986567D01*
X156718000Y-137267722D02*
X155104500Y-138881222D01*
X154178000Y-132857000D02*
X154178000Y-138829327D01*
X156718000Y-132857000D02*
X156718000Y-137267722D01*
X150754124Y-142629837D02*
X154103003Y-139280958D01*
X154103003Y-139280958D02*
X154103003Y-138904324D01*
X154178000Y-138829327D02*
X154103003Y-138904324D01*
X132939922Y-140937669D02*
X128852016Y-140937669D01*
X128852016Y-140937669D02*
X125846998Y-143942687D01*
X133924983Y-141922730D02*
X132939922Y-140937669D01*
X125846998Y-156834998D02*
X129032000Y-160020000D01*
X125846998Y-143942687D02*
X125846998Y-156834998D01*
X131860501Y-142736172D02*
X130663828Y-142736172D01*
X132461273Y-143336944D02*
X131860501Y-142736172D01*
X128900000Y-144500000D02*
X128900000Y-145300000D01*
X132510769Y-143336944D02*
X132461273Y-143336944D01*
X130663828Y-142736172D02*
X128900000Y-144500000D01*
X135397000Y-183896000D02*
X137937000Y-183896000D01*
X135397000Y-181356000D02*
X135397000Y-183896000D01*
X141900000Y-130600000D02*
X141800000Y-130700000D01*
X143000000Y-130600000D02*
X141900000Y-130600000D01*
X148922503Y-129461497D02*
X148922503Y-127163267D01*
X147574000Y-137324679D02*
X146511483Y-138387196D01*
X145000000Y-130600000D02*
X146700000Y-132300000D01*
X146865037Y-138740750D02*
X146865037Y-138691252D01*
X146865037Y-138691252D02*
X147465808Y-138090481D01*
X148048503Y-137485866D02*
X148048503Y-136635926D01*
X147599002Y-136449737D02*
X147599002Y-137156844D01*
X148160503Y-130223497D02*
X148922503Y-129461497D01*
X148922503Y-123558146D02*
X153608649Y-118872000D01*
X147574000Y-137181846D02*
X147574000Y-137324679D01*
X148048503Y-136635926D02*
X148160503Y-136523926D01*
X147599002Y-137156844D02*
X147574000Y-137181846D01*
X147465808Y-138068561D02*
X148048503Y-137485866D01*
X147711002Y-136337737D02*
X147599002Y-136449737D01*
X147711002Y-128110458D02*
X147711002Y-136337737D01*
X148473002Y-125858532D02*
X148472503Y-125859031D01*
X146700000Y-132300000D02*
X146700000Y-136784466D01*
X148473002Y-123321998D02*
X148473002Y-125858532D01*
X148922004Y-126045220D02*
X148922503Y-126044721D01*
X148922004Y-127162768D02*
X148922004Y-126045220D01*
X146700000Y-136784466D02*
X145804377Y-137680089D01*
X148472503Y-127348957D02*
X147711002Y-128110458D01*
X148922503Y-126044721D02*
X148922503Y-123558146D01*
X148922503Y-127163267D02*
X148922004Y-127162768D01*
X148472503Y-125859031D02*
X148472503Y-127348957D01*
X154178000Y-117617000D02*
X148473002Y-123321998D01*
X153608649Y-118872000D02*
X155463000Y-118872000D01*
X155463000Y-118872000D02*
X156718000Y-117617000D01*
X147465808Y-138090481D02*
X147465808Y-138068561D01*
X148160503Y-136523926D02*
X148160503Y-130223497D01*
X145018000Y-128778000D02*
X145018000Y-130582000D01*
X145018000Y-130582000D02*
X145000000Y-130600000D01*
X141630000Y-115186000D02*
X142175000Y-115186000D01*
X142175000Y-115186000D02*
X142750000Y-114611000D01*
X135230000Y-115186000D02*
X134685000Y-115186000D01*
X134685000Y-115186000D02*
X134110000Y-114611000D01*
X141721368Y-151600000D02*
X142935101Y-152813733D01*
X139800000Y-151600000D02*
X141721368Y-151600000D01*
X144036610Y-154155677D02*
X142935101Y-153054168D01*
X142913358Y-153739533D02*
X142558406Y-153739533D01*
X142935101Y-153054168D02*
X142935101Y-152813733D01*
X143683056Y-154509231D02*
X142913358Y-153739533D01*
X135727469Y-149913037D02*
X135692750Y-149913037D01*
X136861165Y-148779341D02*
X135727469Y-149913037D01*
X136861165Y-147750556D02*
X136861165Y-148779341D01*
X135478782Y-146368173D02*
X136861165Y-147750556D01*
X135339196Y-149559483D02*
X136136665Y-148762014D01*
X136136665Y-148762014D02*
X136136665Y-148479243D01*
X127857000Y-176435000D02*
X126492000Y-177800000D01*
X139177540Y-156446780D02*
X139177540Y-156704920D01*
X137348928Y-154468480D02*
X137566852Y-154686404D01*
X136449926Y-152691395D02*
X136449926Y-154840858D01*
X131064000Y-179070000D02*
X131064000Y-182103000D01*
X139270503Y-158069263D02*
X139270503Y-167561497D01*
X135550924Y-155213236D02*
X135768848Y-155431160D01*
X136899427Y-154654669D02*
X137117351Y-154872593D01*
X135768848Y-155431160D02*
X135768848Y-155838988D01*
X135550924Y-152176183D02*
X135550924Y-155213236D01*
X138728039Y-156891109D02*
X139720004Y-157883074D01*
X136449926Y-154840858D02*
X136667850Y-155058782D01*
X137566852Y-153650360D02*
X137348928Y-153868284D01*
X138371501Y-167189119D02*
X130300620Y-175260000D01*
X137106963Y-151327250D02*
X136000425Y-152433788D01*
X138167623Y-152387911D02*
X137566852Y-152988682D01*
X136000425Y-155027047D02*
X136218349Y-155244971D01*
X136218349Y-155652799D02*
X138821002Y-158255452D01*
X138371501Y-158441641D02*
X138371501Y-167189119D01*
X137814070Y-152034357D02*
X137117351Y-152731076D01*
X137117351Y-155022281D02*
X138728039Y-156632969D01*
X139720004Y-157883074D02*
X139720004Y-171305066D01*
X135768848Y-155838988D02*
X138371501Y-158441641D01*
X136218349Y-155244971D02*
X136218349Y-155652799D01*
X137566852Y-154686404D02*
X137566852Y-154836092D01*
X139270503Y-167561497D02*
X129032000Y-177800000D01*
X140169505Y-157696885D02*
X140169505Y-171491255D01*
X134440996Y-175693004D02*
X131064000Y-179070000D01*
X139720004Y-171305066D02*
X135332066Y-175693004D01*
X137117351Y-152731076D02*
X137117351Y-153464171D01*
X136753410Y-150973697D02*
X135550924Y-152176183D01*
X129761310Y-176435000D02*
X127857000Y-176435000D01*
X137117351Y-154872593D02*
X137117351Y-155022281D01*
X137566852Y-152988682D02*
X137566852Y-153650360D01*
X138073428Y-153896319D02*
X138073428Y-154168382D01*
X139177540Y-156704920D02*
X140169505Y-157696885D01*
X136899427Y-153682095D02*
X136899427Y-154654669D01*
X130300620Y-175260000D02*
X129032000Y-175260000D01*
X137460517Y-151680804D02*
X136449926Y-152691395D01*
X138874730Y-153095017D02*
X138073428Y-153896319D01*
X132857000Y-178803760D02*
X132857000Y-181356000D01*
X137117351Y-153464171D02*
X136899427Y-153682095D01*
X136667850Y-155058782D02*
X136667850Y-155466610D01*
X140169505Y-171491255D02*
X132857000Y-178803760D01*
X136667850Y-155466610D02*
X139270503Y-158069263D01*
X136000425Y-152433788D02*
X136000425Y-155027047D01*
X137566852Y-154836092D02*
X139177540Y-156446780D01*
X131064000Y-182103000D02*
X132857000Y-183896000D01*
X138728039Y-156632969D02*
X138728039Y-156891109D01*
X138821002Y-158255452D02*
X138821002Y-167375308D01*
X135332066Y-175693004D02*
X134440996Y-175693004D01*
X137348928Y-153868284D02*
X137348928Y-154468480D01*
X138821002Y-167375308D02*
X129761310Y-176435000D01*
X139800000Y-151600000D02*
X147000000Y-144400000D01*
X147000000Y-144400000D02*
X150900000Y-144400000D01*
X150900000Y-144400000D02*
X152400000Y-145900000D01*
X135478782Y-146368173D02*
X135968173Y-146368173D01*
X135968173Y-146368173D02*
X139800000Y-150200000D01*
X139800000Y-150200000D02*
X139800000Y-151600000D01*
X142300000Y-135974500D02*
X137100000Y-141174500D01*
X143683056Y-135558769D02*
X143082285Y-136159540D01*
X143224500Y-136773929D02*
X143224500Y-137800098D01*
X144036610Y-135912323D02*
X144036610Y-135961819D01*
X144036610Y-135961819D02*
X143224500Y-136773929D01*
X137100000Y-141174500D02*
X137100000Y-143700000D01*
X143082285Y-136159540D02*
X143082285Y-136280454D01*
X143224500Y-137800098D02*
X142412299Y-138612299D01*
X142749501Y-136613238D02*
X142749501Y-137250499D01*
X142412299Y-138612299D02*
X141312299Y-138612299D01*
X143082285Y-136280454D02*
X142749501Y-136613238D01*
X142749501Y-137250499D02*
X142500000Y-137500000D01*
X138072925Y-150372925D02*
X138500000Y-150800000D01*
X137354182Y-150372925D02*
X138072925Y-150372925D01*
X136753410Y-150973697D02*
X137354182Y-150372925D01*
X135478782Y-146368173D02*
X135478782Y-146591471D01*
X135478782Y-146591471D02*
X133924983Y-148145270D01*
X152292287Y-145900000D02*
X151814784Y-146377503D01*
X152400000Y-145900000D02*
X152292287Y-145900000D01*
X142300000Y-135974500D02*
X142560219Y-135974500D01*
X142560219Y-135974500D02*
X143329503Y-135205216D01*
X139829055Y-151629055D02*
X140200000Y-152000000D01*
X140200000Y-152000000D02*
X140200000Y-153183961D01*
X140200000Y-153183961D02*
X139581837Y-153802124D01*
X139800000Y-151600000D02*
X139829055Y-151629055D01*
X139829055Y-151629055D02*
X139829055Y-152847800D01*
X139829055Y-152847800D02*
X139228284Y-153448571D01*
X139800000Y-151600000D02*
X139662641Y-151600000D01*
X139662641Y-151600000D02*
X138521177Y-152741464D01*
X150500000Y-145800000D02*
X150530175Y-145800000D01*
X150530175Y-145800000D02*
X151461231Y-146731056D01*
X129027000Y-130302000D02*
X128148701Y-130302000D01*
X128148701Y-130302000D02*
X126946701Y-129100000D01*
X126946701Y-129100000D02*
X126027299Y-129100000D01*
X126027299Y-129100000D02*
X125300000Y-129827299D01*
X125300000Y-129827299D02*
X125300000Y-138100000D01*
X145034000Y-109719000D02*
X147295000Y-109719000D01*
X144521000Y-121920000D02*
X144521000Y-118887000D01*
X145034000Y-109719000D02*
X145034000Y-109474000D01*
X144521000Y-118887000D02*
X143490000Y-117856000D01*
X147295000Y-109719000D02*
X147320000Y-109744000D01*
X145034000Y-109474000D02*
X144272000Y-108712000D01*
X151867000Y-109744000D02*
X151892000Y-109719000D01*
X149606000Y-109474000D02*
X148844000Y-108712000D01*
X149606000Y-109744000D02*
X149606000Y-109474000D01*
X149606000Y-109744000D02*
X151867000Y-109744000D01*
X136030000Y-114610951D02*
X137102951Y-113538000D01*
X139757756Y-113538000D02*
X140830000Y-114610244D01*
X137102951Y-113538000D02*
X139757756Y-113538000D01*
X140990000Y-115346000D02*
X140830000Y-115186000D01*
X140830000Y-114610244D02*
X140830000Y-115186000D01*
X136030000Y-115186000D02*
X136030000Y-114610951D01*
X140990000Y-117856000D02*
X140990000Y-115346000D01*
X154178000Y-122697000D02*
X150271006Y-126603994D01*
X149856493Y-137584946D02*
X148814311Y-138627128D01*
X148622416Y-138912361D02*
X148622416Y-138983777D01*
X150271006Y-126603994D02*
X150271006Y-130459813D01*
X149856493Y-130874326D02*
X149856493Y-137584946D01*
X148622416Y-138983777D02*
X148526469Y-139079724D01*
X148718364Y-138816413D02*
X148622416Y-138912361D01*
X148718364Y-138744995D02*
X148718364Y-138816413D01*
X148814311Y-138627128D02*
X148814311Y-138649048D01*
X148526469Y-139151141D02*
X147925697Y-139751913D01*
X148814311Y-138649048D02*
X148718364Y-138744995D01*
X147925697Y-139751913D02*
X147925697Y-139801410D01*
X148526469Y-139079724D02*
X148526469Y-139151141D01*
X150271006Y-130459813D02*
X149856493Y-130874326D01*
X150305994Y-131060515D02*
X150720507Y-130646002D01*
X148880022Y-139433278D02*
X149071917Y-139241383D01*
X155463000Y-123952000D02*
X156718000Y-122697000D01*
X149071917Y-139098550D02*
X149167865Y-139002602D01*
X150305994Y-137771135D02*
X150305994Y-131060515D01*
X149167865Y-138931184D02*
X149263812Y-138835237D01*
X150720507Y-130646002D02*
X150720507Y-127032792D01*
X150720507Y-127032792D02*
X153801299Y-123952000D01*
X149263812Y-138835237D02*
X149263812Y-138813317D01*
X149167865Y-139002602D02*
X149167865Y-138931184D01*
X149263812Y-138813317D02*
X150305994Y-137771135D01*
X148880022Y-139554191D02*
X148880022Y-139433278D01*
X148279250Y-140154963D02*
X148880022Y-139554191D01*
X153801299Y-123952000D02*
X155463000Y-123952000D01*
X149071917Y-139241383D02*
X149071917Y-139098550D01*
X150755495Y-137957324D02*
X150388004Y-138324815D01*
X151170008Y-128167952D02*
X151170008Y-130832191D01*
X149521418Y-139427572D02*
X149329523Y-139619467D01*
X151170008Y-130832191D02*
X150755495Y-131246704D01*
X154178000Y-125237000D02*
X154100960Y-125237000D01*
X149329523Y-139811798D02*
X148632804Y-140508517D01*
X150388004Y-138324815D02*
X150388004Y-138418153D01*
X150755495Y-131246704D02*
X150755495Y-137957324D01*
X149329523Y-139619467D02*
X149329523Y-139811798D01*
X154100960Y-125237000D02*
X151170008Y-128167952D01*
X150388004Y-138418153D02*
X149521418Y-139284739D01*
X149521418Y-139284739D02*
X149521418Y-139427572D01*
X150837505Y-138604342D02*
X150837505Y-138511004D01*
X148986357Y-140862070D02*
X149970919Y-139877508D01*
X150837505Y-138511004D02*
X151204996Y-138143513D01*
X151204996Y-131432893D02*
X151619509Y-131018380D01*
X155463000Y-126492000D02*
X156718000Y-125237000D01*
X151619509Y-128354141D02*
X153481650Y-126492000D01*
X149970919Y-139470928D02*
X150837505Y-138604342D01*
X151204996Y-138143513D02*
X151204996Y-131432893D01*
X151619509Y-131018380D02*
X151619509Y-128354141D01*
X149970919Y-139877508D02*
X149970919Y-139470928D01*
X153481650Y-126492000D02*
X155463000Y-126492000D01*
X154178000Y-127777000D02*
X152069010Y-129885990D01*
X151654497Y-131619082D02*
X151654497Y-138901037D01*
X152069010Y-131204569D02*
X151654497Y-131619082D01*
X151654497Y-138901037D02*
X149339911Y-141215623D01*
X152069010Y-129885990D02*
X152069010Y-131204569D01*
X152518511Y-130314788D02*
X153801299Y-129032000D01*
X153801299Y-129032000D02*
X155463000Y-129032000D01*
X152103998Y-131805271D02*
X152518511Y-131390758D01*
X152518511Y-131390758D02*
X152518511Y-130314788D01*
X152103998Y-139158643D02*
X152103998Y-131805271D01*
X155463000Y-129032000D02*
X156718000Y-127777000D01*
X149693464Y-141569177D02*
X152103998Y-139158643D01*
X153312460Y-131232499D02*
X152553499Y-131991460D01*
X153312460Y-131182540D02*
X153312460Y-131232499D01*
X152553499Y-139416248D02*
X150047017Y-141922730D01*
X152553499Y-131991460D02*
X152553499Y-139416248D01*
X154178000Y-130317000D02*
X153312460Y-131182540D01*
X153003000Y-132177649D02*
X153608649Y-131572000D01*
X153003000Y-139673855D02*
X153003000Y-132177649D01*
X150400571Y-142276284D02*
X153003000Y-139673855D01*
X153608649Y-131572000D02*
X155463000Y-131572000D01*
X155463000Y-131572000D02*
X156718000Y-130317000D01*
X154178000Y-162560000D02*
X153003000Y-161385000D01*
X153003000Y-158910380D02*
X153532452Y-158380928D01*
X153532452Y-149509385D02*
X151107677Y-147084610D01*
X153003000Y-161385000D02*
X153003000Y-158910380D01*
X153532452Y-158380928D02*
X153532452Y-149509385D01*
X152890556Y-150766055D02*
X152794110Y-150669609D01*
X156718000Y-162560000D02*
X155543000Y-163735000D01*
X152400000Y-162686310D02*
X152400000Y-158756399D01*
X152712499Y-150517286D02*
X152712499Y-149396538D01*
X155543000Y-163735000D02*
X153448690Y-163735000D01*
X152966998Y-150913207D02*
X152890556Y-150836765D01*
X153448690Y-163735000D02*
X152400000Y-162686310D01*
X153082951Y-158073448D02*
X153082951Y-151100576D01*
X153082951Y-151100576D02*
X152966998Y-150984623D01*
X152400000Y-158756399D02*
X153082951Y-158073448D01*
X152712499Y-149396538D02*
X150754124Y-147438163D01*
X152966998Y-150984623D02*
X152966998Y-150913207D01*
X152794110Y-150598897D02*
X152712499Y-150517286D01*
X152890556Y-150836765D02*
X152890556Y-150766055D01*
X152794110Y-150669609D02*
X152794110Y-150598897D01*
X152441055Y-150952244D02*
X152344609Y-150855798D01*
X152344609Y-150855798D02*
X152344609Y-150785086D01*
X151892000Y-162814000D02*
X151892000Y-158628709D01*
X152517497Y-151170812D02*
X152517497Y-151099396D01*
X152633450Y-157887259D02*
X152633450Y-151286765D01*
X152517497Y-151099396D02*
X152441055Y-151022954D01*
X154178000Y-165100000D02*
X151892000Y-162814000D01*
X152344609Y-150785086D02*
X152262998Y-150703475D01*
X152262998Y-150703475D02*
X152262998Y-149654143D01*
X152262998Y-149654143D02*
X150400571Y-147791716D01*
X152633450Y-151286765D02*
X152517497Y-151170812D01*
X151892000Y-158628709D02*
X152633450Y-157887259D01*
X152441055Y-151022954D02*
X152441055Y-150952244D01*
X155543000Y-166275000D02*
X153067000Y-166275000D01*
X156718000Y-165100000D02*
X155543000Y-166275000D01*
X151813497Y-149911750D02*
X150047017Y-148145270D01*
X153067000Y-166275000D02*
X152103998Y-165311998D01*
X151991554Y-151138433D02*
X151895108Y-151041987D01*
X151246998Y-158638021D02*
X152183949Y-157701070D01*
X151895108Y-151041987D02*
X151895108Y-150971275D01*
X152183949Y-151472954D02*
X152087502Y-151376507D01*
X152183949Y-157701070D02*
X152183949Y-151472954D01*
X151895108Y-150971275D02*
X151813497Y-150889664D01*
X151813497Y-150889664D02*
X151813497Y-149911750D01*
X152087502Y-151376507D02*
X152087502Y-151305797D01*
X152067996Y-151286291D02*
X152067996Y-151285585D01*
X152067996Y-151285585D02*
X151991554Y-151209143D01*
X151442499Y-163000189D02*
X151442499Y-161852359D01*
X152087502Y-151305797D02*
X152067996Y-151286291D01*
X152103998Y-165311998D02*
X152103998Y-163661688D01*
X151991554Y-151209143D02*
X151991554Y-151138433D01*
X151442499Y-161852359D02*
X151246998Y-161656858D01*
X151246998Y-161656858D02*
X151246998Y-158638021D01*
X152103998Y-163661688D02*
X151442499Y-163000189D01*
X151445607Y-151228176D02*
X151445607Y-151157464D01*
X152975919Y-167640000D02*
X151654497Y-166318578D01*
X150992998Y-163186378D02*
X150992998Y-162038548D01*
X151618495Y-151471774D02*
X151542053Y-151395332D01*
X151542053Y-151324622D02*
X151445607Y-151228176D01*
X151445607Y-151157464D02*
X151363996Y-151075853D01*
X151363996Y-151075853D02*
X151363996Y-150169355D01*
X151542053Y-151395332D02*
X151542053Y-151324622D01*
X151638001Y-151562696D02*
X151638001Y-151491986D01*
X150797497Y-158451832D02*
X151734448Y-157514881D01*
X151638001Y-151491986D02*
X151618495Y-151472480D01*
X151654497Y-163847877D02*
X150992998Y-163186378D01*
X150992998Y-162038548D02*
X150797497Y-161843047D01*
X151734448Y-151659143D02*
X151638001Y-151562696D01*
X151654497Y-166318578D02*
X151654497Y-163847877D01*
X151363996Y-150169355D02*
X149693464Y-148498823D01*
X151618495Y-151472480D02*
X151618495Y-151471774D01*
X150797497Y-161843047D02*
X150797497Y-158451832D01*
X154178000Y-167640000D02*
X152975919Y-167640000D01*
X151734448Y-157514881D02*
X151734448Y-151659143D01*
X151168994Y-151658669D02*
X151168994Y-151657963D01*
X150996106Y-151343653D02*
X150914495Y-151262042D01*
X151284947Y-157328692D02*
X151284947Y-151845332D01*
X151168994Y-151657963D02*
X151092552Y-151581521D01*
X150543497Y-163372567D02*
X150543497Y-162224737D01*
X150914495Y-151262042D02*
X150914495Y-150426961D01*
X151188500Y-151678175D02*
X151168994Y-151658669D01*
X155448000Y-168910000D02*
X151892000Y-168910000D01*
X150996106Y-151414365D02*
X150996106Y-151343653D01*
X151092552Y-151510811D02*
X150996106Y-151414365D01*
X156718000Y-167640000D02*
X155448000Y-168910000D01*
X151092552Y-151581521D02*
X151092552Y-151510811D01*
X150914495Y-150426961D02*
X149339911Y-148852377D01*
X150347996Y-162029236D02*
X150347996Y-158265643D01*
X150543497Y-162224737D02*
X150347996Y-162029236D01*
X150347996Y-158265643D02*
X151284947Y-157328692D01*
X151188500Y-151748885D02*
X151188500Y-151678175D01*
X151892000Y-168910000D02*
X151204996Y-168222996D01*
X151204996Y-168222996D02*
X151204996Y-164034066D01*
X151284947Y-151845332D02*
X151188500Y-151748885D01*
X151204996Y-164034066D02*
X150543497Y-163372567D01*
X150719493Y-151844858D02*
X150719493Y-151844152D01*
X149898495Y-158079454D02*
X150835446Y-157142503D01*
X154178000Y-170180000D02*
X151384000Y-170180000D01*
X150719493Y-151844152D02*
X150643051Y-151767710D01*
X150738999Y-151864364D02*
X150719493Y-151844858D01*
X149898495Y-162215425D02*
X149898495Y-158079454D01*
X150546605Y-151529842D02*
X150464994Y-151448231D01*
X151384000Y-170180000D02*
X150755495Y-169551495D01*
X150464994Y-151448231D02*
X150464994Y-150684567D01*
X150835446Y-152031521D02*
X150738999Y-151935074D01*
X150643051Y-151697000D02*
X150546605Y-151600554D01*
X150835446Y-157142503D02*
X150835446Y-152031521D01*
X150738999Y-151935074D02*
X150738999Y-151864364D01*
X150464994Y-150684567D02*
X148986357Y-149205930D01*
X150093996Y-163558756D02*
X150093996Y-162410926D01*
X150093996Y-162410926D02*
X149898495Y-162215425D01*
X150755495Y-169551495D02*
X150755495Y-164220255D01*
X150755495Y-164220255D02*
X150093996Y-163558756D01*
X150546605Y-151600554D02*
X150546605Y-151529842D01*
X150643051Y-151767710D02*
X150643051Y-151697000D01*
X150193550Y-151953899D02*
X150193550Y-151883189D01*
X156718000Y-170180000D02*
X155448000Y-171450000D01*
X150289498Y-152050553D02*
X150269992Y-152031047D01*
X149448994Y-157893265D02*
X150385945Y-156956314D01*
X150289498Y-152121263D02*
X150289498Y-152050553D01*
X150269992Y-152031047D02*
X150269992Y-152030341D01*
X150305994Y-170286737D02*
X150305994Y-164406444D01*
X150269992Y-152030341D02*
X150193550Y-151953899D01*
X150097104Y-151716031D02*
X150015493Y-151634420D01*
X150385945Y-156956314D02*
X150385945Y-152217710D01*
X150193550Y-151883189D02*
X150097104Y-151786743D01*
X151469257Y-171450000D02*
X150305994Y-170286737D01*
X150015493Y-151634420D02*
X150015493Y-150942172D01*
X149644495Y-162597115D02*
X149448994Y-162401614D01*
X150015493Y-150942172D02*
X148632804Y-149559483D01*
X150305994Y-164406444D02*
X149644495Y-163744945D01*
X150097104Y-151786743D02*
X150097104Y-151716031D01*
X155448000Y-171450000D02*
X151469257Y-171450000D01*
X149448994Y-162401614D02*
X149448994Y-157893265D01*
X150385945Y-152217710D02*
X150289498Y-152121263D01*
X149644495Y-163744945D02*
X149644495Y-162597115D01*
X154178000Y-172720000D02*
X151130000Y-172720000D01*
X149936444Y-156770125D02*
X149936444Y-152403899D01*
X149839997Y-152236742D02*
X149820491Y-152217236D01*
X149565992Y-151820609D02*
X149565992Y-151199779D01*
X149194994Y-163931134D02*
X149194994Y-162783304D01*
X149856493Y-171446493D02*
X149856493Y-164592633D01*
X151130000Y-172720000D02*
X149856493Y-171446493D01*
X148999493Y-162587803D02*
X148999493Y-157707076D01*
X149820491Y-152217236D02*
X149820491Y-152216530D01*
X149856493Y-164592633D02*
X149194994Y-163931134D01*
X148999493Y-157707076D02*
X149936444Y-156770125D01*
X149194994Y-162783304D02*
X148999493Y-162587803D01*
X149820491Y-152216530D02*
X149744049Y-152140088D01*
X149744049Y-152140088D02*
X149744049Y-152069378D01*
X149744049Y-152069378D02*
X149647603Y-151972932D01*
X149936444Y-152403899D02*
X149839997Y-152307452D01*
X149839997Y-152307452D02*
X149839997Y-152236742D01*
X149565992Y-151199779D02*
X148279250Y-149913037D01*
X149647603Y-151902220D02*
X149565992Y-151820609D01*
X149647603Y-151972932D02*
X149647603Y-151902220D01*
X148844000Y-171450000D02*
X148549992Y-171155992D01*
X149486943Y-156583936D02*
X149486943Y-152590088D01*
X149294548Y-152326277D02*
X149294548Y-152255567D01*
X149294548Y-152255567D02*
X149198102Y-152159121D01*
X149198102Y-152088409D02*
X149116491Y-152006798D01*
X149370990Y-152402719D02*
X149294548Y-152326277D01*
X148844000Y-172212000D02*
X148844000Y-171450000D01*
X149116491Y-152006798D02*
X149116491Y-151457384D01*
X149370990Y-152403425D02*
X149370990Y-152402719D01*
X148549992Y-171155992D02*
X148549992Y-157520887D01*
X149390496Y-152493641D02*
X149390496Y-152422931D01*
X149198102Y-152159121D02*
X149198102Y-152088409D01*
X149486943Y-152590088D02*
X149390496Y-152493641D01*
X150622000Y-173990000D02*
X148844000Y-172212000D01*
X148549992Y-157520887D02*
X149486943Y-156583936D01*
X149116491Y-151457384D02*
X147925697Y-150266590D01*
X156718000Y-172720000D02*
X155448000Y-173990000D01*
X155448000Y-173990000D02*
X150622000Y-173990000D01*
X149390496Y-152422931D02*
X149370990Y-152403425D01*
X149037442Y-152776277D02*
X148940995Y-152679830D01*
X148666990Y-151714990D02*
X147572144Y-150620144D01*
X148100491Y-172612181D02*
X148100491Y-157334698D01*
X148666990Y-152192987D02*
X148666990Y-151714990D01*
X148748601Y-152274598D02*
X148666990Y-152192987D01*
X148921489Y-152589614D02*
X148921489Y-152588908D01*
X148845047Y-152441756D02*
X148748601Y-152345310D01*
X149037442Y-156397747D02*
X149037442Y-152776277D01*
X148748601Y-152345310D02*
X148748601Y-152274598D01*
X150748310Y-175260000D02*
X148100491Y-172612181D01*
X148100491Y-157334698D02*
X149037442Y-156397747D01*
X148940995Y-152609120D02*
X148921489Y-152589614D01*
X148940995Y-152679830D02*
X148940995Y-152609120D01*
X148921489Y-152588908D02*
X148845047Y-152512466D01*
X154178000Y-175260000D02*
X150748310Y-175260000D01*
X148845047Y-152512466D02*
X148845047Y-152441756D01*
X156718000Y-175260000D02*
X155448000Y-176530000D01*
X148491494Y-152795309D02*
X148471988Y-152775803D01*
X148395546Y-152627945D02*
X148299100Y-152531499D01*
X148299100Y-152460787D02*
X148217489Y-152379176D01*
X148587941Y-156211558D02*
X148587941Y-152962466D01*
X148587941Y-152962466D02*
X148491494Y-152866019D01*
X155448000Y-176530000D02*
X151130000Y-176530000D01*
X148491494Y-152866019D02*
X148491494Y-152795309D01*
X148395546Y-152698655D02*
X148395546Y-152627945D01*
X147124499Y-172524499D02*
X147124499Y-157675000D01*
X148217489Y-152379176D02*
X148217489Y-151972596D01*
X148299100Y-152531499D02*
X148299100Y-152460787D01*
X147124499Y-157675000D02*
X148587941Y-156211558D01*
X148471988Y-152775803D02*
X148471988Y-152775097D01*
X148471988Y-152775097D02*
X148395546Y-152698655D01*
X151130000Y-176530000D02*
X147124499Y-172524499D01*
X148217489Y-151972596D02*
X147218590Y-150973697D01*
X150622000Y-179324000D02*
X155194000Y-179324000D01*
X147318487Y-152751554D02*
X147400098Y-152833165D01*
X146511483Y-151680804D02*
X147318487Y-152487808D01*
X147400098Y-152903877D02*
X147496544Y-153000323D01*
X146225497Y-173247257D02*
X147513988Y-174535748D01*
X147496544Y-153000323D02*
X147496544Y-153071033D01*
X147513988Y-174535748D02*
X147513988Y-176215988D01*
X147513988Y-176215988D02*
X150622000Y-179324000D01*
X147496544Y-153071033D02*
X147572986Y-153147475D01*
X147688939Y-153334844D02*
X147688939Y-155839180D01*
X147572986Y-153148181D02*
X147592492Y-153167687D01*
X147592492Y-153238397D02*
X147688939Y-153334844D01*
X147592492Y-153167687D02*
X147592492Y-153238397D01*
X147572986Y-153147475D02*
X147572986Y-153148181D01*
X147318487Y-152487808D02*
X147318487Y-152751554D01*
X147400098Y-152833165D02*
X147400098Y-152903877D01*
X146225497Y-157302622D02*
X146225497Y-173247257D01*
X155194000Y-179324000D02*
X156718000Y-177800000D01*
X147688939Y-155839180D02*
X146225497Y-157302622D01*
X147946045Y-152814134D02*
X147849599Y-152717688D01*
X147946045Y-152884844D02*
X147946045Y-152814134D01*
X148022487Y-152961286D02*
X147946045Y-152884844D01*
X147849599Y-152646976D02*
X147767988Y-152565365D01*
X146674998Y-157488811D02*
X148138440Y-156025369D01*
X151413930Y-177800000D02*
X146674998Y-173061068D01*
X147849599Y-152717688D02*
X147849599Y-152646976D01*
X146674998Y-173061068D02*
X146674998Y-157488811D01*
X148138440Y-153148655D02*
X148041993Y-153052208D01*
X148041993Y-152981498D02*
X148022487Y-152961992D01*
X148022487Y-152961992D02*
X148022487Y-152961286D01*
X148138440Y-156025369D02*
X148138440Y-153148655D01*
X154178000Y-177800000D02*
X151413930Y-177800000D01*
X147767988Y-152565365D02*
X147767988Y-152230201D01*
X147767988Y-152230201D02*
X146865037Y-151327250D01*
X148041993Y-153052208D02*
X148041993Y-152981498D01*
X146673984Y-153520559D02*
X146693490Y-153540065D01*
X146501096Y-153276255D02*
X146597542Y-153372701D01*
X146789937Y-155466802D02*
X145326495Y-156930244D01*
X146501096Y-153205543D02*
X146501096Y-153276255D01*
X145326495Y-173619635D02*
X146614986Y-174908126D01*
X146693490Y-153540065D02*
X146693490Y-153610775D01*
X149410499Y-180765189D02*
X149410499Y-182669499D01*
X146419485Y-153123932D02*
X146501096Y-153205543D01*
X145804377Y-152387911D02*
X146419485Y-153003019D01*
X146614986Y-174908126D02*
X146614986Y-177969676D01*
X146693490Y-153610775D02*
X146789937Y-153707222D01*
X146789937Y-153707222D02*
X146789937Y-155466802D01*
X145326495Y-156930244D02*
X145326495Y-173619635D01*
X146597542Y-153372701D02*
X146597542Y-153443411D01*
X146419485Y-153003019D02*
X146419485Y-153123932D01*
X146597542Y-153443411D02*
X146673984Y-153519853D01*
X146614986Y-177969676D02*
X149410499Y-180765189D01*
X149410499Y-182669499D02*
X150637000Y-183896000D01*
X146673984Y-153519853D02*
X146673984Y-153520559D01*
X147142991Y-153424586D02*
X147142991Y-153353876D01*
X147123485Y-153334370D02*
X147123485Y-153333664D01*
X146868986Y-152937743D02*
X146868986Y-152745413D01*
X147123485Y-153333664D02*
X147047043Y-153257222D01*
X147064487Y-174721937D02*
X145775996Y-173433446D01*
X145775996Y-173433446D02*
X145775996Y-157116433D01*
X146868986Y-152745413D02*
X146157930Y-152034357D01*
X146950597Y-153019354D02*
X146868986Y-152937743D01*
X147064487Y-177783487D02*
X147064487Y-174721937D01*
X146950597Y-153090066D02*
X146950597Y-153019354D01*
X150637000Y-181356000D02*
X147064487Y-177783487D01*
X147047043Y-153257222D02*
X147047043Y-153186512D01*
X147239438Y-153521033D02*
X147142991Y-153424586D01*
X145775996Y-157116433D02*
X147239438Y-155652991D01*
X147142991Y-153353876D02*
X147123485Y-153334370D01*
X147047043Y-153186512D02*
X146950597Y-153090066D01*
X147239438Y-155652991D02*
X147239438Y-153521033D01*
X145698041Y-153745286D02*
X145698041Y-153815996D01*
X145793989Y-153983360D02*
X145890436Y-154079807D01*
X145890436Y-154079807D02*
X145890436Y-155094217D01*
X145774483Y-153892438D02*
X145774483Y-153893144D01*
X145698041Y-153815996D02*
X145774483Y-153892438D01*
X145097270Y-153144515D02*
X145698041Y-153745286D01*
X144409002Y-156575651D02*
X144409002Y-177035072D01*
X145793989Y-153912650D02*
X145793989Y-153983360D01*
X144409002Y-177035072D02*
X146733497Y-179359567D01*
X146733497Y-182532497D02*
X148097000Y-183896000D01*
X145097270Y-153095017D02*
X145097270Y-153144515D01*
X145774483Y-153893144D02*
X145793989Y-153912650D01*
X145890436Y-155094217D02*
X144409002Y-156575651D01*
X146733497Y-179359567D02*
X146733497Y-182532497D01*
X144876994Y-176867374D02*
X144876994Y-156744055D01*
X144876994Y-156744055D02*
X146340436Y-155280613D01*
X146243989Y-153796964D02*
X146243989Y-153726254D01*
X146340436Y-155280613D02*
X146340436Y-153893411D01*
X145969984Y-153310121D02*
X145969984Y-153260625D01*
X146051595Y-153391732D02*
X145969984Y-153310121D01*
X146051595Y-153462444D02*
X146051595Y-153391732D01*
X148097000Y-181356000D02*
X148097000Y-180087380D01*
X146340436Y-153893411D02*
X146243989Y-153796964D01*
X146224483Y-153706748D02*
X146224483Y-153706042D01*
X146243989Y-153726254D02*
X146224483Y-153706748D01*
X146224483Y-153706042D02*
X146148041Y-153629600D01*
X145969984Y-153260625D02*
X145450823Y-152741464D01*
X148097000Y-180087380D02*
X144876994Y-176867374D01*
X146148041Y-153558890D02*
X146051595Y-153462444D01*
X146148041Y-153629600D02*
X146148041Y-153558890D01*
X144894500Y-154306461D02*
X144869752Y-154331209D01*
X144192000Y-180869299D02*
X144192000Y-182531000D01*
X144192000Y-182531000D02*
X145557000Y-183896000D01*
X142417010Y-176480680D02*
X142240000Y-176657690D01*
X144990935Y-154721632D02*
X142417010Y-157295557D01*
X144390163Y-153802124D02*
X144894500Y-154306461D01*
X142417010Y-157295557D02*
X142417010Y-176480680D01*
X142240000Y-176657690D02*
X142240000Y-178917299D01*
X144990935Y-154452392D02*
X144990935Y-154721632D01*
X144869752Y-154331209D02*
X144990935Y-154452392D01*
X142240000Y-178917299D02*
X144192000Y-180869299D01*
X144743716Y-153498067D02*
X144743716Y-153448571D01*
X145440935Y-154908028D02*
X145440935Y-154265996D01*
X145344488Y-154098839D02*
X144743716Y-153498067D01*
X143959501Y-179758501D02*
X143959501Y-156389462D01*
X145557000Y-181356000D02*
X143959501Y-179758501D01*
X143959501Y-156389462D02*
X145440935Y-154908028D01*
X145344488Y-154169549D02*
X145344488Y-154098839D01*
X145440935Y-154265996D02*
X145344488Y-154169549D01*
X140477000Y-181356000D02*
X140477000Y-175645830D01*
X140477000Y-175645830D02*
X141518008Y-174604822D01*
X141518008Y-174604822D02*
X141518008Y-155738295D01*
X141518008Y-155738295D02*
X140642497Y-154862784D01*
X143329503Y-154862784D02*
X141967509Y-156224778D01*
X141967509Y-175082990D02*
X141790499Y-175260000D01*
X141790499Y-182669499D02*
X143017000Y-183896000D01*
X141790499Y-175260000D02*
X141790499Y-182669499D01*
X141967509Y-156224778D02*
X141967509Y-175082990D01*
X139192000Y-154899067D02*
X139192000Y-155568257D01*
X139627041Y-156518731D02*
X140619006Y-157510696D01*
X140619006Y-171677444D02*
X137937000Y-174359450D01*
X140619006Y-157510696D02*
X140619006Y-171677444D01*
X139627041Y-156003298D02*
X139627041Y-156518731D01*
X139935390Y-154155677D02*
X139192000Y-154899067D01*
X139192000Y-155568257D02*
X139627041Y-156003298D01*
X137937000Y-174359450D02*
X137937000Y-181356000D01*
X139151992Y-174956512D02*
X139151992Y-182570992D01*
X140076542Y-155817109D02*
X140076542Y-156332542D01*
X140716000Y-173392504D02*
X139151992Y-174956512D01*
X141068507Y-157324507D02*
X141068507Y-171863633D01*
X141068507Y-171863633D02*
X140716000Y-172216140D01*
X140716000Y-172216140D02*
X140716000Y-173392504D01*
X140076542Y-156332542D02*
X141068507Y-157324507D01*
X139151992Y-182570992D02*
X140477000Y-183896000D01*
X139688172Y-155110003D02*
X139688172Y-155428739D01*
X140288944Y-154509231D02*
X139688172Y-155110003D01*
X139688172Y-155428739D02*
X140076542Y-155817109D01*
X138180000Y-115186000D02*
X138180000Y-114311000D01*
X139180000Y-114311000D02*
X139180000Y-115186000D01*
X138180000Y-114311000D02*
X138445000Y-114046000D01*
X138915000Y-114046000D02*
X139180000Y-114311000D01*
X138445000Y-114046000D02*
X138915000Y-114046000D01*
X138680000Y-115186000D02*
X138680000Y-115828000D01*
X138680000Y-116061000D02*
X138409000Y-116332000D01*
X137680000Y-116061000D02*
X137680000Y-115186000D01*
X138680000Y-115828000D02*
X138680000Y-116061000D01*
X137951000Y-116332000D02*
X137680000Y-116061000D01*
X138409000Y-116332000D02*
X137951000Y-116332000D01*
X132080000Y-147868933D02*
X130261067Y-147868933D01*
X132864323Y-147084610D02*
X132080000Y-147868933D01*
X129286000Y-148844000D02*
X129286000Y-149352000D01*
X130261067Y-147868933D02*
X129286000Y-148844000D01*
X129139928Y-149352000D02*
X129121316Y-149370612D01*
X129286000Y-149352000D02*
X129139928Y-149352000D01*
X128011000Y-134366000D02*
X126487000Y-132842000D01*
X132000000Y-137876427D02*
X132000000Y-135556000D01*
X134985643Y-140862070D02*
X132000000Y-137876427D01*
X132000000Y-135556000D02*
X130810000Y-134366000D01*
X130810000Y-134366000D02*
X128011000Y-134366000D01*
X135692750Y-140154963D02*
X132900000Y-137362213D01*
X129794000Y-131572000D02*
X127757000Y-131572000D01*
X132900000Y-137362213D02*
X132900000Y-134678000D01*
X127757000Y-131572000D02*
X126487000Y-130302000D01*
X132900000Y-134678000D02*
X129794000Y-131572000D01*
X132450000Y-137619321D02*
X132450000Y-134990000D01*
X130302000Y-132842000D02*
X129027000Y-132842000D01*
X132450000Y-134990000D02*
X130302000Y-132842000D01*
X135339196Y-140508517D02*
X132450000Y-137619321D01*
X133799501Y-136847501D02*
X133799501Y-130497501D01*
X136399856Y-139447856D02*
X133799501Y-136847501D01*
X132334000Y-129032000D02*
X127757000Y-129032000D01*
X133799501Y-130497501D02*
X132334000Y-129032000D01*
X127757000Y-129032000D02*
X126487000Y-127762000D01*
X133349501Y-133422420D02*
X130229081Y-130302000D01*
X133349501Y-137104608D02*
X133349501Y-133422420D01*
X130229081Y-130302000D02*
X129027000Y-130302000D01*
X136046303Y-139801410D02*
X133349501Y-137104608D01*
X134932000Y-136565787D02*
X134932000Y-128836000D01*
X134932000Y-128836000D02*
X132588000Y-126492000D01*
X132588000Y-126492000D02*
X127757000Y-126492000D01*
X137106963Y-138740750D02*
X134932000Y-136565787D01*
X127757000Y-126492000D02*
X126487000Y-125222000D01*
X134482499Y-129656499D02*
X132588000Y-127762000D01*
X132588000Y-127762000D02*
X129027000Y-127762000D01*
X134482499Y-136823392D02*
X134482499Y-129656499D01*
X136753410Y-139094303D02*
X134482499Y-136823392D01*
X148172915Y-138797588D02*
X148172915Y-138726172D01*
X148364810Y-138440939D02*
X149406992Y-137398757D01*
X148172915Y-138726172D02*
X148268863Y-138630224D01*
X155353000Y-121522000D02*
X156718000Y-120157000D01*
X147572144Y-139447856D02*
X147572144Y-139398359D01*
X148364810Y-138462859D02*
X148364810Y-138440939D01*
X149406992Y-130688137D02*
X149821505Y-130273624D01*
X149406992Y-137398757D02*
X149406992Y-130688137D01*
X148268863Y-138558806D02*
X148364810Y-138462859D01*
X148268863Y-138630224D02*
X148268863Y-138558806D01*
X149821505Y-125006495D02*
X153306000Y-121522000D01*
X149821505Y-130273624D02*
X149821505Y-125006495D01*
X147572144Y-139398359D02*
X148172915Y-138797588D01*
X153306000Y-121522000D02*
X155353000Y-121522000D01*
X149371505Y-126976579D02*
X149372004Y-126977078D01*
X149372004Y-126230910D02*
X149371505Y-126231409D01*
X149372004Y-130087435D02*
X148957491Y-130501948D01*
X149372004Y-126977078D02*
X149372004Y-130087435D01*
X149372004Y-124566306D02*
X149372004Y-126230910D01*
X148957491Y-137212568D02*
X147915309Y-138254750D01*
X147218590Y-139044807D02*
X147218590Y-139094303D01*
X148957491Y-130501948D02*
X148957491Y-137212568D01*
X147819362Y-138372617D02*
X147819362Y-138444035D01*
X147915309Y-138254750D02*
X147915309Y-138276670D01*
X147915309Y-138276670D02*
X147819362Y-138372617D01*
X149371505Y-126231409D02*
X149371505Y-126976579D01*
X153781310Y-120157000D02*
X149372004Y-124566306D01*
X147819362Y-138444035D02*
X147218590Y-139044807D01*
X154178000Y-120157000D02*
X153781310Y-120157000D01*
X139680000Y-116312000D02*
X139680000Y-115186000D01*
X139954000Y-116586000D02*
X139680000Y-116312000D01*
X136680000Y-116360000D02*
X136680000Y-115186000D01*
X136906000Y-116586000D02*
X136680000Y-116360000D01*
X154315002Y-159882998D02*
X154315002Y-146190716D01*
X152398143Y-144273857D02*
X152389500Y-144273857D01*
X154315002Y-146190716D02*
X152398143Y-144273857D01*
X152398143Y-144273857D02*
X151814784Y-143690497D01*
X154178000Y-160020000D02*
X154315002Y-159882998D01*
M02*
