%TF.GenerationSoftware,KiCad,Pcbnew,6.0.11+dfsg-1~bpo11+1*%
%TF.CreationDate,2023-05-10T08:43:12-04:00*%
%TF.ProjectId,proto-stm32f427,70726f74-6f2d-4737-946d-333266343237,rev?*%
%TF.SameCoordinates,Original*%
%TF.FileFunction,Soldermask,Bot*%
%TF.FilePolarity,Negative*%
%FSLAX46Y46*%
G04 Gerber Fmt 4.6, Leading zero omitted, Abs format (unit mm)*
G04 Created by KiCad (PCBNEW 6.0.11+dfsg-1~bpo11+1) date 2023-05-10 08:43:12*
%MOMM*%
%LPD*%
G01*
G04 APERTURE LIST*
G04 Aperture macros list*
%AMRoundRect*
0 Rectangle with rounded corners*
0 $1 Rounding radius*
0 $2 $3 $4 $5 $6 $7 $8 $9 X,Y pos of 4 corners*
0 Add a 4 corners polygon primitive as box body*
4,1,4,$2,$3,$4,$5,$6,$7,$8,$9,$2,$3,0*
0 Add four circle primitives for the rounded corners*
1,1,$1+$1,$2,$3*
1,1,$1+$1,$4,$5*
1,1,$1+$1,$6,$7*
1,1,$1+$1,$8,$9*
0 Add four rect primitives between the rounded corners*
20,1,$1+$1,$2,$3,$4,$5,0*
20,1,$1+$1,$4,$5,$6,$7,0*
20,1,$1+$1,$6,$7,$8,$9,0*
20,1,$1+$1,$8,$9,$2,$3,0*%
G04 Aperture macros list end*
%ADD10RoundRect,0.301000X-0.475000X0.337500X-0.475000X-0.337500X0.475000X-0.337500X0.475000X0.337500X0*%
%ADD11C,4.102000*%
%ADD12RoundRect,0.051000X-0.850000X-0.850000X0.850000X-0.850000X0.850000X0.850000X-0.850000X0.850000X0*%
%ADD13O,1.802000X1.802000*%
%ADD14RoundRect,0.051000X0.850000X-0.850000X0.850000X0.850000X-0.850000X0.850000X-0.850000X-0.850000X0*%
%ADD15C,1.602000*%
%ADD16C,0.752000*%
%ADD17O,1.102000X2.202000*%
%ADD18O,1.102000X1.902000*%
%ADD19RoundRect,0.301000X-0.450000X0.325000X-0.450000X-0.325000X0.450000X-0.325000X0.450000X0.325000X0*%
%ADD20RoundRect,0.301000X0.450000X-0.325000X0.450000X0.325000X-0.450000X0.325000X-0.450000X-0.325000X0*%
%ADD21RoundRect,0.301000X-0.450000X0.350000X-0.450000X-0.350000X0.450000X-0.350000X0.450000X0.350000X0*%
%ADD22RoundRect,0.051000X-0.600000X1.100000X-0.600000X-1.100000X0.600000X-1.100000X0.600000X1.100000X0*%
%ADD23RoundRect,0.051000X-2.900000X3.200000X-2.900000X-3.200000X2.900000X-3.200000X2.900000X3.200000X0*%
%ADD24RoundRect,0.301000X0.450000X-0.350000X0.450000X0.350000X-0.450000X0.350000X-0.450000X-0.350000X0*%
%ADD25RoundRect,0.301000X0.350000X0.450000X-0.350000X0.450000X-0.350000X-0.450000X0.350000X-0.450000X0*%
%ADD26RoundRect,0.301000X-0.350000X-0.450000X0.350000X-0.450000X0.350000X0.450000X-0.350000X0.450000X0*%
%ADD27RoundRect,0.051000X1.200000X0.370000X-1.200000X0.370000X-1.200000X-0.370000X1.200000X-0.370000X0*%
%ADD28RoundRect,0.201000X-0.150000X0.650000X-0.150000X-0.650000X0.150000X-0.650000X0.150000X0.650000X0*%
G04 APERTURE END LIST*
D10*
X154700000Y-148875000D03*
X154700000Y-146800000D03*
D11*
X156000000Y-183200000D03*
X127400000Y-183200000D03*
X127400000Y-110490000D03*
D12*
X126492000Y-160020000D03*
D13*
X129032000Y-160020000D03*
X126492000Y-162560000D03*
X129032000Y-162560000D03*
X126492000Y-165100000D03*
X129032000Y-165100000D03*
X126492000Y-167640000D03*
X129032000Y-167640000D03*
X126492000Y-170180000D03*
X129032000Y-170180000D03*
X126492000Y-172720000D03*
X129032000Y-172720000D03*
X126492000Y-175260000D03*
X129032000Y-175260000D03*
X126492000Y-177800000D03*
X129032000Y-177800000D03*
D12*
X154178000Y-115077000D03*
D13*
X156718000Y-115077000D03*
X154178000Y-117617000D03*
X156718000Y-117617000D03*
X154178000Y-120157000D03*
X156718000Y-120157000D03*
X154178000Y-122697000D03*
X156718000Y-122697000D03*
X154178000Y-125237000D03*
X156718000Y-125237000D03*
X154178000Y-127777000D03*
X156718000Y-127777000D03*
X154178000Y-130317000D03*
X156718000Y-130317000D03*
X154178000Y-132857000D03*
X156718000Y-132857000D03*
D14*
X141981000Y-121920000D03*
D13*
X144521000Y-121920000D03*
D15*
X136652000Y-159204000D03*
X136652000Y-164084000D03*
D14*
X132857000Y-183896000D03*
D13*
X132857000Y-181356000D03*
X135397000Y-183896000D03*
X135397000Y-181356000D03*
X137937000Y-183896000D03*
X137937000Y-181356000D03*
X140477000Y-183896000D03*
X140477000Y-181356000D03*
X143017000Y-183896000D03*
X143017000Y-181356000D03*
X145557000Y-183896000D03*
X145557000Y-181356000D03*
X148097000Y-183896000D03*
X148097000Y-181356000D03*
X150637000Y-183896000D03*
X150637000Y-181356000D03*
D12*
X126487000Y-115062000D03*
D13*
X129027000Y-115062000D03*
X126487000Y-117602000D03*
X129027000Y-117602000D03*
X126487000Y-120142000D03*
X129027000Y-120142000D03*
X126487000Y-122682000D03*
X129027000Y-122682000D03*
X126487000Y-125222000D03*
X129027000Y-125222000D03*
X126487000Y-127762000D03*
X129027000Y-127762000D03*
X126487000Y-130302000D03*
X129027000Y-130302000D03*
X126487000Y-132842000D03*
X129027000Y-132842000D03*
D16*
X135540000Y-114111000D03*
X141320000Y-114111000D03*
D17*
X142750000Y-114611000D03*
D18*
X142750000Y-110431000D03*
D17*
X134110000Y-114611000D03*
D18*
X134110000Y-110431000D03*
D12*
X154178000Y-160020000D03*
D13*
X156718000Y-160020000D03*
X154178000Y-162560000D03*
X156718000Y-162560000D03*
X154178000Y-165100000D03*
X156718000Y-165100000D03*
X154178000Y-167640000D03*
X156718000Y-167640000D03*
X154178000Y-170180000D03*
X156718000Y-170180000D03*
X154178000Y-172720000D03*
X156718000Y-172720000D03*
X154178000Y-175260000D03*
X156718000Y-175260000D03*
X154178000Y-177800000D03*
X156718000Y-177800000D03*
D11*
X155956000Y-110490000D03*
D14*
X141986000Y-125476000D03*
D13*
X144526000Y-125476000D03*
D14*
X126746000Y-136652000D03*
D13*
X129286000Y-136652000D03*
D19*
X150300000Y-148175000D03*
X150300000Y-150225000D03*
D20*
X140208000Y-161036000D03*
X140208000Y-158986000D03*
X141900000Y-134800000D03*
X141900000Y-132750000D03*
D19*
X139300000Y-152900000D03*
X139300000Y-154950000D03*
D20*
X141400000Y-154925000D03*
X141400000Y-152875000D03*
D19*
X145900000Y-132675000D03*
X145900000Y-134725000D03*
D20*
X140500000Y-145375000D03*
X140500000Y-147425000D03*
X142405000Y-145375000D03*
X142405000Y-147425000D03*
D19*
X143900000Y-132700000D03*
X143900000Y-134750000D03*
D20*
X138400000Y-147425000D03*
X138400000Y-145375000D03*
X134300000Y-145375000D03*
X134300000Y-147425000D03*
X136400000Y-147400000D03*
X136400000Y-145350000D03*
X134700000Y-153025000D03*
X134700000Y-150975000D03*
D21*
X133604000Y-158766000D03*
X133604000Y-160766000D03*
D22*
X145548000Y-110100000D03*
D23*
X147828000Y-116400000D03*
D22*
X150108000Y-110100000D03*
D20*
X152500000Y-150150000D03*
X152500000Y-148100000D03*
D24*
X132334000Y-137636000D03*
X132334000Y-135636000D03*
D21*
X138430000Y-141002000D03*
X138430000Y-143002000D03*
D20*
X140208000Y-166125000D03*
X140208000Y-164075000D03*
D19*
X137100000Y-152900000D03*
X137100000Y-154950000D03*
D25*
X136652000Y-118110000D03*
X134652000Y-118110000D03*
D26*
X139716000Y-118110000D03*
X141716000Y-118110000D03*
D27*
X130900000Y-139954000D03*
X127000000Y-139954000D03*
X130900000Y-141224000D03*
X127000000Y-141224000D03*
X130900000Y-142494000D03*
X127000000Y-142494000D03*
X130900000Y-143764000D03*
X127000000Y-143764000D03*
X130900000Y-145034000D03*
X127000000Y-145034000D03*
X130900000Y-146304000D03*
X127000000Y-146304000D03*
X130900000Y-147574000D03*
X127000000Y-147574000D03*
X130900000Y-148844000D03*
X127000000Y-148844000D03*
X130900000Y-150114000D03*
X127000000Y-150114000D03*
X130900000Y-151384000D03*
X127000000Y-151384000D03*
D21*
X157000000Y-146800000D03*
X157000000Y-148800000D03*
D28*
X153289000Y-144316000D03*
X154559000Y-144316000D03*
X155829000Y-144316000D03*
X157099000Y-144316000D03*
X157099000Y-137116000D03*
X155829000Y-137116000D03*
X154559000Y-137116000D03*
X153289000Y-137116000D03*
M02*
