%TF.GenerationSoftware,KiCad,Pcbnew,6.0.11+dfsg-1~bpo11+1*%
%TF.CreationDate,2023-05-10T08:43:11-04:00*%
%TF.ProjectId,proto-stm32f427,70726f74-6f2d-4737-946d-333266343237,rev?*%
%TF.SameCoordinates,Original*%
%TF.FileFunction,Soldermask,Top*%
%TF.FilePolarity,Negative*%
%FSLAX46Y46*%
G04 Gerber Fmt 4.6, Leading zero omitted, Abs format (unit mm)*
G04 Created by KiCad (PCBNEW 6.0.11+dfsg-1~bpo11+1) date 2023-05-10 08:43:11*
%MOMM*%
%LPD*%
G01*
G04 APERTURE LIST*
G04 Aperture macros list*
%AMRoundRect*
0 Rectangle with rounded corners*
0 $1 Rounding radius*
0 $2 $3 $4 $5 $6 $7 $8 $9 X,Y pos of 4 corners*
0 Add a 4 corners polygon primitive as box body*
4,1,4,$2,$3,$4,$5,$6,$7,$8,$9,$2,$3,0*
0 Add four circle primitives for the rounded corners*
1,1,$1+$1,$2,$3*
1,1,$1+$1,$4,$5*
1,1,$1+$1,$6,$7*
1,1,$1+$1,$8,$9*
0 Add four rect primitives between the rounded corners*
20,1,$1+$1,$2,$3,$4,$5,0*
20,1,$1+$1,$4,$5,$6,$7,0*
20,1,$1+$1,$6,$7,$8,$9,0*
20,1,$1+$1,$8,$9,$2,$3,0*%
G04 Aperture macros list end*
%ADD10C,4.102000*%
%ADD11RoundRect,0.301000X-0.450000X0.325000X-0.450000X-0.325000X0.450000X-0.325000X0.450000X0.325000X0*%
%ADD12RoundRect,0.051000X-0.850000X-0.850000X0.850000X-0.850000X0.850000X0.850000X-0.850000X0.850000X0*%
%ADD13O,1.802000X1.802000*%
%ADD14RoundRect,0.051000X0.850000X-0.850000X0.850000X0.850000X-0.850000X0.850000X-0.850000X-0.850000X0*%
%ADD15C,1.602000*%
%ADD16RoundRect,0.301000X0.450000X-0.325000X0.450000X0.325000X-0.450000X0.325000X-0.450000X-0.325000X0*%
%ADD17RoundRect,0.301000X-0.450000X0.350000X-0.450000X-0.350000X0.450000X-0.350000X0.450000X0.350000X0*%
%ADD18RoundRect,0.051000X-0.431335X-0.629325X0.629325X0.431335X0.431335X0.629325X-0.629325X-0.431335X0*%
%ADD19RoundRect,0.051000X0.629325X-0.431335X-0.431335X0.629325X-0.629325X0.431335X0.431335X-0.629325X0*%
%ADD20RoundRect,0.301000X0.350000X0.450000X-0.350000X0.450000X-0.350000X-0.450000X0.350000X-0.450000X0*%
%ADD21RoundRect,0.051000X0.500000X0.500000X-0.500000X0.500000X-0.500000X-0.500000X0.500000X-0.500000X0*%
%ADD22C,0.752000*%
%ADD23RoundRect,0.051000X0.300000X0.575000X-0.300000X0.575000X-0.300000X-0.575000X0.300000X-0.575000X0*%
%ADD24RoundRect,0.051000X0.150000X0.575000X-0.150000X0.575000X-0.150000X-0.575000X0.150000X-0.575000X0*%
%ADD25O,1.102000X2.202000*%
%ADD26O,1.102000X1.902000*%
G04 APERTURE END LIST*
D10*
X156000000Y-183200000D03*
X127400000Y-183200000D03*
X127400000Y-110490000D03*
D11*
X145034000Y-109719000D03*
X145034000Y-111769000D03*
X151892000Y-109719000D03*
X151892000Y-111769000D03*
D12*
X126492000Y-160020000D03*
D13*
X129032000Y-160020000D03*
X126492000Y-162560000D03*
X129032000Y-162560000D03*
X126492000Y-165100000D03*
X129032000Y-165100000D03*
X126492000Y-167640000D03*
X129032000Y-167640000D03*
X126492000Y-170180000D03*
X129032000Y-170180000D03*
X126492000Y-172720000D03*
X129032000Y-172720000D03*
X126492000Y-175260000D03*
X129032000Y-175260000D03*
X126492000Y-177800000D03*
X129032000Y-177800000D03*
D12*
X154178000Y-115077000D03*
D13*
X156718000Y-115077000D03*
X154178000Y-117617000D03*
X156718000Y-117617000D03*
X154178000Y-120157000D03*
X156718000Y-120157000D03*
X154178000Y-122697000D03*
X156718000Y-122697000D03*
X154178000Y-125237000D03*
X156718000Y-125237000D03*
X154178000Y-127777000D03*
X156718000Y-127777000D03*
X154178000Y-130317000D03*
X156718000Y-130317000D03*
X154178000Y-132857000D03*
X156718000Y-132857000D03*
D14*
X141981000Y-121920000D03*
D13*
X144521000Y-121920000D03*
D15*
X136652000Y-159204000D03*
X136652000Y-164084000D03*
D14*
X132857000Y-183896000D03*
D13*
X132857000Y-181356000D03*
X135397000Y-183896000D03*
X135397000Y-181356000D03*
X137937000Y-183896000D03*
X137937000Y-181356000D03*
X140477000Y-183896000D03*
X140477000Y-181356000D03*
X143017000Y-183896000D03*
X143017000Y-181356000D03*
X145557000Y-183896000D03*
X145557000Y-181356000D03*
X148097000Y-183896000D03*
X148097000Y-181356000D03*
X150637000Y-183896000D03*
X150637000Y-181356000D03*
D12*
X126487000Y-115062000D03*
D13*
X129027000Y-115062000D03*
X126487000Y-117602000D03*
X129027000Y-117602000D03*
X126487000Y-120142000D03*
X129027000Y-120142000D03*
X126487000Y-122682000D03*
X129027000Y-122682000D03*
X126487000Y-125222000D03*
X129027000Y-125222000D03*
X126487000Y-127762000D03*
X129027000Y-127762000D03*
X126487000Y-130302000D03*
X129027000Y-130302000D03*
X126487000Y-132842000D03*
X129027000Y-132842000D03*
D16*
X145700000Y-116425000D03*
X145700000Y-114375000D03*
D17*
X149606000Y-109744000D03*
X149606000Y-111744000D03*
X147320000Y-109744000D03*
X147320000Y-111744000D03*
D18*
X132157216Y-146377503D03*
X132510769Y-146731056D03*
X132864323Y-147084610D03*
X133217876Y-147438163D03*
X133571429Y-147791716D03*
X133924983Y-148145270D03*
X134278536Y-148498823D03*
X134632089Y-148852377D03*
X134985643Y-149205930D03*
X135339196Y-149559483D03*
X135692750Y-149913037D03*
X136046303Y-150266590D03*
X136399856Y-150620144D03*
X136753410Y-150973697D03*
X137106963Y-151327250D03*
X137460517Y-151680804D03*
X137814070Y-152034357D03*
X138167623Y-152387911D03*
X138521177Y-152741464D03*
X138874730Y-153095017D03*
X139228284Y-153448571D03*
X139581837Y-153802124D03*
X139935390Y-154155677D03*
X140288944Y-154509231D03*
X140642497Y-154862784D03*
D19*
X143329503Y-154862784D03*
X143683056Y-154509231D03*
X144036610Y-154155677D03*
X144390163Y-153802124D03*
X144743716Y-153448571D03*
X145097270Y-153095017D03*
X145450823Y-152741464D03*
X145804377Y-152387911D03*
X146157930Y-152034357D03*
X146511483Y-151680804D03*
X146865037Y-151327250D03*
X147218590Y-150973697D03*
X147572144Y-150620144D03*
X147925697Y-150266590D03*
X148279250Y-149913037D03*
X148632804Y-149559483D03*
X148986357Y-149205930D03*
X149339911Y-148852377D03*
X149693464Y-148498823D03*
X150047017Y-148145270D03*
X150400571Y-147791716D03*
X150754124Y-147438163D03*
X151107677Y-147084610D03*
X151461231Y-146731056D03*
X151814784Y-146377503D03*
D18*
X151814784Y-143690497D03*
X151461231Y-143336944D03*
X151107677Y-142983390D03*
X150754124Y-142629837D03*
X150400571Y-142276284D03*
X150047017Y-141922730D03*
X149693464Y-141569177D03*
X149339911Y-141215623D03*
X148986357Y-140862070D03*
X148632804Y-140508517D03*
X148279250Y-140154963D03*
X147925697Y-139801410D03*
X147572144Y-139447856D03*
X147218590Y-139094303D03*
X146865037Y-138740750D03*
X146511483Y-138387196D03*
X146157930Y-138033643D03*
X145804377Y-137680089D03*
X145450823Y-137326536D03*
X145097270Y-136972983D03*
X144743716Y-136619429D03*
X144390163Y-136265876D03*
X144036610Y-135912323D03*
X143683056Y-135558769D03*
X143329503Y-135205216D03*
D19*
X140642497Y-135205216D03*
X140288944Y-135558769D03*
X139935390Y-135912323D03*
X139581837Y-136265876D03*
X139228284Y-136619429D03*
X138874730Y-136972983D03*
X138521177Y-137326536D03*
X138167623Y-137680089D03*
X137814070Y-138033643D03*
X137460517Y-138387196D03*
X137106963Y-138740750D03*
X136753410Y-139094303D03*
X136399856Y-139447856D03*
X136046303Y-139801410D03*
X135692750Y-140154963D03*
X135339196Y-140508517D03*
X134985643Y-140862070D03*
X134632089Y-141215623D03*
X134278536Y-141569177D03*
X133924983Y-141922730D03*
X133571429Y-142276284D03*
X133217876Y-142629837D03*
X132864323Y-142983390D03*
X132510769Y-143336944D03*
X132157216Y-143690497D03*
D20*
X145018000Y-128778000D03*
X143018000Y-128778000D03*
D21*
X143490000Y-117856000D03*
X140990000Y-117856000D03*
D16*
X148400000Y-116425000D03*
X148400000Y-114375000D03*
D22*
X135540000Y-114111000D03*
X141320000Y-114111000D03*
D23*
X141630000Y-115186000D03*
X140830000Y-115186000D03*
D24*
X139680000Y-115186000D03*
X138680000Y-115186000D03*
X138180000Y-115186000D03*
X137180000Y-115186000D03*
D23*
X136030000Y-115186000D03*
X135230000Y-115186000D03*
X135230000Y-115186000D03*
X136030000Y-115186000D03*
D24*
X136680000Y-115186000D03*
X137680000Y-115186000D03*
X139180000Y-115186000D03*
X140180000Y-115186000D03*
D23*
X140830000Y-115186000D03*
X141630000Y-115186000D03*
D25*
X142750000Y-114611000D03*
D26*
X142750000Y-110431000D03*
D25*
X134110000Y-114611000D03*
D26*
X134110000Y-110431000D03*
D12*
X154178000Y-160020000D03*
D13*
X156718000Y-160020000D03*
X154178000Y-162560000D03*
X156718000Y-162560000D03*
X154178000Y-165100000D03*
X156718000Y-165100000D03*
X154178000Y-167640000D03*
X156718000Y-167640000D03*
X154178000Y-170180000D03*
X156718000Y-170180000D03*
X154178000Y-172720000D03*
X156718000Y-172720000D03*
X154178000Y-175260000D03*
X156718000Y-175260000D03*
X154178000Y-177800000D03*
X156718000Y-177800000D03*
D10*
X155956000Y-110490000D03*
D14*
X141986000Y-125476000D03*
D13*
X144526000Y-125476000D03*
D14*
X126746000Y-136652000D03*
D13*
X129286000Y-136652000D03*
D20*
X145000000Y-130600000D03*
X143000000Y-130600000D03*
G36*
X143005275Y-154082547D02*
G01*
X143005918Y-154083660D01*
X143008498Y-154096634D01*
X143019223Y-154112684D01*
X144079603Y-155173064D01*
X144095653Y-155183789D01*
X144108627Y-155186369D01*
X144110131Y-155187688D01*
X144109741Y-155189650D01*
X144108628Y-155190292D01*
X144107725Y-155190472D01*
X144046105Y-155222703D01*
X144010741Y-155287470D01*
X144010564Y-155288356D01*
X144009245Y-155289859D01*
X144007284Y-155289468D01*
X144006641Y-155288355D01*
X144004061Y-155275381D01*
X143993336Y-155259331D01*
X142932956Y-154198951D01*
X142916906Y-154188226D01*
X142903932Y-154185646D01*
X142902428Y-154184327D01*
X142902818Y-154182365D01*
X142903931Y-154181723D01*
X142904834Y-154181543D01*
X142966454Y-154149312D01*
X143001818Y-154084545D01*
X143001995Y-154083659D01*
X143003314Y-154082156D01*
X143005275Y-154082547D01*
G37*
G36*
X140969363Y-154082546D02*
G01*
X140970005Y-154083659D01*
X140970185Y-154084562D01*
X141002416Y-154146182D01*
X141067183Y-154181546D01*
X141068069Y-154181723D01*
X141069572Y-154183042D01*
X141069181Y-154185003D01*
X141068068Y-154185646D01*
X141055094Y-154188226D01*
X141039044Y-154198951D01*
X139978664Y-155259331D01*
X139967939Y-155275381D01*
X139965359Y-155288355D01*
X139964040Y-155289859D01*
X139962078Y-155289469D01*
X139961436Y-155288356D01*
X139961256Y-155287453D01*
X139929025Y-155225833D01*
X139864258Y-155190469D01*
X139863372Y-155190292D01*
X139861869Y-155188973D01*
X139862260Y-155187012D01*
X139863373Y-155186369D01*
X139876347Y-155183789D01*
X139892397Y-155173064D01*
X140952777Y-154112684D01*
X140963502Y-154096634D01*
X140966082Y-154083660D01*
X140967401Y-154082156D01*
X140969363Y-154082546D01*
G37*
G36*
X143358829Y-153728992D02*
G01*
X143359472Y-153730105D01*
X143362052Y-153743080D01*
X143372777Y-153759130D01*
X144433157Y-154819510D01*
X144449207Y-154830235D01*
X144462182Y-154832815D01*
X144463686Y-154834134D01*
X144463296Y-154836096D01*
X144462183Y-154836738D01*
X144461276Y-154836919D01*
X144399659Y-154869151D01*
X144364294Y-154933915D01*
X144364117Y-154934804D01*
X144362798Y-154936307D01*
X144360837Y-154935916D01*
X144360194Y-154934803D01*
X144357614Y-154921828D01*
X144346889Y-154905778D01*
X143286509Y-153845398D01*
X143270459Y-153834673D01*
X143257484Y-153832093D01*
X143255980Y-153830774D01*
X143256370Y-153828812D01*
X143257483Y-153828170D01*
X143258390Y-153827989D01*
X143320007Y-153795757D01*
X143355372Y-153730993D01*
X143355549Y-153730104D01*
X143356868Y-153728601D01*
X143358829Y-153728992D01*
G37*
G36*
X140615809Y-153728991D02*
G01*
X140616451Y-153730104D01*
X140616632Y-153731011D01*
X140648864Y-153792628D01*
X140713628Y-153827993D01*
X140714517Y-153828170D01*
X140716020Y-153829489D01*
X140715629Y-153831450D01*
X140714516Y-153832093D01*
X140701541Y-153834673D01*
X140685491Y-153845398D01*
X139625111Y-154905778D01*
X139614386Y-154921828D01*
X139611806Y-154934803D01*
X139610487Y-154936307D01*
X139608525Y-154935917D01*
X139607883Y-154934804D01*
X139607702Y-154933897D01*
X139575470Y-154872280D01*
X139510706Y-154836915D01*
X139509817Y-154836738D01*
X139508314Y-154835419D01*
X139508705Y-154833458D01*
X139509818Y-154832815D01*
X139522793Y-154830235D01*
X139538843Y-154819510D01*
X140599223Y-153759130D01*
X140609948Y-153743080D01*
X140612528Y-153730105D01*
X140613847Y-153728601D01*
X140615809Y-153728991D01*
G37*
G36*
X140262256Y-153375439D02*
G01*
X140262898Y-153376552D01*
X140263078Y-153377455D01*
X140295309Y-153439075D01*
X140360076Y-153474439D01*
X140360962Y-153474616D01*
X140362465Y-153475935D01*
X140362074Y-153477896D01*
X140360961Y-153478539D01*
X140347987Y-153481119D01*
X140331937Y-153491844D01*
X139271557Y-154552224D01*
X139260832Y-154568274D01*
X139258252Y-154581248D01*
X139256933Y-154582752D01*
X139254971Y-154582362D01*
X139254329Y-154581249D01*
X139254149Y-154580346D01*
X139221918Y-154518726D01*
X139157151Y-154483362D01*
X139156265Y-154483185D01*
X139154762Y-154481866D01*
X139155153Y-154479905D01*
X139156266Y-154479262D01*
X139169240Y-154476682D01*
X139185290Y-154465957D01*
X140245670Y-153405577D01*
X140256395Y-153389527D01*
X140258975Y-153376553D01*
X140260294Y-153375049D01*
X140262256Y-153375439D01*
G37*
G36*
X143712382Y-153375440D02*
G01*
X143713025Y-153376553D01*
X143715605Y-153389527D01*
X143726330Y-153405577D01*
X144786710Y-154465957D01*
X144802760Y-154476682D01*
X144815734Y-154479262D01*
X144817238Y-154480581D01*
X144816848Y-154482543D01*
X144815735Y-154483185D01*
X144814832Y-154483365D01*
X144753212Y-154515596D01*
X144717848Y-154580363D01*
X144717671Y-154581249D01*
X144716352Y-154582752D01*
X144714391Y-154582361D01*
X144713748Y-154581248D01*
X144711168Y-154568274D01*
X144700443Y-154552224D01*
X143640063Y-153491844D01*
X143624013Y-153481119D01*
X143611039Y-153478539D01*
X143609535Y-153477220D01*
X143609925Y-153475258D01*
X143611038Y-153474616D01*
X143611941Y-153474436D01*
X143673561Y-153442205D01*
X143708925Y-153377438D01*
X143709102Y-153376552D01*
X143710421Y-153375049D01*
X143712382Y-153375440D01*
G37*
G36*
X144065935Y-153021887D02*
G01*
X144066578Y-153023000D01*
X144069158Y-153035974D01*
X144079883Y-153052024D01*
X145140263Y-154112404D01*
X145156313Y-154123129D01*
X145169287Y-154125709D01*
X145170791Y-154127028D01*
X145170401Y-154128990D01*
X145169288Y-154129632D01*
X145168385Y-154129812D01*
X145106765Y-154162043D01*
X145071401Y-154226810D01*
X145071224Y-154227696D01*
X145069905Y-154229199D01*
X145067944Y-154228808D01*
X145067301Y-154227695D01*
X145064721Y-154214721D01*
X145053996Y-154198671D01*
X143993616Y-153138291D01*
X143977566Y-153127566D01*
X143964592Y-153124986D01*
X143963088Y-153123667D01*
X143963478Y-153121705D01*
X143964591Y-153121063D01*
X143965494Y-153120883D01*
X144027114Y-153088652D01*
X144062478Y-153023885D01*
X144062655Y-153022999D01*
X144063974Y-153021496D01*
X144065935Y-153021887D01*
G37*
G36*
X139908703Y-153021886D02*
G01*
X139909345Y-153022999D01*
X139909525Y-153023902D01*
X139941756Y-153085522D01*
X140006523Y-153120886D01*
X140007409Y-153121063D01*
X140008912Y-153122382D01*
X140008521Y-153124343D01*
X140007408Y-153124986D01*
X139994434Y-153127566D01*
X139978384Y-153138291D01*
X138918004Y-154198671D01*
X138907279Y-154214721D01*
X138904699Y-154227695D01*
X138903380Y-154229199D01*
X138901418Y-154228809D01*
X138900776Y-154227696D01*
X138900596Y-154226793D01*
X138868365Y-154165173D01*
X138803598Y-154129809D01*
X138802712Y-154129632D01*
X138801209Y-154128313D01*
X138801600Y-154126352D01*
X138802713Y-154125709D01*
X138815687Y-154123129D01*
X138831737Y-154112404D01*
X139892117Y-153052024D01*
X139902842Y-153035974D01*
X139905422Y-153023000D01*
X139906741Y-153021496D01*
X139908703Y-153021886D01*
G37*
G36*
X144419489Y-152668332D02*
G01*
X144420132Y-152669445D01*
X144422712Y-152682420D01*
X144433437Y-152698470D01*
X145493817Y-153758850D01*
X145509867Y-153769575D01*
X145522842Y-153772155D01*
X145524346Y-153773474D01*
X145523956Y-153775436D01*
X145522843Y-153776078D01*
X145521936Y-153776259D01*
X145460319Y-153808491D01*
X145424954Y-153873255D01*
X145424777Y-153874144D01*
X145423458Y-153875647D01*
X145421497Y-153875256D01*
X145420854Y-153874143D01*
X145418274Y-153861168D01*
X145407549Y-153845118D01*
X144347169Y-152784738D01*
X144331119Y-152774013D01*
X144318144Y-152771433D01*
X144316640Y-152770114D01*
X144317030Y-152768152D01*
X144318143Y-152767510D01*
X144319050Y-152767329D01*
X144380667Y-152735097D01*
X144416032Y-152670333D01*
X144416209Y-152669444D01*
X144417528Y-152667941D01*
X144419489Y-152668332D01*
G37*
G36*
X139555149Y-152668331D02*
G01*
X139555791Y-152669444D01*
X139555972Y-152670351D01*
X139588204Y-152731968D01*
X139652968Y-152767333D01*
X139653857Y-152767510D01*
X139655360Y-152768829D01*
X139654969Y-152770790D01*
X139653856Y-152771433D01*
X139640881Y-152774013D01*
X139624831Y-152784738D01*
X138564451Y-153845118D01*
X138553726Y-153861168D01*
X138551146Y-153874143D01*
X138549827Y-153875647D01*
X138547865Y-153875257D01*
X138547223Y-153874144D01*
X138547042Y-153873237D01*
X138514810Y-153811620D01*
X138450046Y-153776255D01*
X138449157Y-153776078D01*
X138447654Y-153774759D01*
X138448045Y-153772798D01*
X138449158Y-153772155D01*
X138462133Y-153769575D01*
X138478183Y-153758850D01*
X139538563Y-152698470D01*
X139549288Y-152682420D01*
X139551868Y-152669445D01*
X139553187Y-152667941D01*
X139555149Y-152668331D01*
G37*
G36*
X139201596Y-152314779D02*
G01*
X139202238Y-152315892D01*
X139202418Y-152316795D01*
X139234649Y-152378415D01*
X139299416Y-152413779D01*
X139300302Y-152413956D01*
X139301805Y-152415275D01*
X139301414Y-152417236D01*
X139300301Y-152417879D01*
X139287327Y-152420459D01*
X139271277Y-152431184D01*
X138210897Y-153491564D01*
X138200172Y-153507614D01*
X138197592Y-153520588D01*
X138196273Y-153522092D01*
X138194311Y-153521702D01*
X138193669Y-153520589D01*
X138193489Y-153519686D01*
X138161258Y-153458066D01*
X138096491Y-153422702D01*
X138095605Y-153422525D01*
X138094102Y-153421206D01*
X138094493Y-153419245D01*
X138095606Y-153418602D01*
X138108580Y-153416022D01*
X138124630Y-153405297D01*
X139185010Y-152344917D01*
X139195735Y-152328867D01*
X139198315Y-152315893D01*
X139199634Y-152314389D01*
X139201596Y-152314779D01*
G37*
G36*
X144773042Y-152314780D02*
G01*
X144773685Y-152315893D01*
X144776265Y-152328867D01*
X144786990Y-152344917D01*
X145847370Y-153405297D01*
X145863420Y-153416022D01*
X145876394Y-153418602D01*
X145877898Y-153419921D01*
X145877508Y-153421883D01*
X145876395Y-153422525D01*
X145875492Y-153422705D01*
X145813872Y-153454936D01*
X145778508Y-153519703D01*
X145778331Y-153520589D01*
X145777012Y-153522092D01*
X145775051Y-153521701D01*
X145774408Y-153520588D01*
X145771828Y-153507614D01*
X145761103Y-153491564D01*
X144700723Y-152431184D01*
X144684673Y-152420459D01*
X144671699Y-152417879D01*
X144670195Y-152416560D01*
X144670585Y-152414598D01*
X144671698Y-152413956D01*
X144672601Y-152413776D01*
X144734221Y-152381545D01*
X144769585Y-152316778D01*
X144769762Y-152315892D01*
X144771081Y-152314389D01*
X144773042Y-152314780D01*
G37*
G36*
X145126596Y-151961227D02*
G01*
X145127239Y-151962340D01*
X145129819Y-151975314D01*
X145140544Y-151991364D01*
X146200924Y-153051744D01*
X146216974Y-153062469D01*
X146229949Y-153065049D01*
X146231453Y-153066368D01*
X146231063Y-153068330D01*
X146229950Y-153068972D01*
X146229043Y-153069153D01*
X146167424Y-153101385D01*
X146132061Y-153166150D01*
X146131884Y-153167036D01*
X146130565Y-153168539D01*
X146128604Y-153168148D01*
X146127961Y-153167035D01*
X146125381Y-153154061D01*
X146114656Y-153138011D01*
X145054276Y-152077631D01*
X145038226Y-152066906D01*
X145025251Y-152064326D01*
X145023747Y-152063007D01*
X145024137Y-152061045D01*
X145025250Y-152060403D01*
X145026157Y-152060222D01*
X145087776Y-152027990D01*
X145123139Y-151963225D01*
X145123316Y-151962339D01*
X145124635Y-151960836D01*
X145126596Y-151961227D01*
G37*
G36*
X138848042Y-151961226D02*
G01*
X138848684Y-151962339D01*
X138848864Y-151963242D01*
X138881095Y-152024860D01*
X138945861Y-152060226D01*
X138946750Y-152060403D01*
X138948253Y-152061722D01*
X138947862Y-152063683D01*
X138946749Y-152064326D01*
X138933774Y-152066906D01*
X138917724Y-152077631D01*
X137857344Y-153138011D01*
X137846619Y-153154061D01*
X137844039Y-153167035D01*
X137842720Y-153168539D01*
X137840758Y-153168149D01*
X137840116Y-153167036D01*
X137839936Y-153166133D01*
X137807705Y-153104515D01*
X137742939Y-153069149D01*
X137742050Y-153068972D01*
X137740547Y-153067653D01*
X137740938Y-153065692D01*
X137742051Y-153065049D01*
X137755026Y-153062469D01*
X137771076Y-153051744D01*
X138831456Y-151991364D01*
X138842181Y-151975314D01*
X138844761Y-151962340D01*
X138846080Y-151960836D01*
X138848042Y-151961226D01*
G37*
G36*
X145480149Y-151607672D02*
G01*
X145480792Y-151608785D01*
X145483372Y-151621760D01*
X145494097Y-151637810D01*
X146554477Y-152698190D01*
X146570527Y-152708915D01*
X146583501Y-152711495D01*
X146585005Y-152712814D01*
X146584615Y-152714776D01*
X146583502Y-152715418D01*
X146582599Y-152715598D01*
X146520981Y-152747829D01*
X146485615Y-152812595D01*
X146485438Y-152813484D01*
X146484119Y-152814987D01*
X146482158Y-152814596D01*
X146481515Y-152813483D01*
X146478935Y-152800508D01*
X146468210Y-152784458D01*
X145407830Y-151724078D01*
X145391780Y-151713353D01*
X145378806Y-151710773D01*
X145377302Y-151709454D01*
X145377692Y-151707492D01*
X145378805Y-151706850D01*
X145379708Y-151706670D01*
X145441326Y-151674439D01*
X145476692Y-151609673D01*
X145476869Y-151608784D01*
X145478188Y-151607281D01*
X145480149Y-151607672D01*
G37*
G36*
X138494489Y-151607671D02*
G01*
X138495131Y-151608784D01*
X138495312Y-151609691D01*
X138527544Y-151671310D01*
X138592309Y-151706673D01*
X138593195Y-151706850D01*
X138594698Y-151708169D01*
X138594307Y-151710130D01*
X138593194Y-151710773D01*
X138580220Y-151713353D01*
X138564170Y-151724078D01*
X137503790Y-152784458D01*
X137493065Y-152800508D01*
X137490485Y-152813483D01*
X137489166Y-152814987D01*
X137487204Y-152814597D01*
X137486562Y-152813484D01*
X137486381Y-152812577D01*
X137454149Y-152750958D01*
X137389384Y-152715595D01*
X137388498Y-152715418D01*
X137386995Y-152714099D01*
X137387386Y-152712138D01*
X137388499Y-152711495D01*
X137401473Y-152708915D01*
X137417523Y-152698190D01*
X138477903Y-151637810D01*
X138488628Y-151621760D01*
X138491208Y-151608785D01*
X138492527Y-151607281D01*
X138494489Y-151607671D01*
G37*
G36*
X138140936Y-151254119D02*
G01*
X138141578Y-151255232D01*
X138141758Y-151256135D01*
X138173989Y-151317755D01*
X138238756Y-151353119D01*
X138239642Y-151353296D01*
X138241145Y-151354615D01*
X138240754Y-151356576D01*
X138239641Y-151357219D01*
X138226667Y-151359799D01*
X138210617Y-151370524D01*
X137150237Y-152430904D01*
X137139512Y-152446954D01*
X137136932Y-152459928D01*
X137135613Y-152461432D01*
X137133651Y-152461042D01*
X137133009Y-152459929D01*
X137132829Y-152459026D01*
X137100598Y-152397406D01*
X137035831Y-152362042D01*
X137034945Y-152361865D01*
X137033442Y-152360546D01*
X137033833Y-152358585D01*
X137034946Y-152357942D01*
X137047920Y-152355362D01*
X137063970Y-152344637D01*
X138124350Y-151284257D01*
X138135075Y-151268207D01*
X138137655Y-151255233D01*
X138138974Y-151253729D01*
X138140936Y-151254119D01*
G37*
G36*
X145833702Y-151254120D02*
G01*
X145834345Y-151255233D01*
X145836925Y-151268207D01*
X145847650Y-151284257D01*
X146908030Y-152344637D01*
X146924080Y-152355362D01*
X146937054Y-152357942D01*
X146938558Y-152359261D01*
X146938168Y-152361223D01*
X146937055Y-152361865D01*
X146936152Y-152362045D01*
X146874532Y-152394276D01*
X146839168Y-152459043D01*
X146838991Y-152459929D01*
X146837672Y-152461432D01*
X146835711Y-152461041D01*
X146835068Y-152459928D01*
X146832488Y-152446954D01*
X146821763Y-152430904D01*
X145761383Y-151370524D01*
X145745333Y-151359799D01*
X145732359Y-151357219D01*
X145730855Y-151355900D01*
X145731245Y-151353938D01*
X145732358Y-151353296D01*
X145733261Y-151353116D01*
X145794881Y-151320885D01*
X145830245Y-151256118D01*
X145830422Y-151255232D01*
X145831741Y-151253729D01*
X145833702Y-151254120D01*
G37*
G36*
X137787382Y-150900564D02*
G01*
X137788024Y-150901677D01*
X137788205Y-150902584D01*
X137820437Y-150964201D01*
X137885201Y-150999566D01*
X137886090Y-150999743D01*
X137887593Y-151001062D01*
X137887202Y-151003023D01*
X137886089Y-151003666D01*
X137873114Y-151006246D01*
X137857064Y-151016971D01*
X136796684Y-152077351D01*
X136785959Y-152093401D01*
X136783379Y-152106376D01*
X136782060Y-152107880D01*
X136780098Y-152107490D01*
X136779456Y-152106377D01*
X136779275Y-152105470D01*
X136747043Y-152043853D01*
X136682279Y-152008488D01*
X136681390Y-152008311D01*
X136679887Y-152006992D01*
X136680278Y-152005031D01*
X136681391Y-152004388D01*
X136694366Y-152001808D01*
X136710416Y-151991083D01*
X137770796Y-150930703D01*
X137781521Y-150914653D01*
X137784101Y-150901678D01*
X137785420Y-150900174D01*
X137787382Y-150900564D01*
G37*
G36*
X146187256Y-150900565D02*
G01*
X146187899Y-150901678D01*
X146190479Y-150914653D01*
X146201204Y-150930703D01*
X147261584Y-151991083D01*
X147277634Y-152001808D01*
X147290609Y-152004388D01*
X147292113Y-152005707D01*
X147291723Y-152007669D01*
X147290610Y-152008311D01*
X147289703Y-152008492D01*
X147228086Y-152040724D01*
X147192721Y-152105488D01*
X147192544Y-152106377D01*
X147191225Y-152107880D01*
X147189264Y-152107489D01*
X147188621Y-152106376D01*
X147186041Y-152093401D01*
X147175316Y-152077351D01*
X146114936Y-151016971D01*
X146098886Y-151006246D01*
X146085911Y-151003666D01*
X146084407Y-151002347D01*
X146084797Y-151000385D01*
X146085910Y-150999743D01*
X146086817Y-150999562D01*
X146148434Y-150967330D01*
X146183799Y-150902566D01*
X146183976Y-150901677D01*
X146185295Y-150900174D01*
X146187256Y-150900565D01*
G37*
G36*
X137433829Y-150547012D02*
G01*
X137434471Y-150548125D01*
X137434651Y-150549028D01*
X137466882Y-150610648D01*
X137531649Y-150646012D01*
X137532535Y-150646189D01*
X137534038Y-150647508D01*
X137533647Y-150649469D01*
X137532534Y-150650112D01*
X137519560Y-150652692D01*
X137503510Y-150663417D01*
X136443130Y-151723797D01*
X136432405Y-151739847D01*
X136429825Y-151752821D01*
X136428506Y-151754325D01*
X136426544Y-151753935D01*
X136425902Y-151752822D01*
X136425722Y-151751919D01*
X136393491Y-151690299D01*
X136328724Y-151654935D01*
X136327838Y-151654758D01*
X136326335Y-151653439D01*
X136326726Y-151651478D01*
X136327839Y-151650835D01*
X136340813Y-151648255D01*
X136356863Y-151637530D01*
X137417243Y-150577150D01*
X137427968Y-150561100D01*
X137430548Y-150548126D01*
X137431867Y-150546622D01*
X137433829Y-150547012D01*
G37*
G36*
X146540809Y-150547013D02*
G01*
X146541452Y-150548126D01*
X146544032Y-150561100D01*
X146554757Y-150577150D01*
X147615137Y-151637530D01*
X147631187Y-151648255D01*
X147644161Y-151650835D01*
X147645665Y-151652154D01*
X147645275Y-151654116D01*
X147644162Y-151654758D01*
X147643259Y-151654938D01*
X147581639Y-151687169D01*
X147546275Y-151751936D01*
X147546098Y-151752822D01*
X147544779Y-151754325D01*
X147542818Y-151753934D01*
X147542175Y-151752821D01*
X147539595Y-151739847D01*
X147528870Y-151723797D01*
X146468490Y-150663417D01*
X146452440Y-150652692D01*
X146439466Y-150650112D01*
X146437962Y-150648793D01*
X146438352Y-150646831D01*
X146439465Y-150646189D01*
X146440368Y-150646009D01*
X146501988Y-150613778D01*
X146537352Y-150549011D01*
X146537529Y-150548125D01*
X146538848Y-150546622D01*
X146540809Y-150547013D01*
G37*
G36*
X137080275Y-150193459D02*
G01*
X137080917Y-150194572D01*
X137081097Y-150195475D01*
X137113328Y-150257093D01*
X137178094Y-150292459D01*
X137178983Y-150292636D01*
X137180486Y-150293955D01*
X137180095Y-150295916D01*
X137178982Y-150296559D01*
X137166007Y-150299139D01*
X137149957Y-150309864D01*
X136089577Y-151370244D01*
X136078852Y-151386294D01*
X136076272Y-151399268D01*
X136074953Y-151400772D01*
X136072991Y-151400382D01*
X136072349Y-151399269D01*
X136072169Y-151398366D01*
X136039938Y-151336748D01*
X135975172Y-151301382D01*
X135974283Y-151301205D01*
X135972780Y-151299886D01*
X135973171Y-151297925D01*
X135974284Y-151297282D01*
X135987259Y-151294702D01*
X136003309Y-151283977D01*
X137063689Y-150223597D01*
X137074414Y-150207547D01*
X137076994Y-150194573D01*
X137078313Y-150193069D01*
X137080275Y-150193459D01*
G37*
G36*
X146894363Y-150193460D02*
G01*
X146895006Y-150194573D01*
X146897586Y-150207547D01*
X146908311Y-150223597D01*
X147968691Y-151283977D01*
X147984741Y-151294702D01*
X147997716Y-151297282D01*
X147999220Y-151298601D01*
X147998830Y-151300563D01*
X147997717Y-151301205D01*
X147996810Y-151301386D01*
X147935191Y-151333618D01*
X147899828Y-151398383D01*
X147899651Y-151399269D01*
X147898332Y-151400772D01*
X147896371Y-151400381D01*
X147895728Y-151399268D01*
X147893148Y-151386294D01*
X147882423Y-151370244D01*
X146822043Y-150309864D01*
X146805993Y-150299139D01*
X146793018Y-150296559D01*
X146791514Y-150295240D01*
X146791904Y-150293278D01*
X146793017Y-150292636D01*
X146793924Y-150292455D01*
X146855543Y-150260223D01*
X146890906Y-150195458D01*
X146891083Y-150194572D01*
X146892402Y-150193069D01*
X146894363Y-150193460D01*
G37*
G36*
X136726722Y-149839904D02*
G01*
X136727364Y-149841017D01*
X136727545Y-149841924D01*
X136759777Y-149903543D01*
X136824542Y-149938906D01*
X136825428Y-149939083D01*
X136826931Y-149940402D01*
X136826540Y-149942363D01*
X136825427Y-149943006D01*
X136812453Y-149945586D01*
X136796403Y-149956311D01*
X135736023Y-151016691D01*
X135725298Y-151032741D01*
X135722718Y-151045716D01*
X135721399Y-151047220D01*
X135719437Y-151046830D01*
X135718795Y-151045717D01*
X135718614Y-151044810D01*
X135686382Y-150983191D01*
X135621617Y-150947828D01*
X135620731Y-150947651D01*
X135619228Y-150946332D01*
X135619619Y-150944371D01*
X135620732Y-150943728D01*
X135633706Y-150941148D01*
X135649756Y-150930423D01*
X136710136Y-149870043D01*
X136720861Y-149853993D01*
X136723441Y-149841018D01*
X136724760Y-149839514D01*
X136726722Y-149839904D01*
G37*
G36*
X147247916Y-149839905D02*
G01*
X147248559Y-149841018D01*
X147251139Y-149853993D01*
X147261864Y-149870043D01*
X148322244Y-150930423D01*
X148338294Y-150941148D01*
X148351268Y-150943728D01*
X148352772Y-150945047D01*
X148352382Y-150947009D01*
X148351269Y-150947651D01*
X148350366Y-150947831D01*
X148288748Y-150980062D01*
X148253382Y-151044828D01*
X148253205Y-151045717D01*
X148251886Y-151047220D01*
X148249925Y-151046829D01*
X148249282Y-151045716D01*
X148246702Y-151032741D01*
X148235977Y-151016691D01*
X147175597Y-149956311D01*
X147159547Y-149945586D01*
X147146573Y-149943006D01*
X147145069Y-149941687D01*
X147145459Y-149939725D01*
X147146572Y-149939083D01*
X147147475Y-149938903D01*
X147209093Y-149906672D01*
X147244459Y-149841906D01*
X147244636Y-149841017D01*
X147245955Y-149839514D01*
X147247916Y-149839905D01*
G37*
G36*
X136373169Y-149486352D02*
G01*
X136373811Y-149487465D01*
X136373991Y-149488368D01*
X136406222Y-149549988D01*
X136470989Y-149585352D01*
X136471875Y-149585529D01*
X136473378Y-149586848D01*
X136472987Y-149588809D01*
X136471874Y-149589452D01*
X136458900Y-149592032D01*
X136442850Y-149602757D01*
X135382470Y-150663137D01*
X135371745Y-150679187D01*
X135369165Y-150692161D01*
X135367846Y-150693665D01*
X135365884Y-150693275D01*
X135365242Y-150692162D01*
X135365062Y-150691259D01*
X135332831Y-150629639D01*
X135268064Y-150594275D01*
X135267178Y-150594098D01*
X135265675Y-150592779D01*
X135266066Y-150590818D01*
X135267179Y-150590175D01*
X135280153Y-150587595D01*
X135296203Y-150576870D01*
X136356583Y-149516490D01*
X136367308Y-149500440D01*
X136369888Y-149487466D01*
X136371207Y-149485962D01*
X136373169Y-149486352D01*
G37*
G36*
X147601469Y-149486353D02*
G01*
X147602112Y-149487466D01*
X147604692Y-149500440D01*
X147615417Y-149516490D01*
X148675797Y-150576870D01*
X148691847Y-150587595D01*
X148704821Y-150590175D01*
X148706325Y-150591494D01*
X148705935Y-150593456D01*
X148704822Y-150594098D01*
X148703919Y-150594278D01*
X148642299Y-150626509D01*
X148606935Y-150691276D01*
X148606758Y-150692162D01*
X148605439Y-150693665D01*
X148603478Y-150693274D01*
X148602835Y-150692161D01*
X148600255Y-150679187D01*
X148589530Y-150663137D01*
X147529150Y-149602757D01*
X147513100Y-149592032D01*
X147500126Y-149589452D01*
X147498622Y-149588133D01*
X147499012Y-149586171D01*
X147500125Y-149585529D01*
X147501028Y-149585349D01*
X147562648Y-149553118D01*
X147598012Y-149488351D01*
X147598189Y-149487465D01*
X147599508Y-149485962D01*
X147601469Y-149486353D01*
G37*
G36*
X136019615Y-149132797D02*
G01*
X136020257Y-149133910D01*
X136020438Y-149134817D01*
X136052670Y-149196434D01*
X136117434Y-149231799D01*
X136118323Y-149231976D01*
X136119826Y-149233295D01*
X136119435Y-149235256D01*
X136118322Y-149235899D01*
X136105347Y-149238479D01*
X136089297Y-149249204D01*
X135028917Y-150309584D01*
X135018192Y-150325634D01*
X135015612Y-150338609D01*
X135014293Y-150340113D01*
X135012331Y-150339723D01*
X135011689Y-150338610D01*
X135011508Y-150337703D01*
X134979276Y-150276086D01*
X134914512Y-150240721D01*
X134913623Y-150240544D01*
X134912120Y-150239225D01*
X134912511Y-150237264D01*
X134913624Y-150236621D01*
X134926599Y-150234041D01*
X134942649Y-150223316D01*
X136003029Y-149162936D01*
X136013754Y-149146886D01*
X136016334Y-149133911D01*
X136017653Y-149132407D01*
X136019615Y-149132797D01*
G37*
G36*
X147955023Y-149132798D02*
G01*
X147955666Y-149133911D01*
X147958246Y-149146886D01*
X147968971Y-149162936D01*
X149029351Y-150223316D01*
X149045401Y-150234041D01*
X149058376Y-150236621D01*
X149059880Y-150237940D01*
X149059490Y-150239902D01*
X149058377Y-150240544D01*
X149057470Y-150240725D01*
X148995853Y-150272957D01*
X148960488Y-150337721D01*
X148960311Y-150338610D01*
X148958992Y-150340113D01*
X148957031Y-150339722D01*
X148956388Y-150338609D01*
X148953808Y-150325634D01*
X148943083Y-150309584D01*
X147882703Y-149249204D01*
X147866653Y-149238479D01*
X147853678Y-149235899D01*
X147852174Y-149234580D01*
X147852564Y-149232618D01*
X147853677Y-149231976D01*
X147854584Y-149231795D01*
X147916201Y-149199563D01*
X147951566Y-149134799D01*
X147951743Y-149133910D01*
X147953062Y-149132407D01*
X147955023Y-149132798D01*
G37*
G36*
X148308576Y-148779246D02*
G01*
X148309219Y-148780359D01*
X148311799Y-148793333D01*
X148322524Y-148809383D01*
X149382904Y-149869763D01*
X149398954Y-149880488D01*
X149411928Y-149883068D01*
X149413432Y-149884387D01*
X149413042Y-149886349D01*
X149411929Y-149886991D01*
X149411026Y-149887171D01*
X149349406Y-149919402D01*
X149314042Y-149984169D01*
X149313865Y-149985055D01*
X149312546Y-149986558D01*
X149310585Y-149986167D01*
X149309942Y-149985054D01*
X149307362Y-149972080D01*
X149296637Y-149956030D01*
X148236257Y-148895650D01*
X148220207Y-148884925D01*
X148207233Y-148882345D01*
X148205729Y-148881026D01*
X148206119Y-148879064D01*
X148207232Y-148878422D01*
X148208135Y-148878242D01*
X148269755Y-148846011D01*
X148305119Y-148781244D01*
X148305296Y-148780358D01*
X148306615Y-148778855D01*
X148308576Y-148779246D01*
G37*
G36*
X135666062Y-148779245D02*
G01*
X135666704Y-148780358D01*
X135666884Y-148781261D01*
X135699115Y-148842881D01*
X135763882Y-148878245D01*
X135764768Y-148878422D01*
X135766271Y-148879741D01*
X135765880Y-148881702D01*
X135764767Y-148882345D01*
X135751793Y-148884925D01*
X135735743Y-148895650D01*
X134675363Y-149956030D01*
X134664638Y-149972080D01*
X134662058Y-149985054D01*
X134660739Y-149986558D01*
X134658777Y-149986168D01*
X134658135Y-149985055D01*
X134657955Y-149984152D01*
X134625724Y-149922532D01*
X134560957Y-149887168D01*
X134560071Y-149886991D01*
X134558568Y-149885672D01*
X134558959Y-149883711D01*
X134560072Y-149883068D01*
X134573046Y-149880488D01*
X134589096Y-149869763D01*
X135649476Y-148809383D01*
X135660201Y-148793333D01*
X135662781Y-148780359D01*
X135664100Y-148778855D01*
X135666062Y-148779245D01*
G37*
G36*
X135312508Y-148425692D02*
G01*
X135313150Y-148426805D01*
X135313330Y-148427708D01*
X135345561Y-148489326D01*
X135410327Y-148524692D01*
X135411216Y-148524869D01*
X135412719Y-148526188D01*
X135412328Y-148528149D01*
X135411215Y-148528792D01*
X135398240Y-148531372D01*
X135382190Y-148542097D01*
X134321810Y-149602477D01*
X134311085Y-149618527D01*
X134308505Y-149631501D01*
X134307186Y-149633005D01*
X134305224Y-149632615D01*
X134304582Y-149631502D01*
X134304402Y-149630599D01*
X134272171Y-149568981D01*
X134207405Y-149533615D01*
X134206516Y-149533438D01*
X134205013Y-149532119D01*
X134205404Y-149530158D01*
X134206517Y-149529515D01*
X134219492Y-149526935D01*
X134235542Y-149516210D01*
X135295922Y-148455830D01*
X135306647Y-148439780D01*
X135309227Y-148426806D01*
X135310546Y-148425302D01*
X135312508Y-148425692D01*
G37*
G36*
X148662130Y-148425693D02*
G01*
X148662773Y-148426806D01*
X148665353Y-148439780D01*
X148676078Y-148455830D01*
X149736458Y-149516210D01*
X149752508Y-149526935D01*
X149765483Y-149529515D01*
X149766987Y-149530834D01*
X149766597Y-149532796D01*
X149765484Y-149533438D01*
X149764577Y-149533619D01*
X149702958Y-149565851D01*
X149667595Y-149630616D01*
X149667418Y-149631502D01*
X149666099Y-149633005D01*
X149664138Y-149632614D01*
X149663495Y-149631501D01*
X149660915Y-149618527D01*
X149650190Y-149602477D01*
X148589810Y-148542097D01*
X148573760Y-148531372D01*
X148560785Y-148528792D01*
X148559281Y-148527473D01*
X148559671Y-148525511D01*
X148560784Y-148524869D01*
X148561691Y-148524688D01*
X148623310Y-148492456D01*
X148658673Y-148427691D01*
X148658850Y-148426805D01*
X148660169Y-148425302D01*
X148662130Y-148425693D01*
G37*
G36*
X134958955Y-148072137D02*
G01*
X134959597Y-148073250D01*
X134959778Y-148074157D01*
X134992010Y-148135776D01*
X135056775Y-148171139D01*
X135057661Y-148171316D01*
X135059164Y-148172635D01*
X135058773Y-148174596D01*
X135057660Y-148175239D01*
X135044686Y-148177819D01*
X135028636Y-148188544D01*
X133968256Y-149248924D01*
X133957531Y-149264974D01*
X133954951Y-149277949D01*
X133953632Y-149279453D01*
X133951670Y-149279063D01*
X133951028Y-149277950D01*
X133950847Y-149277043D01*
X133918615Y-149215424D01*
X133853850Y-149180061D01*
X133852964Y-149179884D01*
X133851461Y-149178565D01*
X133851852Y-149176604D01*
X133852965Y-149175961D01*
X133865939Y-149173381D01*
X133881989Y-149162656D01*
X134942369Y-148102276D01*
X134953094Y-148086226D01*
X134955674Y-148073251D01*
X134956993Y-148071747D01*
X134958955Y-148072137D01*
G37*
G36*
X149015683Y-148072138D02*
G01*
X149016326Y-148073251D01*
X149018906Y-148086226D01*
X149029631Y-148102276D01*
X150090011Y-149162656D01*
X150106061Y-149173381D01*
X150119035Y-149175961D01*
X150120539Y-149177280D01*
X150120149Y-149179242D01*
X150119036Y-149179884D01*
X150118133Y-149180064D01*
X150056515Y-149212295D01*
X150021149Y-149277061D01*
X150020972Y-149277950D01*
X150019653Y-149279453D01*
X150017692Y-149279062D01*
X150017049Y-149277949D01*
X150014469Y-149264974D01*
X150003744Y-149248924D01*
X148943364Y-148188544D01*
X148927314Y-148177819D01*
X148914340Y-148175239D01*
X148912836Y-148173920D01*
X148913226Y-148171958D01*
X148914339Y-148171316D01*
X148915242Y-148171136D01*
X148976860Y-148138905D01*
X149012226Y-148074139D01*
X149012403Y-148073250D01*
X149013722Y-148071747D01*
X149015683Y-148072138D01*
G37*
G36*
X134605402Y-147718585D02*
G01*
X134606044Y-147719698D01*
X134606224Y-147720601D01*
X134638455Y-147782221D01*
X134703222Y-147817585D01*
X134704108Y-147817762D01*
X134705611Y-147819081D01*
X134705220Y-147821042D01*
X134704107Y-147821685D01*
X134691133Y-147824265D01*
X134675083Y-147834990D01*
X133614703Y-148895370D01*
X133603978Y-148911420D01*
X133601398Y-148924394D01*
X133600079Y-148925898D01*
X133598117Y-148925508D01*
X133597475Y-148924395D01*
X133597295Y-148923492D01*
X133565064Y-148861872D01*
X133500297Y-148826508D01*
X133499411Y-148826331D01*
X133497908Y-148825012D01*
X133498299Y-148823051D01*
X133499412Y-148822408D01*
X133512386Y-148819828D01*
X133528436Y-148809103D01*
X134588816Y-147748723D01*
X134599541Y-147732673D01*
X134602121Y-147719699D01*
X134603440Y-147718195D01*
X134605402Y-147718585D01*
G37*
G36*
X149369236Y-147718586D02*
G01*
X149369879Y-147719699D01*
X149372459Y-147732673D01*
X149383184Y-147748723D01*
X150443564Y-148809103D01*
X150459614Y-148819828D01*
X150472588Y-148822408D01*
X150474092Y-148823727D01*
X150473702Y-148825689D01*
X150472589Y-148826331D01*
X150471686Y-148826511D01*
X150410066Y-148858742D01*
X150374702Y-148923509D01*
X150374525Y-148924395D01*
X150373206Y-148925898D01*
X150371245Y-148925507D01*
X150370602Y-148924394D01*
X150368022Y-148911420D01*
X150357297Y-148895370D01*
X149296917Y-147834990D01*
X149280867Y-147824265D01*
X149267893Y-147821685D01*
X149266389Y-147820366D01*
X149266779Y-147818404D01*
X149267892Y-147817762D01*
X149268795Y-147817582D01*
X149330415Y-147785351D01*
X149365779Y-147720584D01*
X149365956Y-147719698D01*
X149367275Y-147718195D01*
X149369236Y-147718586D01*
G37*
G36*
X134251848Y-147365030D02*
G01*
X134252490Y-147366143D01*
X134252671Y-147367050D01*
X134284903Y-147428667D01*
X134349667Y-147464032D01*
X134350556Y-147464209D01*
X134352059Y-147465528D01*
X134351668Y-147467489D01*
X134350555Y-147468132D01*
X134337580Y-147470712D01*
X134321530Y-147481437D01*
X133261150Y-148541817D01*
X133250425Y-148557867D01*
X133247845Y-148570842D01*
X133246526Y-148572346D01*
X133244564Y-148571956D01*
X133243922Y-148570843D01*
X133243741Y-148569936D01*
X133211509Y-148508319D01*
X133146745Y-148472954D01*
X133145856Y-148472777D01*
X133144353Y-148471458D01*
X133144744Y-148469497D01*
X133145857Y-148468854D01*
X133158832Y-148466274D01*
X133174882Y-148455549D01*
X134235262Y-147395169D01*
X134245987Y-147379119D01*
X134248567Y-147366144D01*
X134249886Y-147364640D01*
X134251848Y-147365030D01*
G37*
G36*
X149722790Y-147365031D02*
G01*
X149723433Y-147366144D01*
X149726013Y-147379119D01*
X149736738Y-147395169D01*
X150797118Y-148455549D01*
X150813168Y-148466274D01*
X150826143Y-148468854D01*
X150827647Y-148470173D01*
X150827257Y-148472135D01*
X150826144Y-148472777D01*
X150825237Y-148472958D01*
X150763620Y-148505190D01*
X150728255Y-148569954D01*
X150728078Y-148570843D01*
X150726759Y-148572346D01*
X150724798Y-148571955D01*
X150724155Y-148570842D01*
X150721575Y-148557867D01*
X150710850Y-148541817D01*
X149650470Y-147481437D01*
X149634420Y-147470712D01*
X149621445Y-147468132D01*
X149619941Y-147466813D01*
X149620331Y-147464851D01*
X149621444Y-147464209D01*
X149622351Y-147464028D01*
X149683968Y-147431796D01*
X149719333Y-147367032D01*
X149719510Y-147366143D01*
X149720829Y-147364640D01*
X149722790Y-147365031D01*
G37*
G36*
X133898295Y-147011478D02*
G01*
X133898937Y-147012591D01*
X133899117Y-147013494D01*
X133931348Y-147075114D01*
X133996115Y-147110478D01*
X133997001Y-147110655D01*
X133998504Y-147111974D01*
X133998113Y-147113935D01*
X133997000Y-147114578D01*
X133984026Y-147117158D01*
X133967976Y-147127883D01*
X132907596Y-148188263D01*
X132896871Y-148204313D01*
X132894291Y-148217287D01*
X132892972Y-148218791D01*
X132891010Y-148218401D01*
X132890368Y-148217288D01*
X132890188Y-148216385D01*
X132857957Y-148154765D01*
X132793190Y-148119401D01*
X132792304Y-148119224D01*
X132790801Y-148117905D01*
X132791192Y-148115944D01*
X132792305Y-148115301D01*
X132805279Y-148112721D01*
X132821329Y-148101996D01*
X133881709Y-147041616D01*
X133892434Y-147025566D01*
X133895014Y-147012592D01*
X133896333Y-147011088D01*
X133898295Y-147011478D01*
G37*
G36*
X150076343Y-147011479D02*
G01*
X150076986Y-147012592D01*
X150079566Y-147025566D01*
X150090291Y-147041616D01*
X151150671Y-148101996D01*
X151166721Y-148112721D01*
X151179695Y-148115301D01*
X151181199Y-148116620D01*
X151180809Y-148118582D01*
X151179696Y-148119224D01*
X151178793Y-148119404D01*
X151117173Y-148151635D01*
X151081809Y-148216402D01*
X151081632Y-148217288D01*
X151080313Y-148218791D01*
X151078352Y-148218400D01*
X151077709Y-148217287D01*
X151075129Y-148204313D01*
X151064404Y-148188263D01*
X150004024Y-147127883D01*
X149987974Y-147117158D01*
X149975000Y-147114578D01*
X149973496Y-147113259D01*
X149973886Y-147111297D01*
X149974999Y-147110655D01*
X149975902Y-147110475D01*
X150037522Y-147078244D01*
X150072886Y-147013477D01*
X150073063Y-147012591D01*
X150074382Y-147011088D01*
X150076343Y-147011479D01*
G37*
G36*
X150429896Y-146657926D02*
G01*
X150430539Y-146659039D01*
X150433119Y-146672013D01*
X150443844Y-146688063D01*
X151504224Y-147748443D01*
X151520274Y-147759168D01*
X151533248Y-147761748D01*
X151534752Y-147763067D01*
X151534362Y-147765029D01*
X151533249Y-147765671D01*
X151532346Y-147765851D01*
X151470726Y-147798082D01*
X151435362Y-147862849D01*
X151435185Y-147863735D01*
X151433866Y-147865238D01*
X151431905Y-147864847D01*
X151431262Y-147863734D01*
X151428682Y-147850760D01*
X151417957Y-147834710D01*
X150357577Y-146774330D01*
X150341527Y-146763605D01*
X150328553Y-146761025D01*
X150327049Y-146759706D01*
X150327439Y-146757744D01*
X150328552Y-146757102D01*
X150329455Y-146756922D01*
X150391075Y-146724691D01*
X150426439Y-146659924D01*
X150426616Y-146659038D01*
X150427935Y-146657535D01*
X150429896Y-146657926D01*
G37*
G36*
X133544742Y-146657925D02*
G01*
X133545384Y-146659038D01*
X133545564Y-146659941D01*
X133577795Y-146721561D01*
X133642562Y-146756925D01*
X133643448Y-146757102D01*
X133644951Y-146758421D01*
X133644560Y-146760382D01*
X133643447Y-146761025D01*
X133630473Y-146763605D01*
X133614423Y-146774330D01*
X132554043Y-147834710D01*
X132543318Y-147850760D01*
X132540738Y-147863734D01*
X132539419Y-147865238D01*
X132537457Y-147864848D01*
X132536815Y-147863735D01*
X132536635Y-147862832D01*
X132504404Y-147801212D01*
X132439637Y-147765848D01*
X132438751Y-147765671D01*
X132437248Y-147764352D01*
X132437639Y-147762391D01*
X132438752Y-147761748D01*
X132451726Y-147759168D01*
X132467776Y-147748443D01*
X133528156Y-146688063D01*
X133538881Y-146672013D01*
X133541461Y-146659039D01*
X133542780Y-146657535D01*
X133544742Y-146657925D01*
G37*
G36*
X133191188Y-146304370D02*
G01*
X133191830Y-146305483D01*
X133192011Y-146306390D01*
X133224243Y-146368007D01*
X133289007Y-146403372D01*
X133289896Y-146403549D01*
X133291399Y-146404868D01*
X133291008Y-146406829D01*
X133289895Y-146407472D01*
X133276920Y-146410052D01*
X133260870Y-146420777D01*
X132200490Y-147481157D01*
X132189765Y-147497207D01*
X132187185Y-147510182D01*
X132185866Y-147511686D01*
X132183904Y-147511296D01*
X132183262Y-147510183D01*
X132183081Y-147509276D01*
X132150849Y-147447659D01*
X132086085Y-147412294D01*
X132085196Y-147412117D01*
X132083693Y-147410798D01*
X132084084Y-147408837D01*
X132085197Y-147408194D01*
X132098172Y-147405614D01*
X132114222Y-147394889D01*
X133174602Y-146334509D01*
X133185327Y-146318459D01*
X133187907Y-146305484D01*
X133189226Y-146303980D01*
X133191188Y-146304370D01*
G37*
G36*
X150783450Y-146304371D02*
G01*
X150784093Y-146305484D01*
X150786673Y-146318459D01*
X150797398Y-146334509D01*
X151857778Y-147394889D01*
X151873828Y-147405614D01*
X151886803Y-147408194D01*
X151888307Y-147409513D01*
X151887917Y-147411475D01*
X151886804Y-147412117D01*
X151885897Y-147412298D01*
X151824280Y-147444530D01*
X151788915Y-147509294D01*
X151788738Y-147510183D01*
X151787419Y-147511686D01*
X151785458Y-147511295D01*
X151784815Y-147510182D01*
X151782235Y-147497207D01*
X151771510Y-147481157D01*
X150711130Y-146420777D01*
X150695080Y-146410052D01*
X150682105Y-146407472D01*
X150680601Y-146406153D01*
X150680991Y-146404191D01*
X150682104Y-146403549D01*
X150683011Y-146403368D01*
X150744628Y-146371136D01*
X150779993Y-146306372D01*
X150780170Y-146305483D01*
X150781489Y-146303980D01*
X150783450Y-146304371D01*
G37*
G36*
X151137003Y-145950819D02*
G01*
X151137646Y-145951932D01*
X151140226Y-145964906D01*
X151150951Y-145980956D01*
X152211331Y-147041336D01*
X152227381Y-147052061D01*
X152240355Y-147054641D01*
X152241859Y-147055960D01*
X152241469Y-147057922D01*
X152240356Y-147058564D01*
X152239453Y-147058744D01*
X152177833Y-147090975D01*
X152142469Y-147155742D01*
X152142292Y-147156628D01*
X152140973Y-147158131D01*
X152139012Y-147157740D01*
X152138369Y-147156627D01*
X152135789Y-147143653D01*
X152125064Y-147127603D01*
X151064684Y-146067223D01*
X151048634Y-146056498D01*
X151035660Y-146053918D01*
X151034156Y-146052599D01*
X151034546Y-146050637D01*
X151035659Y-146049995D01*
X151036562Y-146049815D01*
X151098182Y-146017584D01*
X151133546Y-145952817D01*
X151133723Y-145951931D01*
X151135042Y-145950428D01*
X151137003Y-145950819D01*
G37*
G36*
X132837635Y-145950818D02*
G01*
X132838277Y-145951931D01*
X132838457Y-145952834D01*
X132870688Y-146014454D01*
X132935455Y-146049818D01*
X132936341Y-146049995D01*
X132937844Y-146051314D01*
X132937453Y-146053275D01*
X132936340Y-146053918D01*
X132923366Y-146056498D01*
X132907316Y-146067223D01*
X131846936Y-147127603D01*
X131836211Y-147143653D01*
X131833631Y-147156627D01*
X131832312Y-147158131D01*
X131830350Y-147157741D01*
X131829708Y-147156628D01*
X131829528Y-147155725D01*
X131797297Y-147094105D01*
X131732530Y-147058741D01*
X131731644Y-147058564D01*
X131730141Y-147057245D01*
X131730532Y-147055284D01*
X131731645Y-147054641D01*
X131744619Y-147052061D01*
X131760669Y-147041336D01*
X132821049Y-145980956D01*
X132831774Y-145964906D01*
X132834354Y-145951932D01*
X132835673Y-145950428D01*
X132837635Y-145950818D01*
G37*
G36*
X152141650Y-142910259D02*
G01*
X152142292Y-142911372D01*
X152142472Y-142912275D01*
X152174703Y-142973895D01*
X152239470Y-143009259D01*
X152240356Y-143009436D01*
X152241859Y-143010755D01*
X152241468Y-143012716D01*
X152240355Y-143013359D01*
X152227381Y-143015939D01*
X152211331Y-143026664D01*
X151150951Y-144087044D01*
X151140226Y-144103094D01*
X151137646Y-144116068D01*
X151136327Y-144117572D01*
X151134365Y-144117182D01*
X151133723Y-144116069D01*
X151133543Y-144115166D01*
X151101312Y-144053546D01*
X151036545Y-144018182D01*
X151035659Y-144018005D01*
X151034156Y-144016686D01*
X151034547Y-144014725D01*
X151035660Y-144014082D01*
X151048634Y-144011502D01*
X151064684Y-144000777D01*
X152125064Y-142940397D01*
X152135789Y-142924347D01*
X152138369Y-142911373D01*
X152139688Y-142909869D01*
X152141650Y-142910259D01*
G37*
G36*
X131832988Y-142910260D02*
G01*
X131833631Y-142911373D01*
X131836211Y-142924347D01*
X131846936Y-142940397D01*
X132907316Y-144000777D01*
X132923366Y-144011502D01*
X132936340Y-144014082D01*
X132937844Y-144015401D01*
X132937454Y-144017363D01*
X132936341Y-144018005D01*
X132935438Y-144018185D01*
X132873818Y-144050416D01*
X132838454Y-144115183D01*
X132838277Y-144116069D01*
X132836958Y-144117572D01*
X132834997Y-144117181D01*
X132834354Y-144116068D01*
X132831774Y-144103094D01*
X132821049Y-144087044D01*
X131760669Y-143026664D01*
X131744619Y-143015939D01*
X131731645Y-143013359D01*
X131730141Y-143012040D01*
X131730531Y-143010078D01*
X131731644Y-143009436D01*
X131732547Y-143009256D01*
X131794167Y-142977025D01*
X131829531Y-142912258D01*
X131829708Y-142911372D01*
X131831027Y-142909869D01*
X131832988Y-142910260D01*
G37*
G36*
X132186542Y-142556705D02*
G01*
X132187185Y-142557818D01*
X132189765Y-142570793D01*
X132200490Y-142586843D01*
X133260870Y-143647223D01*
X133276920Y-143657948D01*
X133289895Y-143660528D01*
X133291399Y-143661847D01*
X133291009Y-143663809D01*
X133289896Y-143664451D01*
X133288989Y-143664632D01*
X133227372Y-143696864D01*
X133192007Y-143761628D01*
X133191830Y-143762517D01*
X133190511Y-143764020D01*
X133188550Y-143763629D01*
X133187907Y-143762516D01*
X133185327Y-143749541D01*
X133174602Y-143733491D01*
X132114222Y-142673111D01*
X132098172Y-142662386D01*
X132085197Y-142659806D01*
X132083693Y-142658487D01*
X132084083Y-142656525D01*
X132085196Y-142655883D01*
X132086103Y-142655702D01*
X132147720Y-142623470D01*
X132183085Y-142558706D01*
X132183262Y-142557817D01*
X132184581Y-142556314D01*
X132186542Y-142556705D01*
G37*
G36*
X151788096Y-142556704D02*
G01*
X151788738Y-142557817D01*
X151788919Y-142558724D01*
X151821151Y-142620341D01*
X151885915Y-142655706D01*
X151886804Y-142655883D01*
X151888307Y-142657202D01*
X151887916Y-142659163D01*
X151886803Y-142659806D01*
X151873828Y-142662386D01*
X151857778Y-142673111D01*
X150797398Y-143733491D01*
X150786673Y-143749541D01*
X150784093Y-143762516D01*
X150782774Y-143764020D01*
X150780812Y-143763630D01*
X150780170Y-143762517D01*
X150779989Y-143761610D01*
X150747757Y-143699993D01*
X150682993Y-143664628D01*
X150682104Y-143664451D01*
X150680601Y-143663132D01*
X150680992Y-143661171D01*
X150682105Y-143660528D01*
X150695080Y-143657948D01*
X150711130Y-143647223D01*
X151771510Y-142586843D01*
X151782235Y-142570793D01*
X151784815Y-142557818D01*
X151786134Y-142556314D01*
X151788096Y-142556704D01*
G37*
G36*
X132540095Y-142203153D02*
G01*
X132540738Y-142204266D01*
X132543318Y-142217240D01*
X132554043Y-142233290D01*
X133614423Y-143293670D01*
X133630473Y-143304395D01*
X133643447Y-143306975D01*
X133644951Y-143308294D01*
X133644561Y-143310256D01*
X133643448Y-143310898D01*
X133642545Y-143311078D01*
X133580925Y-143343309D01*
X133545561Y-143408076D01*
X133545384Y-143408962D01*
X133544065Y-143410465D01*
X133542104Y-143410074D01*
X133541461Y-143408961D01*
X133538881Y-143395987D01*
X133528156Y-143379937D01*
X132467776Y-142319557D01*
X132451726Y-142308832D01*
X132438752Y-142306252D01*
X132437248Y-142304933D01*
X132437638Y-142302971D01*
X132438751Y-142302329D01*
X132439654Y-142302149D01*
X132501274Y-142269918D01*
X132536638Y-142205151D01*
X132536815Y-142204265D01*
X132538134Y-142202762D01*
X132540095Y-142203153D01*
G37*
G36*
X151434543Y-142203152D02*
G01*
X151435185Y-142204265D01*
X151435365Y-142205168D01*
X151467596Y-142266788D01*
X151532363Y-142302152D01*
X151533249Y-142302329D01*
X151534752Y-142303648D01*
X151534361Y-142305609D01*
X151533248Y-142306252D01*
X151520274Y-142308832D01*
X151504224Y-142319557D01*
X150443844Y-143379937D01*
X150433119Y-143395987D01*
X150430539Y-143408961D01*
X150429220Y-143410465D01*
X150427258Y-143410075D01*
X150426616Y-143408962D01*
X150426436Y-143408059D01*
X150394205Y-143346439D01*
X150329438Y-143311075D01*
X150328552Y-143310898D01*
X150327049Y-143309579D01*
X150327440Y-143307618D01*
X150328553Y-143306975D01*
X150341527Y-143304395D01*
X150357577Y-143293670D01*
X151417957Y-142233290D01*
X151428682Y-142217240D01*
X151431262Y-142204266D01*
X151432581Y-142202762D01*
X151434543Y-142203152D01*
G37*
G36*
X151080990Y-141849599D02*
G01*
X151081632Y-141850712D01*
X151081812Y-141851615D01*
X151114043Y-141913235D01*
X151178810Y-141948599D01*
X151179696Y-141948776D01*
X151181199Y-141950095D01*
X151180808Y-141952056D01*
X151179695Y-141952699D01*
X151166721Y-141955279D01*
X151150671Y-141966004D01*
X150090291Y-143026384D01*
X150079566Y-143042434D01*
X150076986Y-143055408D01*
X150075667Y-143056912D01*
X150073705Y-143056522D01*
X150073063Y-143055409D01*
X150072883Y-143054506D01*
X150040652Y-142992886D01*
X149975885Y-142957522D01*
X149974999Y-142957345D01*
X149973496Y-142956026D01*
X149973887Y-142954065D01*
X149975000Y-142953422D01*
X149987974Y-142950842D01*
X150004024Y-142940117D01*
X151064404Y-141879737D01*
X151075129Y-141863687D01*
X151077709Y-141850713D01*
X151079028Y-141849209D01*
X151080990Y-141849599D01*
G37*
G36*
X132893648Y-141849600D02*
G01*
X132894291Y-141850713D01*
X132896871Y-141863687D01*
X132907596Y-141879737D01*
X133967976Y-142940117D01*
X133984026Y-142950842D01*
X133997000Y-142953422D01*
X133998504Y-142954741D01*
X133998114Y-142956703D01*
X133997001Y-142957345D01*
X133996098Y-142957525D01*
X133934478Y-142989756D01*
X133899114Y-143054523D01*
X133898937Y-143055409D01*
X133897618Y-143056912D01*
X133895657Y-143056521D01*
X133895014Y-143055408D01*
X133892434Y-143042434D01*
X133881709Y-143026384D01*
X132821329Y-141966004D01*
X132805279Y-141955279D01*
X132792305Y-141952699D01*
X132790801Y-141951380D01*
X132791191Y-141949418D01*
X132792304Y-141948776D01*
X132793207Y-141948596D01*
X132854827Y-141916365D01*
X132890191Y-141851598D01*
X132890368Y-141850712D01*
X132891687Y-141849209D01*
X132893648Y-141849600D01*
G37*
G36*
X150727436Y-141496044D02*
G01*
X150728078Y-141497157D01*
X150728259Y-141498064D01*
X150760491Y-141559681D01*
X150825255Y-141595046D01*
X150826144Y-141595223D01*
X150827647Y-141596542D01*
X150827256Y-141598503D01*
X150826143Y-141599146D01*
X150813168Y-141601726D01*
X150797118Y-141612451D01*
X149736738Y-142672831D01*
X149726013Y-142688881D01*
X149723433Y-142701856D01*
X149722114Y-142703360D01*
X149720152Y-142702970D01*
X149719510Y-142701857D01*
X149719329Y-142700950D01*
X149687097Y-142639333D01*
X149622333Y-142603968D01*
X149621444Y-142603791D01*
X149619941Y-142602472D01*
X149620332Y-142600511D01*
X149621445Y-142599868D01*
X149634420Y-142597288D01*
X149650470Y-142586563D01*
X150710850Y-141526183D01*
X150721575Y-141510133D01*
X150724155Y-141497158D01*
X150725474Y-141495654D01*
X150727436Y-141496044D01*
G37*
G36*
X133247202Y-141496045D02*
G01*
X133247845Y-141497158D01*
X133250425Y-141510133D01*
X133261150Y-141526183D01*
X134321530Y-142586563D01*
X134337580Y-142597288D01*
X134350555Y-142599868D01*
X134352059Y-142601187D01*
X134351669Y-142603149D01*
X134350556Y-142603791D01*
X134349649Y-142603972D01*
X134288032Y-142636204D01*
X134252667Y-142700968D01*
X134252490Y-142701857D01*
X134251171Y-142703360D01*
X134249210Y-142702969D01*
X134248567Y-142701856D01*
X134245987Y-142688881D01*
X134235262Y-142672831D01*
X133174882Y-141612451D01*
X133158832Y-141601726D01*
X133145857Y-141599146D01*
X133144353Y-141597827D01*
X133144743Y-141595865D01*
X133145856Y-141595223D01*
X133146763Y-141595042D01*
X133208380Y-141562810D01*
X133243745Y-141498046D01*
X133243922Y-141497157D01*
X133245241Y-141495654D01*
X133247202Y-141496045D01*
G37*
G36*
X150373883Y-141142492D02*
G01*
X150374525Y-141143605D01*
X150374705Y-141144508D01*
X150406936Y-141206128D01*
X150471703Y-141241492D01*
X150472589Y-141241669D01*
X150474092Y-141242988D01*
X150473701Y-141244949D01*
X150472588Y-141245592D01*
X150459614Y-141248172D01*
X150443564Y-141258897D01*
X149383184Y-142319277D01*
X149372459Y-142335327D01*
X149369879Y-142348301D01*
X149368560Y-142349805D01*
X149366598Y-142349415D01*
X149365956Y-142348302D01*
X149365776Y-142347399D01*
X149333545Y-142285779D01*
X149268778Y-142250415D01*
X149267892Y-142250238D01*
X149266389Y-142248919D01*
X149266780Y-142246958D01*
X149267893Y-142246315D01*
X149280867Y-142243735D01*
X149296917Y-142233010D01*
X150357297Y-141172630D01*
X150368022Y-141156580D01*
X150370602Y-141143606D01*
X150371921Y-141142102D01*
X150373883Y-141142492D01*
G37*
G36*
X133600755Y-141142493D02*
G01*
X133601398Y-141143606D01*
X133603978Y-141156580D01*
X133614703Y-141172630D01*
X134675083Y-142233010D01*
X134691133Y-142243735D01*
X134704107Y-142246315D01*
X134705611Y-142247634D01*
X134705221Y-142249596D01*
X134704108Y-142250238D01*
X134703205Y-142250418D01*
X134641585Y-142282649D01*
X134606221Y-142347416D01*
X134606044Y-142348302D01*
X134604725Y-142349805D01*
X134602764Y-142349414D01*
X134602121Y-142348301D01*
X134599541Y-142335327D01*
X134588816Y-142319277D01*
X133528436Y-141258897D01*
X133512386Y-141248172D01*
X133499412Y-141245592D01*
X133497908Y-141244273D01*
X133498298Y-141242311D01*
X133499411Y-141241669D01*
X133500314Y-141241489D01*
X133561934Y-141209258D01*
X133597298Y-141144491D01*
X133597475Y-141143605D01*
X133598794Y-141142102D01*
X133600755Y-141142493D01*
G37*
G36*
X133954308Y-140788938D02*
G01*
X133954951Y-140790051D01*
X133957531Y-140803026D01*
X133968256Y-140819076D01*
X135028636Y-141879456D01*
X135044686Y-141890181D01*
X135057660Y-141892761D01*
X135059164Y-141894080D01*
X135058774Y-141896042D01*
X135057661Y-141896684D01*
X135056758Y-141896864D01*
X134995140Y-141929095D01*
X134959774Y-141993861D01*
X134959597Y-141994750D01*
X134958278Y-141996253D01*
X134956317Y-141995862D01*
X134955674Y-141994749D01*
X134953094Y-141981774D01*
X134942369Y-141965724D01*
X133881989Y-140905344D01*
X133865939Y-140894619D01*
X133852965Y-140892039D01*
X133851461Y-140890720D01*
X133851851Y-140888758D01*
X133852964Y-140888116D01*
X133853867Y-140887936D01*
X133915485Y-140855705D01*
X133950851Y-140790939D01*
X133951028Y-140790050D01*
X133952347Y-140788547D01*
X133954308Y-140788938D01*
G37*
G36*
X150020330Y-140788937D02*
G01*
X150020972Y-140790050D01*
X150021153Y-140790957D01*
X150053385Y-140852576D01*
X150118150Y-140887939D01*
X150119036Y-140888116D01*
X150120539Y-140889435D01*
X150120148Y-140891396D01*
X150119035Y-140892039D01*
X150106061Y-140894619D01*
X150090011Y-140905344D01*
X149029631Y-141965724D01*
X149018906Y-141981774D01*
X149016326Y-141994749D01*
X149015007Y-141996253D01*
X149013045Y-141995863D01*
X149012403Y-141994750D01*
X149012222Y-141993843D01*
X148979990Y-141932224D01*
X148915225Y-141896861D01*
X148914339Y-141896684D01*
X148912836Y-141895365D01*
X148913227Y-141893404D01*
X148914340Y-141892761D01*
X148927314Y-141890181D01*
X148943364Y-141879456D01*
X150003744Y-140819076D01*
X150014469Y-140803026D01*
X150017049Y-140790051D01*
X150018368Y-140788547D01*
X150020330Y-140788937D01*
G37*
G36*
X134307862Y-140435386D02*
G01*
X134308505Y-140436499D01*
X134311085Y-140449473D01*
X134321810Y-140465523D01*
X135382190Y-141525903D01*
X135398240Y-141536628D01*
X135411215Y-141539208D01*
X135412719Y-141540527D01*
X135412329Y-141542489D01*
X135411216Y-141543131D01*
X135410309Y-141543312D01*
X135348690Y-141575544D01*
X135313327Y-141640309D01*
X135313150Y-141641195D01*
X135311831Y-141642698D01*
X135309870Y-141642307D01*
X135309227Y-141641194D01*
X135306647Y-141628220D01*
X135295922Y-141612170D01*
X134235542Y-140551790D01*
X134219492Y-140541065D01*
X134206517Y-140538485D01*
X134205013Y-140537166D01*
X134205403Y-140535204D01*
X134206516Y-140534562D01*
X134207423Y-140534381D01*
X134269042Y-140502149D01*
X134304405Y-140437384D01*
X134304582Y-140436498D01*
X134305901Y-140434995D01*
X134307862Y-140435386D01*
G37*
G36*
X149666776Y-140435385D02*
G01*
X149667418Y-140436498D01*
X149667598Y-140437401D01*
X149699829Y-140499019D01*
X149764595Y-140534385D01*
X149765484Y-140534562D01*
X149766987Y-140535881D01*
X149766596Y-140537842D01*
X149765483Y-140538485D01*
X149752508Y-140541065D01*
X149736458Y-140551790D01*
X148676078Y-141612170D01*
X148665353Y-141628220D01*
X148662773Y-141641194D01*
X148661454Y-141642698D01*
X148659492Y-141642308D01*
X148658850Y-141641195D01*
X148658670Y-141640292D01*
X148626439Y-141578674D01*
X148561673Y-141543308D01*
X148560784Y-141543131D01*
X148559281Y-141541812D01*
X148559672Y-141539851D01*
X148560785Y-141539208D01*
X148573760Y-141536628D01*
X148589810Y-141525903D01*
X149650190Y-140465523D01*
X149660915Y-140449473D01*
X149663495Y-140436499D01*
X149664814Y-140434995D01*
X149666776Y-140435385D01*
G37*
G36*
X134661415Y-140081833D02*
G01*
X134662058Y-140082946D01*
X134664638Y-140095920D01*
X134675363Y-140111970D01*
X135735743Y-141172350D01*
X135751793Y-141183075D01*
X135764767Y-141185655D01*
X135766271Y-141186974D01*
X135765881Y-141188936D01*
X135764768Y-141189578D01*
X135763865Y-141189758D01*
X135702245Y-141221989D01*
X135666881Y-141286756D01*
X135666704Y-141287642D01*
X135665385Y-141289145D01*
X135663424Y-141288754D01*
X135662781Y-141287641D01*
X135660201Y-141274667D01*
X135649476Y-141258617D01*
X134589096Y-140198237D01*
X134573046Y-140187512D01*
X134560072Y-140184932D01*
X134558568Y-140183613D01*
X134558958Y-140181651D01*
X134560071Y-140181009D01*
X134560974Y-140180829D01*
X134622594Y-140148598D01*
X134657958Y-140083831D01*
X134658135Y-140082945D01*
X134659454Y-140081442D01*
X134661415Y-140081833D01*
G37*
G36*
X149313223Y-140081832D02*
G01*
X149313865Y-140082945D01*
X149314045Y-140083848D01*
X149346276Y-140145468D01*
X149411043Y-140180832D01*
X149411929Y-140181009D01*
X149413432Y-140182328D01*
X149413041Y-140184289D01*
X149411928Y-140184932D01*
X149398954Y-140187512D01*
X149382904Y-140198237D01*
X148322524Y-141258617D01*
X148311799Y-141274667D01*
X148309219Y-141287641D01*
X148307900Y-141289145D01*
X148305938Y-141288755D01*
X148305296Y-141287642D01*
X148305116Y-141286739D01*
X148272885Y-141225119D01*
X148208118Y-141189755D01*
X148207232Y-141189578D01*
X148205729Y-141188259D01*
X148206120Y-141186298D01*
X148207233Y-141185655D01*
X148220207Y-141183075D01*
X148236257Y-141172350D01*
X149296637Y-140111970D01*
X149307362Y-140095920D01*
X149309942Y-140082946D01*
X149311261Y-140081442D01*
X149313223Y-140081832D01*
G37*
G36*
X135014969Y-139728278D02*
G01*
X135015612Y-139729391D01*
X135018192Y-139742366D01*
X135028917Y-139758416D01*
X136089297Y-140818796D01*
X136105347Y-140829521D01*
X136118322Y-140832101D01*
X136119826Y-140833420D01*
X136119436Y-140835382D01*
X136118323Y-140836024D01*
X136117416Y-140836205D01*
X136055799Y-140868437D01*
X136020434Y-140933201D01*
X136020257Y-140934090D01*
X136018938Y-140935593D01*
X136016977Y-140935202D01*
X136016334Y-140934089D01*
X136013754Y-140921114D01*
X136003029Y-140905064D01*
X134942649Y-139844684D01*
X134926599Y-139833959D01*
X134913624Y-139831379D01*
X134912120Y-139830060D01*
X134912510Y-139828098D01*
X134913623Y-139827456D01*
X134914530Y-139827275D01*
X134976147Y-139795043D01*
X135011512Y-139730279D01*
X135011689Y-139729390D01*
X135013008Y-139727887D01*
X135014969Y-139728278D01*
G37*
G36*
X148959669Y-139728277D02*
G01*
X148960311Y-139729390D01*
X148960492Y-139730297D01*
X148992724Y-139791914D01*
X149057488Y-139827279D01*
X149058377Y-139827456D01*
X149059880Y-139828775D01*
X149059489Y-139830736D01*
X149058376Y-139831379D01*
X149045401Y-139833959D01*
X149029351Y-139844684D01*
X147968971Y-140905064D01*
X147958246Y-140921114D01*
X147955666Y-140934089D01*
X147954347Y-140935593D01*
X147952385Y-140935203D01*
X147951743Y-140934090D01*
X147951562Y-140933183D01*
X147919330Y-140871566D01*
X147854566Y-140836201D01*
X147853677Y-140836024D01*
X147852174Y-140834705D01*
X147852565Y-140832744D01*
X147853678Y-140832101D01*
X147866653Y-140829521D01*
X147882703Y-140818796D01*
X148943083Y-139758416D01*
X148953808Y-139742366D01*
X148956388Y-139729391D01*
X148957707Y-139727887D01*
X148959669Y-139728277D01*
G37*
G36*
X148606116Y-139374725D02*
G01*
X148606758Y-139375838D01*
X148606938Y-139376741D01*
X148639169Y-139438361D01*
X148703936Y-139473725D01*
X148704822Y-139473902D01*
X148706325Y-139475221D01*
X148705934Y-139477182D01*
X148704821Y-139477825D01*
X148691847Y-139480405D01*
X148675797Y-139491130D01*
X147615417Y-140551510D01*
X147604692Y-140567560D01*
X147602112Y-140580534D01*
X147600793Y-140582038D01*
X147598831Y-140581648D01*
X147598189Y-140580535D01*
X147598009Y-140579632D01*
X147565778Y-140518012D01*
X147501011Y-140482648D01*
X147500125Y-140482471D01*
X147498622Y-140481152D01*
X147499013Y-140479191D01*
X147500126Y-140478548D01*
X147513100Y-140475968D01*
X147529150Y-140465243D01*
X148589530Y-139404863D01*
X148600255Y-139388813D01*
X148602835Y-139375839D01*
X148604154Y-139374335D01*
X148606116Y-139374725D01*
G37*
G36*
X135368522Y-139374726D02*
G01*
X135369165Y-139375839D01*
X135371745Y-139388813D01*
X135382470Y-139404863D01*
X136442850Y-140465243D01*
X136458900Y-140475968D01*
X136471874Y-140478548D01*
X136473378Y-140479867D01*
X136472988Y-140481829D01*
X136471875Y-140482471D01*
X136470972Y-140482651D01*
X136409352Y-140514882D01*
X136373988Y-140579649D01*
X136373811Y-140580535D01*
X136372492Y-140582038D01*
X136370531Y-140581647D01*
X136369888Y-140580534D01*
X136367308Y-140567560D01*
X136356583Y-140551510D01*
X135296203Y-139491130D01*
X135280153Y-139480405D01*
X135267179Y-139477825D01*
X135265675Y-139476506D01*
X135266065Y-139474544D01*
X135267178Y-139473902D01*
X135268081Y-139473722D01*
X135329701Y-139441491D01*
X135365065Y-139376724D01*
X135365242Y-139375838D01*
X135366561Y-139374335D01*
X135368522Y-139374726D01*
G37*
G36*
X135722075Y-139021171D02*
G01*
X135722718Y-139022284D01*
X135725298Y-139035259D01*
X135736023Y-139051309D01*
X136796403Y-140111689D01*
X136812453Y-140122414D01*
X136825427Y-140124994D01*
X136826931Y-140126313D01*
X136826541Y-140128275D01*
X136825428Y-140128917D01*
X136824525Y-140129097D01*
X136762907Y-140161328D01*
X136727541Y-140226094D01*
X136727364Y-140226983D01*
X136726045Y-140228486D01*
X136724084Y-140228095D01*
X136723441Y-140226982D01*
X136720861Y-140214007D01*
X136710136Y-140197957D01*
X135649756Y-139137577D01*
X135633706Y-139126852D01*
X135620732Y-139124272D01*
X135619228Y-139122953D01*
X135619618Y-139120991D01*
X135620731Y-139120349D01*
X135621634Y-139120169D01*
X135683252Y-139087938D01*
X135718618Y-139023172D01*
X135718795Y-139022283D01*
X135720114Y-139020780D01*
X135722075Y-139021171D01*
G37*
G36*
X148252563Y-139021170D02*
G01*
X148253205Y-139022283D01*
X148253386Y-139023190D01*
X148285618Y-139084809D01*
X148350383Y-139120172D01*
X148351269Y-139120349D01*
X148352772Y-139121668D01*
X148352381Y-139123629D01*
X148351268Y-139124272D01*
X148338294Y-139126852D01*
X148322244Y-139137577D01*
X147261864Y-140197957D01*
X147251139Y-140214007D01*
X147248559Y-140226982D01*
X147247240Y-140228486D01*
X147245278Y-140228096D01*
X147244636Y-140226983D01*
X147244455Y-140226076D01*
X147212223Y-140164457D01*
X147147458Y-140129094D01*
X147146572Y-140128917D01*
X147145069Y-140127598D01*
X147145460Y-140125637D01*
X147146573Y-140124994D01*
X147159547Y-140122414D01*
X147175597Y-140111689D01*
X148235977Y-139051309D01*
X148246702Y-139035259D01*
X148249282Y-139022284D01*
X148250601Y-139020780D01*
X148252563Y-139021170D01*
G37*
G36*
X147899009Y-138667618D02*
G01*
X147899651Y-138668731D01*
X147899831Y-138669634D01*
X147932062Y-138731252D01*
X147996828Y-138766618D01*
X147997717Y-138766795D01*
X147999220Y-138768114D01*
X147998829Y-138770075D01*
X147997716Y-138770718D01*
X147984741Y-138773298D01*
X147968691Y-138784023D01*
X146908311Y-139844403D01*
X146897586Y-139860453D01*
X146895006Y-139873427D01*
X146893687Y-139874931D01*
X146891725Y-139874541D01*
X146891083Y-139873428D01*
X146890903Y-139872525D01*
X146858672Y-139810907D01*
X146793906Y-139775541D01*
X146793017Y-139775364D01*
X146791514Y-139774045D01*
X146791905Y-139772084D01*
X146793018Y-139771441D01*
X146805993Y-139768861D01*
X146822043Y-139758136D01*
X147882423Y-138697756D01*
X147893148Y-138681706D01*
X147895728Y-138668732D01*
X147897047Y-138667228D01*
X147899009Y-138667618D01*
G37*
G36*
X136075629Y-138667619D02*
G01*
X136076272Y-138668732D01*
X136078852Y-138681706D01*
X136089577Y-138697756D01*
X137149957Y-139758136D01*
X137166007Y-139768861D01*
X137178982Y-139771441D01*
X137180486Y-139772760D01*
X137180096Y-139774722D01*
X137178983Y-139775364D01*
X137178076Y-139775545D01*
X137116457Y-139807777D01*
X137081094Y-139872542D01*
X137080917Y-139873428D01*
X137079598Y-139874931D01*
X137077637Y-139874540D01*
X137076994Y-139873427D01*
X137074414Y-139860453D01*
X137063689Y-139844403D01*
X136003309Y-138784023D01*
X135987259Y-138773298D01*
X135974284Y-138770718D01*
X135972780Y-138769399D01*
X135973170Y-138767437D01*
X135974283Y-138766795D01*
X135975190Y-138766614D01*
X136036809Y-138734382D01*
X136072172Y-138669617D01*
X136072349Y-138668731D01*
X136073668Y-138667228D01*
X136075629Y-138667619D01*
G37*
G36*
X136429182Y-138314066D02*
G01*
X136429825Y-138315179D01*
X136432405Y-138328153D01*
X136443130Y-138344203D01*
X137503510Y-139404583D01*
X137519560Y-139415308D01*
X137532534Y-139417888D01*
X137534038Y-139419207D01*
X137533648Y-139421169D01*
X137532535Y-139421811D01*
X137531632Y-139421991D01*
X137470012Y-139454222D01*
X137434648Y-139518989D01*
X137434471Y-139519875D01*
X137433152Y-139521378D01*
X137431191Y-139520987D01*
X137430548Y-139519874D01*
X137427968Y-139506900D01*
X137417243Y-139490850D01*
X136356863Y-138430470D01*
X136340813Y-138419745D01*
X136327839Y-138417165D01*
X136326335Y-138415846D01*
X136326725Y-138413884D01*
X136327838Y-138413242D01*
X136328741Y-138413062D01*
X136390361Y-138380831D01*
X136425725Y-138316064D01*
X136425902Y-138315178D01*
X136427221Y-138313675D01*
X136429182Y-138314066D01*
G37*
G36*
X147545456Y-138314065D02*
G01*
X147546098Y-138315178D01*
X147546278Y-138316081D01*
X147578509Y-138377701D01*
X147643276Y-138413065D01*
X147644162Y-138413242D01*
X147645665Y-138414561D01*
X147645274Y-138416522D01*
X147644161Y-138417165D01*
X147631187Y-138419745D01*
X147615137Y-138430470D01*
X146554757Y-139490850D01*
X146544032Y-139506900D01*
X146541452Y-139519874D01*
X146540133Y-139521378D01*
X146538171Y-139520988D01*
X146537529Y-139519875D01*
X146537349Y-139518972D01*
X146505118Y-139457352D01*
X146440351Y-139421988D01*
X146439465Y-139421811D01*
X146437962Y-139420492D01*
X146438353Y-139418531D01*
X146439466Y-139417888D01*
X146452440Y-139415308D01*
X146468490Y-139404583D01*
X147528870Y-138344203D01*
X147539595Y-138328153D01*
X147542175Y-138315179D01*
X147543494Y-138313675D01*
X147545456Y-138314065D01*
G37*
G36*
X136782736Y-137960511D02*
G01*
X136783379Y-137961624D01*
X136785959Y-137974599D01*
X136796684Y-137990649D01*
X137857064Y-139051029D01*
X137873114Y-139061754D01*
X137886089Y-139064334D01*
X137887593Y-139065653D01*
X137887203Y-139067615D01*
X137886090Y-139068257D01*
X137885183Y-139068438D01*
X137823566Y-139100670D01*
X137788201Y-139165434D01*
X137788024Y-139166323D01*
X137786705Y-139167826D01*
X137784744Y-139167435D01*
X137784101Y-139166322D01*
X137781521Y-139153347D01*
X137770796Y-139137297D01*
X136710416Y-138076917D01*
X136694366Y-138066192D01*
X136681391Y-138063612D01*
X136679887Y-138062293D01*
X136680277Y-138060331D01*
X136681390Y-138059689D01*
X136682297Y-138059508D01*
X136743914Y-138027276D01*
X136779279Y-137962512D01*
X136779456Y-137961623D01*
X136780775Y-137960120D01*
X136782736Y-137960511D01*
G37*
G36*
X147191902Y-137960510D02*
G01*
X147192544Y-137961623D01*
X147192725Y-137962530D01*
X147224957Y-138024147D01*
X147289721Y-138059512D01*
X147290610Y-138059689D01*
X147292113Y-138061008D01*
X147291722Y-138062969D01*
X147290609Y-138063612D01*
X147277634Y-138066192D01*
X147261584Y-138076917D01*
X146201204Y-139137297D01*
X146190479Y-139153347D01*
X146187899Y-139166322D01*
X146186580Y-139167826D01*
X146184618Y-139167436D01*
X146183976Y-139166323D01*
X146183795Y-139165416D01*
X146151563Y-139103799D01*
X146086799Y-139068434D01*
X146085910Y-139068257D01*
X146084407Y-139066938D01*
X146084798Y-139064977D01*
X146085911Y-139064334D01*
X146098886Y-139061754D01*
X146114936Y-139051029D01*
X147175316Y-137990649D01*
X147186041Y-137974599D01*
X147188621Y-137961624D01*
X147189940Y-137960120D01*
X147191902Y-137960510D01*
G37*
G36*
X137136289Y-137606959D02*
G01*
X137136932Y-137608072D01*
X137139512Y-137621046D01*
X137150237Y-137637096D01*
X138210617Y-138697476D01*
X138226667Y-138708201D01*
X138239641Y-138710781D01*
X138241145Y-138712100D01*
X138240755Y-138714062D01*
X138239642Y-138714704D01*
X138238739Y-138714884D01*
X138177119Y-138747115D01*
X138141755Y-138811882D01*
X138141578Y-138812768D01*
X138140259Y-138814271D01*
X138138298Y-138813880D01*
X138137655Y-138812767D01*
X138135075Y-138799793D01*
X138124350Y-138783743D01*
X137063970Y-137723363D01*
X137047920Y-137712638D01*
X137034946Y-137710058D01*
X137033442Y-137708739D01*
X137033832Y-137706777D01*
X137034945Y-137706135D01*
X137035848Y-137705955D01*
X137097468Y-137673724D01*
X137132832Y-137608957D01*
X137133009Y-137608071D01*
X137134328Y-137606568D01*
X137136289Y-137606959D01*
G37*
G36*
X146838349Y-137606958D02*
G01*
X146838991Y-137608071D01*
X146839171Y-137608974D01*
X146871402Y-137670594D01*
X146936169Y-137705958D01*
X146937055Y-137706135D01*
X146938558Y-137707454D01*
X146938167Y-137709415D01*
X146937054Y-137710058D01*
X146924080Y-137712638D01*
X146908030Y-137723363D01*
X145847650Y-138783743D01*
X145836925Y-138799793D01*
X145834345Y-138812767D01*
X145833026Y-138814271D01*
X145831064Y-138813881D01*
X145830422Y-138812768D01*
X145830242Y-138811865D01*
X145798011Y-138750245D01*
X145733244Y-138714881D01*
X145732358Y-138714704D01*
X145730855Y-138713385D01*
X145731246Y-138711424D01*
X145732359Y-138710781D01*
X145745333Y-138708201D01*
X145761383Y-138697476D01*
X146821763Y-137637096D01*
X146832488Y-137621046D01*
X146835068Y-137608072D01*
X146836387Y-137606568D01*
X146838349Y-137606958D01*
G37*
G36*
X137489842Y-137253404D02*
G01*
X137490485Y-137254517D01*
X137493065Y-137267492D01*
X137503790Y-137283542D01*
X138564170Y-138343922D01*
X138580220Y-138354647D01*
X138593194Y-138357227D01*
X138594698Y-138358546D01*
X138594308Y-138360508D01*
X138593195Y-138361150D01*
X138592292Y-138361330D01*
X138530674Y-138393561D01*
X138495308Y-138458327D01*
X138495131Y-138459216D01*
X138493812Y-138460719D01*
X138491851Y-138460328D01*
X138491208Y-138459215D01*
X138488628Y-138446240D01*
X138477903Y-138430190D01*
X137417523Y-137369810D01*
X137401473Y-137359085D01*
X137388499Y-137356505D01*
X137386995Y-137355186D01*
X137387385Y-137353224D01*
X137388498Y-137352582D01*
X137389401Y-137352402D01*
X137451019Y-137320171D01*
X137486385Y-137255405D01*
X137486562Y-137254516D01*
X137487881Y-137253013D01*
X137489842Y-137253404D01*
G37*
G36*
X146484796Y-137253403D02*
G01*
X146485438Y-137254516D01*
X146485619Y-137255423D01*
X146517851Y-137317042D01*
X146582616Y-137352405D01*
X146583502Y-137352582D01*
X146585005Y-137353901D01*
X146584614Y-137355862D01*
X146583501Y-137356505D01*
X146570527Y-137359085D01*
X146554477Y-137369810D01*
X145494097Y-138430190D01*
X145483372Y-138446240D01*
X145480792Y-138459215D01*
X145479473Y-138460719D01*
X145477511Y-138460329D01*
X145476869Y-138459216D01*
X145476688Y-138458309D01*
X145444456Y-138396690D01*
X145379691Y-138361327D01*
X145378805Y-138361150D01*
X145377302Y-138359831D01*
X145377693Y-138357870D01*
X145378806Y-138357227D01*
X145391780Y-138354647D01*
X145407830Y-138343922D01*
X146468210Y-137283542D01*
X146478935Y-137267492D01*
X146481515Y-137254517D01*
X146482834Y-137253013D01*
X146484796Y-137253403D01*
G37*
G36*
X137843396Y-136899852D02*
G01*
X137844039Y-136900965D01*
X137846619Y-136913939D01*
X137857344Y-136929989D01*
X138917724Y-137990369D01*
X138933774Y-138001094D01*
X138946749Y-138003674D01*
X138948253Y-138004993D01*
X138947863Y-138006955D01*
X138946750Y-138007597D01*
X138945843Y-138007778D01*
X138884224Y-138040010D01*
X138848861Y-138104775D01*
X138848684Y-138105661D01*
X138847365Y-138107164D01*
X138845404Y-138106773D01*
X138844761Y-138105660D01*
X138842181Y-138092686D01*
X138831456Y-138076636D01*
X137771076Y-137016256D01*
X137755026Y-137005531D01*
X137742051Y-137002951D01*
X137740547Y-137001632D01*
X137740937Y-136999670D01*
X137742050Y-136999028D01*
X137742957Y-136998847D01*
X137804576Y-136966615D01*
X137839939Y-136901850D01*
X137840116Y-136900964D01*
X137841435Y-136899461D01*
X137843396Y-136899852D01*
G37*
G36*
X146131242Y-136899851D02*
G01*
X146131884Y-136900964D01*
X146132064Y-136901867D01*
X146164295Y-136963485D01*
X146229061Y-136998851D01*
X146229950Y-136999028D01*
X146231453Y-137000347D01*
X146231062Y-137002308D01*
X146229949Y-137002951D01*
X146216974Y-137005531D01*
X146200924Y-137016256D01*
X145140544Y-138076636D01*
X145129819Y-138092686D01*
X145127239Y-138105660D01*
X145125920Y-138107164D01*
X145123958Y-138106774D01*
X145123316Y-138105661D01*
X145123136Y-138104758D01*
X145090905Y-138043140D01*
X145026139Y-138007774D01*
X145025250Y-138007597D01*
X145023747Y-138006278D01*
X145024138Y-138004317D01*
X145025251Y-138003674D01*
X145038226Y-138001094D01*
X145054276Y-137990369D01*
X146114656Y-136929989D01*
X146125381Y-136913939D01*
X146127961Y-136900965D01*
X146129280Y-136899461D01*
X146131242Y-136899851D01*
G37*
G36*
X145777689Y-136546298D02*
G01*
X145778331Y-136547411D01*
X145778511Y-136548314D01*
X145810742Y-136609934D01*
X145875509Y-136645298D01*
X145876395Y-136645475D01*
X145877898Y-136646794D01*
X145877507Y-136648755D01*
X145876394Y-136649398D01*
X145863420Y-136651978D01*
X145847370Y-136662703D01*
X144786990Y-137723083D01*
X144776265Y-137739133D01*
X144773685Y-137752107D01*
X144772366Y-137753611D01*
X144770404Y-137753221D01*
X144769762Y-137752108D01*
X144769582Y-137751205D01*
X144737351Y-137689585D01*
X144672584Y-137654221D01*
X144671698Y-137654044D01*
X144670195Y-137652725D01*
X144670586Y-137650764D01*
X144671699Y-137650121D01*
X144684673Y-137647541D01*
X144700723Y-137636816D01*
X145761103Y-136576436D01*
X145771828Y-136560386D01*
X145774408Y-136547412D01*
X145775727Y-136545908D01*
X145777689Y-136546298D01*
G37*
G36*
X138196949Y-136546299D02*
G01*
X138197592Y-136547412D01*
X138200172Y-136560386D01*
X138210897Y-136576436D01*
X139271277Y-137636816D01*
X139287327Y-137647541D01*
X139300301Y-137650121D01*
X139301805Y-137651440D01*
X139301415Y-137653402D01*
X139300302Y-137654044D01*
X139299399Y-137654224D01*
X139237779Y-137686455D01*
X139202415Y-137751222D01*
X139202238Y-137752108D01*
X139200919Y-137753611D01*
X139198958Y-137753220D01*
X139198315Y-137752107D01*
X139195735Y-137739133D01*
X139185010Y-137723083D01*
X138124630Y-136662703D01*
X138108580Y-136651978D01*
X138095606Y-136649398D01*
X138094102Y-136648079D01*
X138094492Y-136646117D01*
X138095605Y-136645475D01*
X138096508Y-136645295D01*
X138158128Y-136613064D01*
X138193492Y-136548297D01*
X138193669Y-136547411D01*
X138194988Y-136545908D01*
X138196949Y-136546299D01*
G37*
G36*
X138550503Y-136192744D02*
G01*
X138551146Y-136193857D01*
X138553726Y-136206832D01*
X138564451Y-136222882D01*
X139624831Y-137283262D01*
X139640881Y-137293987D01*
X139653856Y-137296567D01*
X139655360Y-137297886D01*
X139654970Y-137299848D01*
X139653857Y-137300490D01*
X139652950Y-137300671D01*
X139591333Y-137332903D01*
X139555968Y-137397667D01*
X139555791Y-137398556D01*
X139554472Y-137400059D01*
X139552511Y-137399668D01*
X139551868Y-137398555D01*
X139549288Y-137385580D01*
X139538563Y-137369530D01*
X138478183Y-136309150D01*
X138462133Y-136298425D01*
X138449158Y-136295845D01*
X138447654Y-136294526D01*
X138448044Y-136292564D01*
X138449157Y-136291922D01*
X138450064Y-136291741D01*
X138511681Y-136259509D01*
X138547046Y-136194745D01*
X138547223Y-136193856D01*
X138548542Y-136192353D01*
X138550503Y-136192744D01*
G37*
G36*
X145424135Y-136192743D02*
G01*
X145424777Y-136193856D01*
X145424958Y-136194763D01*
X145457190Y-136256380D01*
X145521954Y-136291745D01*
X145522843Y-136291922D01*
X145524346Y-136293241D01*
X145523955Y-136295202D01*
X145522842Y-136295845D01*
X145509867Y-136298425D01*
X145493817Y-136309150D01*
X144433437Y-137369530D01*
X144422712Y-137385580D01*
X144420132Y-137398555D01*
X144418813Y-137400059D01*
X144416851Y-137399669D01*
X144416209Y-137398556D01*
X144416028Y-137397649D01*
X144383796Y-137336032D01*
X144319032Y-137300667D01*
X144318143Y-137300490D01*
X144316640Y-137299171D01*
X144317031Y-137297210D01*
X144318144Y-137296567D01*
X144331119Y-137293987D01*
X144347169Y-137283262D01*
X145407549Y-136222882D01*
X145418274Y-136206832D01*
X145420854Y-136193857D01*
X145422173Y-136192353D01*
X145424135Y-136192743D01*
G37*
G36*
X145070582Y-135839191D02*
G01*
X145071224Y-135840304D01*
X145071404Y-135841207D01*
X145103635Y-135902827D01*
X145168402Y-135938191D01*
X145169288Y-135938368D01*
X145170791Y-135939687D01*
X145170400Y-135941648D01*
X145169287Y-135942291D01*
X145156313Y-135944871D01*
X145140263Y-135955596D01*
X144079883Y-137015976D01*
X144069158Y-137032026D01*
X144066578Y-137045000D01*
X144065259Y-137046504D01*
X144063297Y-137046114D01*
X144062655Y-137045001D01*
X144062475Y-137044098D01*
X144030244Y-136982478D01*
X143965477Y-136947114D01*
X143964591Y-136946937D01*
X143963088Y-136945618D01*
X143963479Y-136943657D01*
X143964592Y-136943014D01*
X143977566Y-136940434D01*
X143993616Y-136929709D01*
X145053996Y-135869329D01*
X145064721Y-135853279D01*
X145067301Y-135840305D01*
X145068620Y-135838801D01*
X145070582Y-135839191D01*
G37*
G36*
X138904056Y-135839192D02*
G01*
X138904699Y-135840305D01*
X138907279Y-135853279D01*
X138918004Y-135869329D01*
X139978384Y-136929709D01*
X139994434Y-136940434D01*
X140007408Y-136943014D01*
X140008912Y-136944333D01*
X140008522Y-136946295D01*
X140007409Y-136946937D01*
X140006506Y-136947117D01*
X139944886Y-136979348D01*
X139909522Y-137044115D01*
X139909345Y-137045001D01*
X139908026Y-137046504D01*
X139906065Y-137046113D01*
X139905422Y-137045000D01*
X139902842Y-137032026D01*
X139892117Y-137015976D01*
X138831737Y-135955596D01*
X138815687Y-135944871D01*
X138802713Y-135942291D01*
X138801209Y-135940972D01*
X138801599Y-135939010D01*
X138802712Y-135938368D01*
X138803615Y-135938188D01*
X138865235Y-135905957D01*
X138900599Y-135841190D01*
X138900776Y-135840304D01*
X138902095Y-135838801D01*
X138904056Y-135839192D01*
G37*
G36*
X139257609Y-135485639D02*
G01*
X139258252Y-135486752D01*
X139260832Y-135499726D01*
X139271557Y-135515776D01*
X140331937Y-136576156D01*
X140347987Y-136586881D01*
X140360961Y-136589461D01*
X140362465Y-136590780D01*
X140362075Y-136592742D01*
X140360962Y-136593384D01*
X140360059Y-136593564D01*
X140298439Y-136625795D01*
X140263075Y-136690562D01*
X140262898Y-136691448D01*
X140261579Y-136692951D01*
X140259618Y-136692560D01*
X140258975Y-136691447D01*
X140256395Y-136678473D01*
X140245670Y-136662423D01*
X139185290Y-135602043D01*
X139169240Y-135591318D01*
X139156266Y-135588738D01*
X139154762Y-135587419D01*
X139155152Y-135585457D01*
X139156265Y-135584815D01*
X139157168Y-135584635D01*
X139218788Y-135552404D01*
X139254152Y-135487637D01*
X139254329Y-135486751D01*
X139255648Y-135485248D01*
X139257609Y-135485639D01*
G37*
G36*
X144717029Y-135485638D02*
G01*
X144717671Y-135486751D01*
X144717851Y-135487654D01*
X144750082Y-135549274D01*
X144814849Y-135584638D01*
X144815735Y-135584815D01*
X144817238Y-135586134D01*
X144816847Y-135588095D01*
X144815734Y-135588738D01*
X144802760Y-135591318D01*
X144786710Y-135602043D01*
X143726330Y-136662423D01*
X143715605Y-136678473D01*
X143713025Y-136691447D01*
X143711706Y-136692951D01*
X143709744Y-136692561D01*
X143709102Y-136691448D01*
X143708922Y-136690545D01*
X143676691Y-136628925D01*
X143611924Y-136593561D01*
X143611038Y-136593384D01*
X143609535Y-136592065D01*
X143609926Y-136590104D01*
X143611039Y-136589461D01*
X143624013Y-136586881D01*
X143640063Y-136576156D01*
X144700443Y-135515776D01*
X144711168Y-135499726D01*
X144713748Y-135486752D01*
X144715067Y-135485248D01*
X144717029Y-135485638D01*
G37*
G36*
X139611163Y-135132084D02*
G01*
X139611806Y-135133197D01*
X139614386Y-135146172D01*
X139625111Y-135162222D01*
X140685491Y-136222602D01*
X140701541Y-136233327D01*
X140714516Y-136235907D01*
X140716020Y-136237226D01*
X140715630Y-136239188D01*
X140714517Y-136239830D01*
X140713610Y-136240011D01*
X140651993Y-136272243D01*
X140616628Y-136337007D01*
X140616451Y-136337896D01*
X140615132Y-136339399D01*
X140613171Y-136339008D01*
X140612528Y-136337895D01*
X140609948Y-136324920D01*
X140599223Y-136308870D01*
X139538843Y-135248490D01*
X139522793Y-135237765D01*
X139509818Y-135235185D01*
X139508314Y-135233866D01*
X139508704Y-135231904D01*
X139509817Y-135231262D01*
X139510724Y-135231081D01*
X139572341Y-135198849D01*
X139607706Y-135134085D01*
X139607883Y-135133196D01*
X139609202Y-135131693D01*
X139611163Y-135132084D01*
G37*
G36*
X144363475Y-135132083D02*
G01*
X144364117Y-135133196D01*
X144364298Y-135134103D01*
X144396530Y-135195720D01*
X144461294Y-135231085D01*
X144462183Y-135231262D01*
X144463686Y-135232581D01*
X144463295Y-135234542D01*
X144462182Y-135235185D01*
X144449207Y-135237765D01*
X144433157Y-135248490D01*
X143372777Y-136308870D01*
X143362052Y-136324920D01*
X143359472Y-136337895D01*
X143358153Y-136339399D01*
X143356191Y-136339009D01*
X143355549Y-136337896D01*
X143355368Y-136336989D01*
X143323136Y-136275372D01*
X143258372Y-136240007D01*
X143257483Y-136239830D01*
X143255980Y-136238511D01*
X143256371Y-136236550D01*
X143257484Y-136235907D01*
X143270459Y-136233327D01*
X143286509Y-136222602D01*
X144346889Y-135162222D01*
X144357614Y-135146172D01*
X144360194Y-135133197D01*
X144361513Y-135131693D01*
X144363475Y-135132083D01*
G37*
G36*
X139964716Y-134778532D02*
G01*
X139965359Y-134779645D01*
X139967939Y-134792619D01*
X139978664Y-134808669D01*
X141039044Y-135869049D01*
X141055094Y-135879774D01*
X141068068Y-135882354D01*
X141069572Y-135883673D01*
X141069182Y-135885635D01*
X141068069Y-135886277D01*
X141067166Y-135886457D01*
X141005546Y-135918688D01*
X140970182Y-135983455D01*
X140970005Y-135984341D01*
X140968686Y-135985844D01*
X140966725Y-135985453D01*
X140966082Y-135984340D01*
X140963502Y-135971366D01*
X140952777Y-135955316D01*
X139892397Y-134894936D01*
X139876347Y-134884211D01*
X139863373Y-134881631D01*
X139861869Y-134880312D01*
X139862259Y-134878350D01*
X139863372Y-134877708D01*
X139864275Y-134877528D01*
X139925895Y-134845297D01*
X139961259Y-134780530D01*
X139961436Y-134779644D01*
X139962755Y-134778141D01*
X139964716Y-134778532D01*
G37*
G36*
X144009922Y-134778531D02*
G01*
X144010564Y-134779644D01*
X144010744Y-134780547D01*
X144042975Y-134842167D01*
X144107742Y-134877531D01*
X144108628Y-134877708D01*
X144110131Y-134879027D01*
X144109740Y-134880988D01*
X144108627Y-134881631D01*
X144095653Y-134884211D01*
X144079603Y-134894936D01*
X143019223Y-135955316D01*
X143008498Y-135971366D01*
X143005918Y-135984340D01*
X143004599Y-135985844D01*
X143002637Y-135985454D01*
X143001995Y-135984341D01*
X143001815Y-135983438D01*
X142969584Y-135921818D01*
X142904817Y-135886454D01*
X142903931Y-135886277D01*
X142902428Y-135884958D01*
X142902819Y-135882997D01*
X142903932Y-135882354D01*
X142916906Y-135879774D01*
X142932956Y-135869049D01*
X143993336Y-134808669D01*
X144004061Y-134792619D01*
X144006641Y-134779645D01*
X144007960Y-134778141D01*
X144009922Y-134778531D01*
G37*
G36*
X138494633Y-114574517D02*
G01*
X138495197Y-114576436D01*
X138494916Y-114577075D01*
X138484767Y-114592263D01*
X138481000Y-114611199D01*
X138481000Y-115760801D01*
X138484767Y-115779738D01*
X138494814Y-115794773D01*
X138494945Y-115796768D01*
X138493282Y-115797880D01*
X138492553Y-115797793D01*
X138432212Y-115778898D01*
X138367310Y-115797955D01*
X138365367Y-115797483D01*
X138364803Y-115795564D01*
X138365084Y-115794925D01*
X138375233Y-115779737D01*
X138379000Y-115760801D01*
X138379000Y-114611199D01*
X138375233Y-114592262D01*
X138365186Y-114577227D01*
X138365055Y-114575232D01*
X138366718Y-114574120D01*
X138367447Y-114574207D01*
X138427788Y-114593102D01*
X138492690Y-114574045D01*
X138494633Y-114574517D01*
G37*
G36*
X138994633Y-114574517D02*
G01*
X138995197Y-114576436D01*
X138994916Y-114577075D01*
X138984767Y-114592263D01*
X138981000Y-114611199D01*
X138981000Y-115760801D01*
X138984767Y-115779738D01*
X138994814Y-115794773D01*
X138994945Y-115796768D01*
X138993282Y-115797880D01*
X138992553Y-115797793D01*
X138932212Y-115778898D01*
X138867310Y-115797955D01*
X138865367Y-115797483D01*
X138864803Y-115795564D01*
X138865084Y-115794925D01*
X138875233Y-115779737D01*
X138879000Y-115760801D01*
X138879000Y-114611199D01*
X138875233Y-114592262D01*
X138865186Y-114577227D01*
X138865055Y-114575232D01*
X138866718Y-114574120D01*
X138867447Y-114574207D01*
X138927788Y-114593102D01*
X138992690Y-114574045D01*
X138994633Y-114574517D01*
G37*
G36*
X137994633Y-114574517D02*
G01*
X137995197Y-114576436D01*
X137994916Y-114577075D01*
X137984767Y-114592263D01*
X137981000Y-114611199D01*
X137981000Y-115760801D01*
X137984767Y-115779738D01*
X137994814Y-115794773D01*
X137994945Y-115796768D01*
X137993282Y-115797880D01*
X137992553Y-115797793D01*
X137932212Y-115778898D01*
X137867310Y-115797955D01*
X137865367Y-115797483D01*
X137864803Y-115795564D01*
X137865084Y-115794925D01*
X137875233Y-115779737D01*
X137879000Y-115760801D01*
X137879000Y-114611199D01*
X137875233Y-114592262D01*
X137865186Y-114577227D01*
X137865055Y-114575232D01*
X137866718Y-114574120D01*
X137867447Y-114574207D01*
X137927788Y-114593102D01*
X137992690Y-114574045D01*
X137994633Y-114574517D01*
G37*
G36*
X139494633Y-114574517D02*
G01*
X139495197Y-114576436D01*
X139494916Y-114577075D01*
X139484767Y-114592263D01*
X139481000Y-114611199D01*
X139481000Y-115760801D01*
X139484767Y-115779738D01*
X139494814Y-115794773D01*
X139494945Y-115796768D01*
X139493282Y-115797880D01*
X139492553Y-115797793D01*
X139432212Y-115778898D01*
X139367310Y-115797955D01*
X139365367Y-115797483D01*
X139364803Y-115795564D01*
X139365084Y-115794925D01*
X139375233Y-115779737D01*
X139379000Y-115760801D01*
X139379000Y-114611199D01*
X139375233Y-114592262D01*
X139365186Y-114577227D01*
X139365055Y-114575232D01*
X139366718Y-114574120D01*
X139367447Y-114574207D01*
X139427788Y-114593102D01*
X139492690Y-114574045D01*
X139494633Y-114574517D01*
G37*
G36*
X139994633Y-114574517D02*
G01*
X139995197Y-114576436D01*
X139994916Y-114577075D01*
X139984767Y-114592263D01*
X139981000Y-114611199D01*
X139981000Y-115760801D01*
X139984767Y-115779738D01*
X139994814Y-115794773D01*
X139994945Y-115796768D01*
X139993282Y-115797880D01*
X139992553Y-115797793D01*
X139932212Y-115778898D01*
X139867310Y-115797955D01*
X139865367Y-115797483D01*
X139864803Y-115795564D01*
X139865084Y-115794925D01*
X139875233Y-115779737D01*
X139879000Y-115760801D01*
X139879000Y-114611199D01*
X139875233Y-114592262D01*
X139865186Y-114577227D01*
X139865055Y-114575232D01*
X139866718Y-114574120D01*
X139867447Y-114574207D01*
X139927788Y-114593102D01*
X139992690Y-114574045D01*
X139994633Y-114574517D01*
G37*
G36*
X141602961Y-114354650D02*
G01*
X141602830Y-114356038D01*
X141574403Y-114414878D01*
X141582772Y-114483626D01*
X141626975Y-114536930D01*
X141696243Y-114558087D01*
X141697608Y-114559550D01*
X141697023Y-114561462D01*
X141695659Y-114562000D01*
X141330199Y-114562000D01*
X141311262Y-114565767D01*
X141295380Y-114576380D01*
X141284767Y-114592262D01*
X141281000Y-114611199D01*
X141281000Y-115760801D01*
X141284767Y-115779738D01*
X141294814Y-115794773D01*
X141294945Y-115796768D01*
X141293282Y-115797880D01*
X141292553Y-115797793D01*
X141232212Y-115778898D01*
X141167310Y-115797955D01*
X141165367Y-115797483D01*
X141164803Y-115795564D01*
X141165084Y-115794925D01*
X141175233Y-115779737D01*
X141179000Y-115760801D01*
X141179000Y-114611199D01*
X141175233Y-114592262D01*
X141164620Y-114576380D01*
X141148738Y-114565767D01*
X141129801Y-114562000D01*
X140944474Y-114562000D01*
X140942742Y-114561000D01*
X140942742Y-114559000D01*
X140943911Y-114558081D01*
X141010926Y-114538404D01*
X141056281Y-114486061D01*
X141066139Y-114417498D01*
X141039782Y-114358621D01*
X141039987Y-114356632D01*
X141041812Y-114355815D01*
X141043021Y-114356390D01*
X141100182Y-114413551D01*
X141204437Y-114466672D01*
X141320000Y-114484975D01*
X141435563Y-114466672D01*
X141539818Y-114413551D01*
X141599615Y-114353754D01*
X141601547Y-114353236D01*
X141602961Y-114354650D01*
G37*
G36*
X137494633Y-114574517D02*
G01*
X137495197Y-114576436D01*
X137494916Y-114577075D01*
X137484767Y-114592263D01*
X137481000Y-114611199D01*
X137481000Y-115760801D01*
X137484767Y-115779738D01*
X137494814Y-115794773D01*
X137494945Y-115796768D01*
X137493282Y-115797880D01*
X137492553Y-115797793D01*
X137432212Y-115778898D01*
X137367310Y-115797955D01*
X137365367Y-115797483D01*
X137364803Y-115795564D01*
X137365084Y-115794925D01*
X137375233Y-115779737D01*
X137379000Y-115760801D01*
X137379000Y-114611199D01*
X137375233Y-114592262D01*
X137365186Y-114577227D01*
X137365055Y-114575232D01*
X137366718Y-114574120D01*
X137367447Y-114574207D01*
X137427788Y-114593102D01*
X137492690Y-114574045D01*
X137494633Y-114574517D01*
G37*
G36*
X140494633Y-114574517D02*
G01*
X140495197Y-114576436D01*
X140494916Y-114577075D01*
X140484767Y-114592263D01*
X140481000Y-114611199D01*
X140481000Y-115760801D01*
X140484767Y-115779738D01*
X140494814Y-115794773D01*
X140494945Y-115796768D01*
X140493282Y-115797880D01*
X140492553Y-115797793D01*
X140432212Y-115778898D01*
X140367310Y-115797955D01*
X140365367Y-115797483D01*
X140364803Y-115795564D01*
X140365084Y-115794925D01*
X140375233Y-115779737D01*
X140379000Y-115760801D01*
X140379000Y-114611199D01*
X140375233Y-114592262D01*
X140365186Y-114577227D01*
X140365055Y-114575232D01*
X140366718Y-114574120D01*
X140367447Y-114574207D01*
X140427788Y-114593102D01*
X140492690Y-114574045D01*
X140494633Y-114574517D01*
G37*
G36*
X136494633Y-114574517D02*
G01*
X136495197Y-114576436D01*
X136494916Y-114577075D01*
X136484767Y-114592263D01*
X136481000Y-114611199D01*
X136481000Y-115760801D01*
X136484767Y-115779738D01*
X136494814Y-115794773D01*
X136494945Y-115796768D01*
X136493282Y-115797880D01*
X136492553Y-115797793D01*
X136432212Y-115778898D01*
X136367310Y-115797955D01*
X136365367Y-115797483D01*
X136364803Y-115795564D01*
X136365084Y-115794925D01*
X136375233Y-115779737D01*
X136379000Y-115760801D01*
X136379000Y-114611199D01*
X136375233Y-114592262D01*
X136365186Y-114577227D01*
X136365055Y-114575232D01*
X136366718Y-114574120D01*
X136367447Y-114574207D01*
X136427788Y-114593102D01*
X136492690Y-114574045D01*
X136494633Y-114574517D01*
G37*
G36*
X135822963Y-114354648D02*
G01*
X135822832Y-114356036D01*
X135794402Y-114414880D01*
X135802772Y-114483628D01*
X135846976Y-114536932D01*
X135916240Y-114558087D01*
X135917605Y-114559550D01*
X135917020Y-114561462D01*
X135915656Y-114562000D01*
X135730199Y-114562000D01*
X135711262Y-114565767D01*
X135695380Y-114576380D01*
X135684767Y-114592262D01*
X135681000Y-114611199D01*
X135681000Y-115760801D01*
X135684767Y-115779738D01*
X135694814Y-115794773D01*
X135694945Y-115796768D01*
X135693282Y-115797880D01*
X135692553Y-115797793D01*
X135632212Y-115778898D01*
X135567310Y-115797955D01*
X135565367Y-115797483D01*
X135564803Y-115795564D01*
X135565084Y-115794925D01*
X135575233Y-115779737D01*
X135579000Y-115760801D01*
X135579000Y-114611199D01*
X135575233Y-114592262D01*
X135564620Y-114576380D01*
X135548738Y-114565767D01*
X135529801Y-114562000D01*
X135164478Y-114562000D01*
X135162746Y-114561000D01*
X135162746Y-114559000D01*
X135163915Y-114558081D01*
X135230927Y-114538405D01*
X135276282Y-114486062D01*
X135286140Y-114417500D01*
X135259782Y-114358621D01*
X135259987Y-114356632D01*
X135261812Y-114355815D01*
X135263021Y-114356390D01*
X135320182Y-114413551D01*
X135424437Y-114466672D01*
X135540000Y-114484975D01*
X135655563Y-114466672D01*
X135759818Y-114413551D01*
X135819617Y-114353752D01*
X135821549Y-114353234D01*
X135822963Y-114354648D01*
G37*
G36*
X136994633Y-114574517D02*
G01*
X136995197Y-114576436D01*
X136994916Y-114577075D01*
X136984767Y-114592263D01*
X136981000Y-114611199D01*
X136981000Y-115760801D01*
X136984767Y-115779738D01*
X136994814Y-115794773D01*
X136994945Y-115796768D01*
X136993282Y-115797880D01*
X136992553Y-115797793D01*
X136932212Y-115778898D01*
X136867310Y-115797955D01*
X136865367Y-115797483D01*
X136864803Y-115795564D01*
X136865084Y-115794925D01*
X136875233Y-115779737D01*
X136879000Y-115760801D01*
X136879000Y-114611199D01*
X136875233Y-114592262D01*
X136865186Y-114577227D01*
X136865055Y-114575232D01*
X136866718Y-114574120D01*
X136867447Y-114574207D01*
X136927788Y-114593102D01*
X136992690Y-114574045D01*
X136994633Y-114574517D01*
G37*
G36*
X134662919Y-114515247D02*
G01*
X134682596Y-114582262D01*
X134734939Y-114627617D01*
X134803492Y-114637474D01*
X134866637Y-114608636D01*
X134880929Y-114592437D01*
X134882825Y-114591800D01*
X134884325Y-114593123D01*
X134884391Y-114594150D01*
X134881000Y-114611199D01*
X134881000Y-115356707D01*
X134880000Y-115358439D01*
X134878000Y-115358439D01*
X134877081Y-115357270D01*
X134857405Y-115290258D01*
X134805062Y-115244903D01*
X134736509Y-115235046D01*
X134673468Y-115263836D01*
X134639317Y-115312258D01*
X134628673Y-115339556D01*
X134627112Y-115340806D01*
X134625249Y-115340079D01*
X134624889Y-115338271D01*
X134653109Y-115241136D01*
X134659000Y-115160922D01*
X134659000Y-114515810D01*
X134660000Y-114514078D01*
X134662000Y-114514078D01*
X134662919Y-114515247D01*
G37*
G36*
X142200222Y-114514227D02*
G01*
X142201000Y-114515810D01*
X142201000Y-115160868D01*
X142220796Y-115305386D01*
X142220041Y-115307237D01*
X142218059Y-115307509D01*
X142217219Y-115306862D01*
X142179238Y-115256575D01*
X142114242Y-115232649D01*
X142046631Y-115247661D01*
X141997840Y-115296872D01*
X141982939Y-115355778D01*
X141981545Y-115357212D01*
X141979606Y-115356722D01*
X141979000Y-115355288D01*
X141979000Y-114611199D01*
X141975233Y-114592262D01*
X141974948Y-114591835D01*
X141974817Y-114589839D01*
X141976480Y-114588728D01*
X141977894Y-114589189D01*
X142024947Y-114628511D01*
X142093662Y-114637142D01*
X142156137Y-114607252D01*
X142192621Y-114548190D01*
X142197018Y-114515543D01*
X142198240Y-114513960D01*
X142200222Y-114514227D01*
G37*
M02*
