%TF.GenerationSoftware,KiCad,Pcbnew,6.0.11+dfsg-1~bpo11+1*%
%TF.CreationDate,2023-05-10T08:43:11-04:00*%
%TF.ProjectId,proto-stm32f427,70726f74-6f2d-4737-946d-333266343237,rev?*%
%TF.SameCoordinates,Original*%
%TF.FileFunction,Paste,Top*%
%TF.FilePolarity,Positive*%
%FSLAX46Y46*%
G04 Gerber Fmt 4.6, Leading zero omitted, Abs format (unit mm)*
G04 Created by KiCad (PCBNEW 6.0.11+dfsg-1~bpo11+1) date 2023-05-10 08:43:11*
%MOMM*%
%LPD*%
G01*
G04 APERTURE LIST*
G04 Aperture macros list*
%AMRoundRect*
0 Rectangle with rounded corners*
0 $1 Rounding radius*
0 $2 $3 $4 $5 $6 $7 $8 $9 X,Y pos of 4 corners*
0 Add a 4 corners polygon primitive as box body*
4,1,4,$2,$3,$4,$5,$6,$7,$8,$9,$2,$3,0*
0 Add four circle primitives for the rounded corners*
1,1,$1+$1,$2,$3*
1,1,$1+$1,$4,$5*
1,1,$1+$1,$6,$7*
1,1,$1+$1,$8,$9*
0 Add four rect primitives between the rounded corners*
20,1,$1+$1,$2,$3,$4,$5,0*
20,1,$1+$1,$4,$5,$6,$7,0*
20,1,$1+$1,$6,$7,$8,$9,0*
20,1,$1+$1,$8,$9,$2,$3,0*%
%AMRotRect*
0 Rectangle, with rotation*
0 The origin of the aperture is its center*
0 $1 length*
0 $2 width*
0 $3 Rotation angle, in degrees counterclockwise*
0 Add horizontal line*
21,1,$1,$2,0,0,$3*%
G04 Aperture macros list end*
%ADD10RoundRect,0.250000X-0.450000X0.325000X-0.450000X-0.325000X0.450000X-0.325000X0.450000X0.325000X0*%
%ADD11RoundRect,0.250000X0.450000X-0.325000X0.450000X0.325000X-0.450000X0.325000X-0.450000X-0.325000X0*%
%ADD12RoundRect,0.250000X-0.450000X0.350000X-0.450000X-0.350000X0.450000X-0.350000X0.450000X0.350000X0*%
%ADD13RotRect,1.500000X0.280000X45.000000*%
%ADD14RotRect,1.500000X0.280000X135.000000*%
%ADD15RoundRect,0.250000X0.350000X0.450000X-0.350000X0.450000X-0.350000X-0.450000X0.350000X-0.450000X0*%
%ADD16R,1.000000X1.000000*%
%ADD17R,0.600000X1.150000*%
%ADD18R,0.300000X1.150000*%
G04 APERTURE END LIST*
D10*
X145034000Y-109719000D03*
X145034000Y-111769000D03*
X151892000Y-109719000D03*
X151892000Y-111769000D03*
D11*
X145700000Y-116425000D03*
X145700000Y-114375000D03*
D12*
X149606000Y-109744000D03*
X149606000Y-111744000D03*
X147320000Y-109744000D03*
X147320000Y-111744000D03*
D13*
X132157216Y-146377503D03*
X132510769Y-146731056D03*
X132864323Y-147084610D03*
X133217876Y-147438163D03*
X133571429Y-147791716D03*
X133924983Y-148145270D03*
X134278536Y-148498823D03*
X134632089Y-148852377D03*
X134985643Y-149205930D03*
X135339196Y-149559483D03*
X135692750Y-149913037D03*
X136046303Y-150266590D03*
X136399856Y-150620144D03*
X136753410Y-150973697D03*
X137106963Y-151327250D03*
X137460517Y-151680804D03*
X137814070Y-152034357D03*
X138167623Y-152387911D03*
X138521177Y-152741464D03*
X138874730Y-153095017D03*
X139228284Y-153448571D03*
X139581837Y-153802124D03*
X139935390Y-154155677D03*
X140288944Y-154509231D03*
X140642497Y-154862784D03*
D14*
X143329503Y-154862784D03*
X143683056Y-154509231D03*
X144036610Y-154155677D03*
X144390163Y-153802124D03*
X144743716Y-153448571D03*
X145097270Y-153095017D03*
X145450823Y-152741464D03*
X145804377Y-152387911D03*
X146157930Y-152034357D03*
X146511483Y-151680804D03*
X146865037Y-151327250D03*
X147218590Y-150973697D03*
X147572144Y-150620144D03*
X147925697Y-150266590D03*
X148279250Y-149913037D03*
X148632804Y-149559483D03*
X148986357Y-149205930D03*
X149339911Y-148852377D03*
X149693464Y-148498823D03*
X150047017Y-148145270D03*
X150400571Y-147791716D03*
X150754124Y-147438163D03*
X151107677Y-147084610D03*
X151461231Y-146731056D03*
X151814784Y-146377503D03*
D13*
X151814784Y-143690497D03*
X151461231Y-143336944D03*
X151107677Y-142983390D03*
X150754124Y-142629837D03*
X150400571Y-142276284D03*
X150047017Y-141922730D03*
X149693464Y-141569177D03*
X149339911Y-141215623D03*
X148986357Y-140862070D03*
X148632804Y-140508517D03*
X148279250Y-140154963D03*
X147925697Y-139801410D03*
X147572144Y-139447856D03*
X147218590Y-139094303D03*
X146865037Y-138740750D03*
X146511483Y-138387196D03*
X146157930Y-138033643D03*
X145804377Y-137680089D03*
X145450823Y-137326536D03*
X145097270Y-136972983D03*
X144743716Y-136619429D03*
X144390163Y-136265876D03*
X144036610Y-135912323D03*
X143683056Y-135558769D03*
X143329503Y-135205216D03*
D14*
X140642497Y-135205216D03*
X140288944Y-135558769D03*
X139935390Y-135912323D03*
X139581837Y-136265876D03*
X139228284Y-136619429D03*
X138874730Y-136972983D03*
X138521177Y-137326536D03*
X138167623Y-137680089D03*
X137814070Y-138033643D03*
X137460517Y-138387196D03*
X137106963Y-138740750D03*
X136753410Y-139094303D03*
X136399856Y-139447856D03*
X136046303Y-139801410D03*
X135692750Y-140154963D03*
X135339196Y-140508517D03*
X134985643Y-140862070D03*
X134632089Y-141215623D03*
X134278536Y-141569177D03*
X133924983Y-141922730D03*
X133571429Y-142276284D03*
X133217876Y-142629837D03*
X132864323Y-142983390D03*
X132510769Y-143336944D03*
X132157216Y-143690497D03*
D15*
X145018000Y-128778000D03*
X143018000Y-128778000D03*
D16*
X143490000Y-117856000D03*
X140990000Y-117856000D03*
D11*
X148400000Y-116425000D03*
X148400000Y-114375000D03*
D17*
X141630000Y-115186000D03*
X140830000Y-115186000D03*
D18*
X139680000Y-115186000D03*
X138680000Y-115186000D03*
X138180000Y-115186000D03*
X137180000Y-115186000D03*
D17*
X136030000Y-115186000D03*
X135230000Y-115186000D03*
X135230000Y-115186000D03*
X136030000Y-115186000D03*
D18*
X136680000Y-115186000D03*
X137680000Y-115186000D03*
X139180000Y-115186000D03*
X140180000Y-115186000D03*
D17*
X140830000Y-115186000D03*
X141630000Y-115186000D03*
D15*
X145000000Y-130600000D03*
X143000000Y-130600000D03*
M02*
