M48
; DRILL file {KiCad 6.0.11+dfsg-1~bpo11+1} date Wed 10 May 2023 08:44:09 AM EDT
; FORMAT={-:-/ absolute / metric / decimal}
; #@! TF.CreationDate,2023-05-10T08:44:09-04:00
; #@! TF.GenerationSoftware,Kicad,Pcbnew,6.0.11+dfsg-1~bpo11+1
; #@! TF.FileFunction,Plated,1,2,PTH
FMAT,2
METRIC
; #@! TA.AperFunction,Plated,PTH,ViaDrill
T1C0.400
; #@! TA.AperFunction,Plated,PTH,ComponentDrill
T2C0.600
; #@! TA.AperFunction,Plated,PTH,ComponentDrill
T3C0.800
; #@! TA.AperFunction,Plated,PTH,ComponentDrill
T4C1.000
; #@! TA.AperFunction,Plated,PTH,ComponentDrill
T5C3.000
%
G90
G05
T1
X125.3Y-138.1
X128.9Y-145.3
X128.905Y-146.685
X129.032Y-147.828
X129.121Y-149.371
X129.3Y-139.735
X130.868Y-152.792
X131.527Y-153.543
X133.788Y-144.212
X134.4Y-155.7
X134.974Y-143.239
X135.479Y-146.368
X135.699Y-142.421
X135.969Y-143.384
X136.137Y-148.479
X136.906Y-116.586
X137.1Y-143.7
X138.073Y-154.168
X138.5Y-150.8
X139.8Y-151.6
X139.954Y-116.586
X141.312Y-138.612
X141.8Y-130.7
X142.3Y-135.975
X142.5Y-137.5
X142.558Y-153.74
X142.935Y-152.814
X144.272Y-108.712
X144.526Y-112.776
X148.844Y-108.712
X150.5Y-145.8
X151.892Y-112.776
X152.389Y-144.274
X152.4Y-145.9
X154.103Y-138.904
X155.105Y-138.881
X155.7Y-142.8
T3
X136.652Y-159.204
X136.652Y-164.084
T4
X126.487Y-115.062
X126.487Y-117.602
X126.487Y-120.142
X126.487Y-122.682
X126.487Y-125.222
X126.487Y-127.762
X126.487Y-130.302
X126.487Y-132.842
X126.492Y-160.02
X126.492Y-162.56
X126.492Y-165.1
X126.492Y-167.64
X126.492Y-170.18
X126.492Y-172.72
X126.492Y-175.26
X126.492Y-177.8
X126.746Y-136.652
X129.027Y-115.062
X129.027Y-117.602
X129.027Y-120.142
X129.027Y-122.682
X129.027Y-125.222
X129.027Y-127.762
X129.027Y-130.302
X129.027Y-132.842
X129.032Y-160.02
X129.032Y-162.56
X129.032Y-165.1
X129.032Y-167.64
X129.032Y-170.18
X129.032Y-172.72
X129.032Y-175.26
X129.032Y-177.8
X129.286Y-136.652
X132.857Y-181.356
X132.857Y-183.896
X135.397Y-181.356
X135.397Y-183.896
X137.937Y-181.356
X137.937Y-183.896
X140.477Y-181.356
X140.477Y-183.896
X141.981Y-121.92
X141.986Y-125.476
X143.017Y-181.356
X143.017Y-183.896
X144.521Y-121.92
X144.526Y-125.476
X145.557Y-181.356
X145.557Y-183.896
X148.097Y-181.356
X148.097Y-183.896
X150.637Y-181.356
X150.637Y-183.896
X154.178Y-115.077
X154.178Y-117.617
X154.178Y-120.157
X154.178Y-122.697
X154.178Y-125.237
X154.178Y-127.777
X154.178Y-130.317
X154.178Y-132.857
X154.178Y-160.02
X154.178Y-162.56
X154.178Y-165.1
X154.178Y-167.64
X154.178Y-170.18
X154.178Y-172.72
X154.178Y-175.26
X154.178Y-177.8
X156.718Y-115.077
X156.718Y-117.617
X156.718Y-120.157
X156.718Y-122.697
X156.718Y-125.237
X156.718Y-127.777
X156.718Y-130.317
X156.718Y-132.857
X156.718Y-160.02
X156.718Y-162.56
X156.718Y-165.1
X156.718Y-167.64
X156.718Y-170.18
X156.718Y-172.72
X156.718Y-175.26
X156.718Y-177.8
T5
X127.4Y-110.49
X127.4Y-183.2
X155.956Y-110.49
X156.0Y-183.2
T2
X134.11Y-110.831G85X134.11Y-110.031
G05
X134.11Y-115.161G85X134.11Y-114.061
G05
X142.75Y-110.831G85X142.75Y-110.031
G05
X142.75Y-115.161G85X142.75Y-114.061
G05
T0
M30
