G04 #@! TF.GenerationSoftware,KiCad,Pcbnew,6.0.9+dfsg-1~bpo11+1*
G04 #@! TF.CreationDate,2022-12-29T09:56:33-05:00*
G04 #@! TF.ProjectId,io,696f2e6b-6963-4616-945f-706362585858,rev?*
G04 #@! TF.SameCoordinates,Original*
G04 #@! TF.FileFunction,Copper,L2,Bot*
G04 #@! TF.FilePolarity,Positive*
%FSLAX46Y46*%
G04 Gerber Fmt 4.6, Leading zero omitted, Abs format (unit mm)*
G04 Created by KiCad (PCBNEW 6.0.9+dfsg-1~bpo11+1) date 2022-12-29 09:56:33*
%MOMM*%
%LPD*%
G01*
G04 APERTURE LIST*
G04 #@! TA.AperFunction,ComponentPad*
%ADD10R,1.700000X1.700000*%
G04 #@! TD*
G04 #@! TA.AperFunction,ComponentPad*
%ADD11O,1.700000X1.700000*%
G04 #@! TD*
G04 #@! TA.AperFunction,ComponentPad*
%ADD12R,2.000000X1.905000*%
G04 #@! TD*
G04 #@! TA.AperFunction,ComponentPad*
%ADD13O,2.000000X1.905000*%
G04 #@! TD*
G04 #@! TA.AperFunction,ComponentPad*
%ADD14C,1.600000*%
G04 #@! TD*
G04 #@! TA.AperFunction,ComponentPad*
%ADD15O,1.600000X1.600000*%
G04 #@! TD*
G04 #@! TA.AperFunction,ComponentPad*
%ADD16C,4.000000*%
G04 #@! TD*
G04 #@! TA.AperFunction,ViaPad*
%ADD17C,0.600000*%
G04 #@! TD*
G04 #@! TA.AperFunction,Conductor*
%ADD18C,1.000000*%
G04 #@! TD*
G04 #@! TA.AperFunction,Conductor*
%ADD19C,0.250000*%
G04 #@! TD*
G04 APERTURE END LIST*
D10*
G04 #@! TO.P,P1,1,P1*
G04 #@! TO.N,IG1-cpu*
X61150000Y-145790000D03*
D11*
G04 #@! TO.P,P1,2,P2*
G04 #@! TO.N,IG2-cpu*
X61150000Y-148330000D03*
G04 #@! TO.P,P1,3,P3*
G04 #@! TO.N,IG3-cpu*
X61150000Y-150870000D03*
G04 #@! TO.P,P1,4,P4*
G04 #@! TO.N,IG4-cpu*
X61150000Y-153410000D03*
G04 #@! TD*
D10*
G04 #@! TO.P,P2,1,P1*
G04 #@! TO.N,5v*
X63660000Y-130400000D03*
D11*
G04 #@! TO.P,P2,2,P2*
G04 #@! TO.N,TRIG2*
X66200000Y-130400000D03*
G04 #@! TO.P,P2,3,P3*
G04 #@! TO.N,TRIG1*
X68740000Y-130400000D03*
G04 #@! TO.P,P2,4,P4*
G04 #@! TO.N,GND*
X71280000Y-130400000D03*
G04 #@! TD*
D10*
G04 #@! TO.P,P5,1,P1*
G04 #@! TO.N,IG1-out*
X103200000Y-143800000D03*
D11*
G04 #@! TO.P,P5,2,P2*
G04 #@! TO.N,IG2-out*
X103200000Y-146340000D03*
G04 #@! TO.P,P5,3,P3*
G04 #@! TO.N,IG3-out*
X103200000Y-148880000D03*
G04 #@! TO.P,P5,4,P4*
G04 #@! TO.N,IG4-out*
X103200000Y-151420000D03*
G04 #@! TD*
D10*
G04 #@! TO.P,P6,1,P1*
G04 #@! TO.N,TRIG1IN-*
X103100000Y-132300000D03*
D11*
G04 #@! TO.P,P6,2,P2*
G04 #@! TO.N,TRIG1IN+*
X103100000Y-134840000D03*
G04 #@! TO.P,P6,3,P3*
G04 #@! TO.N,TRIG2IN-*
X103100000Y-137380000D03*
G04 #@! TO.P,P6,4,P4*
G04 #@! TO.N,TRIG2IN+*
X103100000Y-139920000D03*
G04 #@! TD*
D10*
G04 #@! TO.P,P7,1,P1*
G04 #@! TO.N,12v_power*
X48600000Y-128922500D03*
D11*
G04 #@! TO.P,P7,2,P2*
X46060000Y-128922500D03*
G04 #@! TO.P,P7,3,P3*
G04 #@! TO.N,GND*
X43520000Y-128922500D03*
G04 #@! TO.P,P7,4,P4*
X40980000Y-128922500D03*
G04 #@! TD*
D12*
G04 #@! TO.P,U1,1,VI*
G04 #@! TO.N,12v_power*
X53100000Y-139600000D03*
D13*
G04 #@! TO.P,U1,2,GND*
G04 #@! TO.N,GND*
X53100000Y-137060000D03*
G04 #@! TO.P,U1,3,VO*
G04 #@! TO.N,5v*
X53100000Y-134520000D03*
G04 #@! TD*
D14*
G04 #@! TO.P,R31,1*
G04 #@! TO.N,TRIG1IN+*
X98800000Y-131100000D03*
D15*
G04 #@! TO.P,R31,2*
G04 #@! TO.N,TRIG1IN-*
X98800000Y-128560000D03*
G04 #@! TD*
D16*
G04 #@! TO.P,REF\u002A\u002A,1*
G04 #@! TO.N,N/C*
X35770000Y-155980000D03*
G04 #@! TD*
D10*
G04 #@! TO.P,P4,1,P1*
G04 #@! TO.N,5v*
X39780000Y-152420000D03*
D11*
G04 #@! TO.P,P4,2,P2*
X39780000Y-149880000D03*
G04 #@! TO.P,P4,3,P3*
G04 #@! TO.N,GND*
X39780000Y-147340000D03*
G04 #@! TO.P,P4,4,P4*
X39780000Y-144800000D03*
G04 #@! TD*
D10*
G04 #@! TO.P,J1,1,Pin_1*
G04 #@! TO.N,DIG1-in*
X80180000Y-154190000D03*
D11*
G04 #@! TO.P,J1,2,Pin_2*
G04 #@! TO.N,DIG2-in*
X77640000Y-154190000D03*
G04 #@! TD*
D16*
G04 #@! TO.P,REF\u002A\u002A,1*
G04 #@! TO.N,N/C*
X107440000Y-128100000D03*
G04 #@! TD*
D10*
G04 #@! TO.P,P3,1,P1*
G04 #@! TO.N,GND*
X51940000Y-154150000D03*
D11*
G04 #@! TO.P,P3,2,P2*
G04 #@! TO.N,DIG1-cpu*
X49400000Y-154150000D03*
G04 #@! TO.P,P3,3,P3*
G04 #@! TO.N,DIG2-cpu*
X46860000Y-154150000D03*
G04 #@! TO.P,P3,4,P4*
G04 #@! TO.N,5v*
X44320000Y-154150000D03*
G04 #@! TD*
D14*
G04 #@! TO.P,R32,1*
G04 #@! TO.N,TRIG2IN-*
X98800000Y-136300000D03*
D15*
G04 #@! TO.P,R32,2*
G04 #@! TO.N,TRIG2IN+*
X98800000Y-138840000D03*
G04 #@! TD*
D16*
G04 #@! TO.P,REF\u002A\u002A,1*
G04 #@! TO.N,N/C*
X35740000Y-128130000D03*
G04 #@! TD*
G04 #@! TO.P,REF\u002A\u002A,1*
G04 #@! TO.N,N/C*
X107500000Y-156000000D03*
G04 #@! TD*
D17*
G04 #@! TO.N,GND*
X83080000Y-134380000D03*
X55640000Y-144540000D03*
X76430000Y-142930000D03*
X82980000Y-133030000D03*
X83095500Y-135250000D03*
X101290000Y-148240000D03*
X101410000Y-150660000D03*
X82110000Y-148940000D03*
X72730000Y-152220000D03*
X85380000Y-127060000D03*
X99960000Y-142130000D03*
X59780000Y-129150000D03*
X76410000Y-148970000D03*
X50140000Y-145780000D03*
X84720000Y-139850000D03*
X72540000Y-141060000D03*
X83030000Y-131970000D03*
X84960000Y-135210000D03*
X101260000Y-145740000D03*
X79850000Y-126940000D03*
X82760000Y-127060000D03*
X76360000Y-145420000D03*
X84990000Y-134030000D03*
G04 #@! TO.N,Net-(D3-Pad3)*
X47750000Y-142880000D03*
X46280000Y-143410000D03*
G04 #@! TD*
D18*
G04 #@! TO.N,5v*
X39800000Y-152400000D02*
X42540000Y-152400000D01*
X42540000Y-152400000D02*
X44270000Y-154130000D01*
D19*
G04 #@! TO.N,Net-(D3-Pad3)*
X46810000Y-142880000D02*
X46280000Y-143410000D01*
X47750000Y-142880000D02*
X46810000Y-142880000D01*
G04 #@! TD*
G04 #@! TA.AperFunction,Conductor*
G04 #@! TO.N,GND*
G36*
X106342387Y-125628502D02*
G01*
X106388880Y-125682158D01*
X106398984Y-125752432D01*
X106369490Y-125817012D01*
X106334967Y-125844914D01*
X106096693Y-125975907D01*
X106093221Y-125977816D01*
X105837860Y-126163346D01*
X105607767Y-126379418D01*
X105406568Y-126622625D01*
X105237438Y-126889131D01*
X105235754Y-126892710D01*
X105235750Y-126892717D01*
X105110126Y-127159683D01*
X105103044Y-127174734D01*
X105101818Y-127178506D01*
X105101818Y-127178507D01*
X105073397Y-127265978D01*
X105005505Y-127474928D01*
X104946359Y-127784980D01*
X104926540Y-128100000D01*
X104946359Y-128415020D01*
X105005505Y-128725072D01*
X105024199Y-128782607D01*
X105099457Y-129014225D01*
X105103044Y-129025266D01*
X105104731Y-129028852D01*
X105104733Y-129028856D01*
X105235750Y-129307283D01*
X105235754Y-129307290D01*
X105237438Y-129310869D01*
X105239562Y-129314215D01*
X105239562Y-129314216D01*
X105249667Y-129330139D01*
X105406568Y-129577375D01*
X105409093Y-129580427D01*
X105598444Y-129809312D01*
X105607767Y-129820582D01*
X105837860Y-130036654D01*
X105841062Y-130038981D01*
X105841064Y-130038982D01*
X105844297Y-130041331D01*
X106093221Y-130222184D01*
X106096690Y-130224091D01*
X106096693Y-130224093D01*
X106206123Y-130284253D01*
X106369821Y-130374247D01*
X106373490Y-130375700D01*
X106373495Y-130375702D01*
X106603052Y-130466590D01*
X106663298Y-130490443D01*
X106969025Y-130568940D01*
X107282179Y-130608500D01*
X107597821Y-130608500D01*
X107910975Y-130568940D01*
X108216702Y-130490443D01*
X108276948Y-130466590D01*
X108506505Y-130375702D01*
X108506510Y-130375700D01*
X108510179Y-130374247D01*
X108673877Y-130284253D01*
X108783307Y-130224093D01*
X108783310Y-130224091D01*
X108786779Y-130222184D01*
X109035703Y-130041331D01*
X109038936Y-130038982D01*
X109038938Y-130038981D01*
X109042140Y-130036654D01*
X109272233Y-129820582D01*
X109281557Y-129809312D01*
X109470907Y-129580427D01*
X109473432Y-129577375D01*
X109630333Y-129330139D01*
X109640438Y-129314216D01*
X109640438Y-129314215D01*
X109642562Y-129310869D01*
X109644246Y-129307290D01*
X109644250Y-129307283D01*
X109751492Y-129079380D01*
X109798594Y-129026259D01*
X109866939Y-129007036D01*
X109934827Y-129027815D01*
X109980704Y-129081998D01*
X109991500Y-129133028D01*
X109991500Y-154839465D01*
X109971498Y-154907586D01*
X109917842Y-154954079D01*
X109847568Y-154964183D01*
X109782988Y-154934689D01*
X109751492Y-154893113D01*
X109702562Y-154789131D01*
X109533432Y-154522625D01*
X109348558Y-154299151D01*
X109334758Y-154282470D01*
X109334757Y-154282469D01*
X109332233Y-154279418D01*
X109102140Y-154063346D01*
X108846779Y-153877816D01*
X108814633Y-153860143D01*
X108573648Y-153727660D01*
X108573647Y-153727659D01*
X108570179Y-153725753D01*
X108566510Y-153724300D01*
X108566505Y-153724298D01*
X108280372Y-153611010D01*
X108280371Y-153611010D01*
X108276702Y-153609557D01*
X107970975Y-153531060D01*
X107657821Y-153491500D01*
X107342179Y-153491500D01*
X107029025Y-153531060D01*
X106723298Y-153609557D01*
X106719629Y-153611010D01*
X106719628Y-153611010D01*
X106433495Y-153724298D01*
X106433490Y-153724300D01*
X106429821Y-153725753D01*
X106426353Y-153727659D01*
X106426352Y-153727660D01*
X106185368Y-153860143D01*
X106153221Y-153877816D01*
X105897860Y-154063346D01*
X105667767Y-154279418D01*
X105665243Y-154282469D01*
X105665242Y-154282470D01*
X105651442Y-154299151D01*
X105466568Y-154522625D01*
X105297438Y-154789131D01*
X105295754Y-154792710D01*
X105295750Y-154792717D01*
X105164733Y-155071144D01*
X105163044Y-155074734D01*
X105065505Y-155374928D01*
X105006359Y-155684980D01*
X104986540Y-156000000D01*
X105006359Y-156315020D01*
X105065505Y-156625072D01*
X105163044Y-156925266D01*
X105164731Y-156928852D01*
X105164733Y-156928856D01*
X105295750Y-157207283D01*
X105295754Y-157207290D01*
X105297438Y-157210869D01*
X105466568Y-157477375D01*
X105469093Y-157480427D01*
X105653468Y-157703297D01*
X105667767Y-157720582D01*
X105897860Y-157936654D01*
X106153221Y-158122184D01*
X106156690Y-158124091D01*
X106156693Y-158124093D01*
X106394967Y-158255086D01*
X106445026Y-158305431D01*
X106459919Y-158374848D01*
X106434918Y-158441297D01*
X106377961Y-158483681D01*
X106334266Y-158491500D01*
X36899097Y-158491500D01*
X36830976Y-158471498D01*
X36784483Y-158417842D01*
X36774379Y-158347568D01*
X36803873Y-158282988D01*
X36840659Y-158255120D01*
X36840179Y-158254247D01*
X37113307Y-158104093D01*
X37113310Y-158104091D01*
X37116779Y-158102184D01*
X37372140Y-157916654D01*
X37602233Y-157700582D01*
X37803432Y-157457375D01*
X37972562Y-157190869D01*
X37974246Y-157187290D01*
X37974250Y-157187283D01*
X38105267Y-156908856D01*
X38105269Y-156908852D01*
X38106956Y-156905266D01*
X38204495Y-156605072D01*
X38263641Y-156295020D01*
X38283460Y-155980000D01*
X38263641Y-155664980D01*
X38204495Y-155354928D01*
X38140417Y-155157715D01*
X38108182Y-155058507D01*
X38108182Y-155058506D01*
X38106956Y-155054734D01*
X38104266Y-155049017D01*
X37974250Y-154772717D01*
X37974246Y-154772710D01*
X37972562Y-154769131D01*
X37803432Y-154502625D01*
X37618947Y-154279622D01*
X37604758Y-154262470D01*
X37604757Y-154262469D01*
X37602233Y-154259418D01*
X37372140Y-154043346D01*
X37116779Y-153857816D01*
X37052404Y-153822425D01*
X36843648Y-153707660D01*
X36843647Y-153707659D01*
X36840179Y-153705753D01*
X36836510Y-153704300D01*
X36836505Y-153704298D01*
X36550372Y-153591010D01*
X36550371Y-153591010D01*
X36546702Y-153589557D01*
X36240975Y-153511060D01*
X35927821Y-153471500D01*
X35612179Y-153471500D01*
X35299025Y-153511060D01*
X34993298Y-153589557D01*
X34989629Y-153591010D01*
X34989628Y-153591010D01*
X34703495Y-153704298D01*
X34703490Y-153704300D01*
X34699821Y-153705753D01*
X34696353Y-153707659D01*
X34696352Y-153707660D01*
X34487597Y-153822425D01*
X34423221Y-153857816D01*
X34167860Y-154043346D01*
X33937767Y-154259418D01*
X33935243Y-154262469D01*
X33935242Y-154262470D01*
X33921053Y-154279622D01*
X33736568Y-154502625D01*
X33567438Y-154769131D01*
X33565754Y-154772710D01*
X33565750Y-154772717D01*
X33448508Y-155021871D01*
X33401406Y-155074992D01*
X33333061Y-155094215D01*
X33265173Y-155073436D01*
X33219296Y-155019253D01*
X33208500Y-154968223D01*
X33208500Y-149846695D01*
X38417251Y-149846695D01*
X38417548Y-149851848D01*
X38417548Y-149851851D01*
X38428077Y-150034457D01*
X38430110Y-150069715D01*
X38431247Y-150074761D01*
X38431248Y-150074767D01*
X38448010Y-150149144D01*
X38479222Y-150287639D01*
X38563266Y-150494616D01*
X38565965Y-150499020D01*
X38660031Y-150652522D01*
X38679987Y-150685088D01*
X38826250Y-150853938D01*
X38830230Y-150857242D01*
X38834981Y-150861187D01*
X38874616Y-150920090D01*
X38876113Y-150991071D01*
X38838997Y-151051593D01*
X38798724Y-151076112D01*
X38683295Y-151119385D01*
X38566739Y-151206739D01*
X38479385Y-151323295D01*
X38428255Y-151459684D01*
X38421500Y-151521866D01*
X38421500Y-153318134D01*
X38428255Y-153380316D01*
X38479385Y-153516705D01*
X38566739Y-153633261D01*
X38683295Y-153720615D01*
X38819684Y-153771745D01*
X38881866Y-153778500D01*
X40678134Y-153778500D01*
X40740316Y-153771745D01*
X40876705Y-153720615D01*
X40993261Y-153633261D01*
X41022276Y-153594547D01*
X41075233Y-153523887D01*
X41075235Y-153523884D01*
X41080615Y-153516705D01*
X41090526Y-153490268D01*
X41133168Y-153433505D01*
X41199729Y-153408806D01*
X41208507Y-153408500D01*
X42070075Y-153408500D01*
X42138196Y-153428502D01*
X42159170Y-153445405D01*
X42931075Y-154217310D01*
X42965101Y-154279622D01*
X42967771Y-154299151D01*
X42970110Y-154339715D01*
X42971247Y-154344761D01*
X42971248Y-154344767D01*
X42985606Y-154408475D01*
X43019222Y-154557639D01*
X43103266Y-154764616D01*
X43149133Y-154839465D01*
X43217291Y-154950688D01*
X43219987Y-154955088D01*
X43366250Y-155123938D01*
X43538126Y-155266632D01*
X43731000Y-155379338D01*
X43939692Y-155459030D01*
X43944760Y-155460061D01*
X43944763Y-155460062D01*
X44052017Y-155481883D01*
X44158597Y-155503567D01*
X44163772Y-155503757D01*
X44163774Y-155503757D01*
X44376673Y-155511564D01*
X44376677Y-155511564D01*
X44381837Y-155511753D01*
X44386957Y-155511097D01*
X44386959Y-155511097D01*
X44598288Y-155484025D01*
X44598289Y-155484025D01*
X44603416Y-155483368D01*
X44679102Y-155460661D01*
X44812429Y-155420661D01*
X44812434Y-155420659D01*
X44817384Y-155419174D01*
X45017994Y-155320896D01*
X45199860Y-155191173D01*
X45227191Y-155163938D01*
X45332990Y-155058507D01*
X45358096Y-155033489D01*
X45417594Y-154950689D01*
X45488453Y-154852077D01*
X45489776Y-154853028D01*
X45536645Y-154809857D01*
X45606580Y-154797625D01*
X45672026Y-154825144D01*
X45699875Y-154856994D01*
X45759987Y-154955088D01*
X45906250Y-155123938D01*
X46078126Y-155266632D01*
X46271000Y-155379338D01*
X46479692Y-155459030D01*
X46484760Y-155460061D01*
X46484763Y-155460062D01*
X46592017Y-155481883D01*
X46698597Y-155503567D01*
X46703772Y-155503757D01*
X46703774Y-155503757D01*
X46916673Y-155511564D01*
X46916677Y-155511564D01*
X46921837Y-155511753D01*
X46926957Y-155511097D01*
X46926959Y-155511097D01*
X47138288Y-155484025D01*
X47138289Y-155484025D01*
X47143416Y-155483368D01*
X47219102Y-155460661D01*
X47352429Y-155420661D01*
X47352434Y-155420659D01*
X47357384Y-155419174D01*
X47557994Y-155320896D01*
X47739860Y-155191173D01*
X47767191Y-155163938D01*
X47872990Y-155058507D01*
X47898096Y-155033489D01*
X47957594Y-154950689D01*
X48028453Y-154852077D01*
X48029776Y-154853028D01*
X48076645Y-154809857D01*
X48146580Y-154797625D01*
X48212026Y-154825144D01*
X48239875Y-154856994D01*
X48299987Y-154955088D01*
X48446250Y-155123938D01*
X48618126Y-155266632D01*
X48811000Y-155379338D01*
X49019692Y-155459030D01*
X49024760Y-155460061D01*
X49024763Y-155460062D01*
X49132017Y-155481883D01*
X49238597Y-155503567D01*
X49243772Y-155503757D01*
X49243774Y-155503757D01*
X49456673Y-155511564D01*
X49456677Y-155511564D01*
X49461837Y-155511753D01*
X49466957Y-155511097D01*
X49466959Y-155511097D01*
X49678288Y-155484025D01*
X49678289Y-155484025D01*
X49683416Y-155483368D01*
X49759102Y-155460661D01*
X49892429Y-155420661D01*
X49892434Y-155420659D01*
X49897384Y-155419174D01*
X50097994Y-155320896D01*
X50279860Y-155191173D01*
X50307191Y-155163938D01*
X50388479Y-155082933D01*
X50450851Y-155049017D01*
X50521658Y-155054205D01*
X50578419Y-155096851D01*
X50595401Y-155127954D01*
X50636676Y-155238054D01*
X50645214Y-155253649D01*
X50721715Y-155355724D01*
X50734276Y-155368285D01*
X50836351Y-155444786D01*
X50851946Y-155453324D01*
X50972394Y-155498478D01*
X50987649Y-155502105D01*
X51038514Y-155507631D01*
X51045328Y-155508000D01*
X51667885Y-155508000D01*
X51683124Y-155503525D01*
X51684329Y-155502135D01*
X51686000Y-155494452D01*
X51686000Y-155489884D01*
X52194000Y-155489884D01*
X52198475Y-155505123D01*
X52199865Y-155506328D01*
X52207548Y-155507999D01*
X52834669Y-155507999D01*
X52841490Y-155507629D01*
X52892352Y-155502105D01*
X52907604Y-155498479D01*
X53028054Y-155453324D01*
X53043649Y-155444786D01*
X53145724Y-155368285D01*
X53158285Y-155355724D01*
X53234786Y-155253649D01*
X53243324Y-155238054D01*
X53288478Y-155117606D01*
X53292105Y-155102351D01*
X53297631Y-155051486D01*
X53298000Y-155044672D01*
X53298000Y-154422115D01*
X53293525Y-154406876D01*
X53292135Y-154405671D01*
X53284452Y-154404000D01*
X52212115Y-154404000D01*
X52196876Y-154408475D01*
X52195671Y-154409865D01*
X52194000Y-154417548D01*
X52194000Y-155489884D01*
X51686000Y-155489884D01*
X51686000Y-153877885D01*
X52194000Y-153877885D01*
X52198475Y-153893124D01*
X52199865Y-153894329D01*
X52207548Y-153896000D01*
X53279884Y-153896000D01*
X53295123Y-153891525D01*
X53296328Y-153890135D01*
X53297999Y-153882452D01*
X53297999Y-153376695D01*
X59787251Y-153376695D01*
X59787548Y-153381848D01*
X59787548Y-153381851D01*
X59795234Y-153515150D01*
X59800110Y-153599715D01*
X59801247Y-153604761D01*
X59801248Y-153604767D01*
X59814013Y-153661406D01*
X59849222Y-153817639D01*
X59933266Y-154024616D01*
X60049987Y-154215088D01*
X60196250Y-154383938D01*
X60272846Y-154447529D01*
X60363300Y-154522625D01*
X60368126Y-154526632D01*
X60561000Y-154639338D01*
X60769692Y-154719030D01*
X60774760Y-154720061D01*
X60774763Y-154720062D01*
X60882017Y-154741883D01*
X60988597Y-154763567D01*
X60993772Y-154763757D01*
X60993774Y-154763757D01*
X61206673Y-154771564D01*
X61206677Y-154771564D01*
X61211837Y-154771753D01*
X61216957Y-154771097D01*
X61216959Y-154771097D01*
X61428288Y-154744025D01*
X61428289Y-154744025D01*
X61433416Y-154743368D01*
X61438366Y-154741883D01*
X61642429Y-154680661D01*
X61642434Y-154680659D01*
X61647384Y-154679174D01*
X61847994Y-154580896D01*
X62029860Y-154451173D01*
X62072708Y-154408475D01*
X62184435Y-154297137D01*
X62188096Y-154293489D01*
X62198061Y-154279622D01*
X62286392Y-154156695D01*
X76277251Y-154156695D01*
X76277548Y-154161848D01*
X76277548Y-154161851D01*
X76283017Y-154256703D01*
X76290110Y-154379715D01*
X76291247Y-154384761D01*
X76291248Y-154384767D01*
X76315304Y-154491508D01*
X76339222Y-154597639D01*
X76423266Y-154804616D01*
X76452350Y-154852077D01*
X76502975Y-154934689D01*
X76539987Y-154995088D01*
X76686250Y-155163938D01*
X76858126Y-155306632D01*
X77051000Y-155419338D01*
X77259692Y-155499030D01*
X77264760Y-155500061D01*
X77264763Y-155500062D01*
X77321298Y-155511564D01*
X77478597Y-155543567D01*
X77483772Y-155543757D01*
X77483774Y-155543757D01*
X77696673Y-155551564D01*
X77696677Y-155551564D01*
X77701837Y-155551753D01*
X77706957Y-155551097D01*
X77706959Y-155551097D01*
X77918288Y-155524025D01*
X77918289Y-155524025D01*
X77923416Y-155523368D01*
X77928366Y-155521883D01*
X78132429Y-155460661D01*
X78132434Y-155460659D01*
X78137384Y-155459174D01*
X78337994Y-155360896D01*
X78519860Y-155231173D01*
X78628091Y-155123319D01*
X78690462Y-155089404D01*
X78761268Y-155094592D01*
X78818030Y-155137238D01*
X78835012Y-155168341D01*
X78866993Y-155253649D01*
X78879385Y-155286705D01*
X78966739Y-155403261D01*
X79083295Y-155490615D01*
X79219684Y-155541745D01*
X79281866Y-155548500D01*
X81078134Y-155548500D01*
X81140316Y-155541745D01*
X81276705Y-155490615D01*
X81393261Y-155403261D01*
X81480615Y-155286705D01*
X81531745Y-155150316D01*
X81538500Y-155088134D01*
X81538500Y-153291866D01*
X81531745Y-153229684D01*
X81480615Y-153093295D01*
X81393261Y-152976739D01*
X81276705Y-152889385D01*
X81140316Y-152838255D01*
X81078134Y-152831500D01*
X79281866Y-152831500D01*
X79219684Y-152838255D01*
X79083295Y-152889385D01*
X78966739Y-152976739D01*
X78879385Y-153093295D01*
X78876233Y-153101703D01*
X78834919Y-153211907D01*
X78792277Y-153268671D01*
X78725716Y-153293371D01*
X78656367Y-153278163D01*
X78623743Y-153252476D01*
X78573151Y-153196875D01*
X78573142Y-153196866D01*
X78569670Y-153193051D01*
X78565619Y-153189852D01*
X78565615Y-153189848D01*
X78398414Y-153057800D01*
X78398410Y-153057798D01*
X78394359Y-153054598D01*
X78198789Y-152946638D01*
X78193920Y-152944914D01*
X78193916Y-152944912D01*
X77993087Y-152873795D01*
X77993083Y-152873794D01*
X77988212Y-152872069D01*
X77983119Y-152871162D01*
X77983116Y-152871161D01*
X77773373Y-152833800D01*
X77773367Y-152833799D01*
X77768284Y-152832894D01*
X77694452Y-152831992D01*
X77550081Y-152830228D01*
X77550079Y-152830228D01*
X77544911Y-152830165D01*
X77324091Y-152863955D01*
X77111756Y-152933357D01*
X77081443Y-152949137D01*
X76984482Y-152999612D01*
X76913607Y-153036507D01*
X76909474Y-153039610D01*
X76909471Y-153039612D01*
X76739100Y-153167530D01*
X76734965Y-153170635D01*
X76709151Y-153197648D01*
X76594012Y-153318134D01*
X76580629Y-153332138D01*
X76577715Y-153336410D01*
X76577714Y-153336411D01*
X76502239Y-153447054D01*
X76454743Y-153516680D01*
X76411631Y-153609557D01*
X76366979Y-153705753D01*
X76360688Y-153719305D01*
X76300989Y-153934570D01*
X76277251Y-154156695D01*
X62286392Y-154156695D01*
X62315435Y-154116277D01*
X62318453Y-154112077D01*
X62341198Y-154066057D01*
X62415136Y-153916453D01*
X62415137Y-153916451D01*
X62417430Y-153911811D01*
X62475918Y-153719305D01*
X62480865Y-153703023D01*
X62480865Y-153703021D01*
X62482370Y-153698069D01*
X62511529Y-153476590D01*
X62511641Y-153471997D01*
X62513074Y-153413365D01*
X62513074Y-153413361D01*
X62513156Y-153410000D01*
X62494852Y-153187361D01*
X62440431Y-152970702D01*
X62351354Y-152765840D01*
X62277178Y-152651181D01*
X62232822Y-152582617D01*
X62232820Y-152582614D01*
X62230014Y-152578277D01*
X62079670Y-152413051D01*
X62075619Y-152409852D01*
X62075615Y-152409848D01*
X61908414Y-152277800D01*
X61908410Y-152277798D01*
X61904359Y-152274598D01*
X61863053Y-152251796D01*
X61813084Y-152201364D01*
X61798312Y-152131921D01*
X61823428Y-152065516D01*
X61850780Y-152038909D01*
X61894603Y-152007650D01*
X62029860Y-151911173D01*
X62188096Y-151753489D01*
X62220734Y-151708069D01*
X62315435Y-151576277D01*
X62318453Y-151572077D01*
X62321965Y-151564972D01*
X62410074Y-151386695D01*
X101837251Y-151386695D01*
X101837548Y-151391848D01*
X101837548Y-151391851D01*
X101847940Y-151572077D01*
X101850110Y-151609715D01*
X101851247Y-151614761D01*
X101851248Y-151614767D01*
X101865722Y-151678990D01*
X101899222Y-151827639D01*
X101983266Y-152034616D01*
X102099987Y-152225088D01*
X102246250Y-152393938D01*
X102418126Y-152536632D01*
X102611000Y-152649338D01*
X102819692Y-152729030D01*
X102824760Y-152730061D01*
X102824763Y-152730062D01*
X102880369Y-152741375D01*
X103038597Y-152773567D01*
X103043772Y-152773757D01*
X103043774Y-152773757D01*
X103256673Y-152781564D01*
X103256677Y-152781564D01*
X103261837Y-152781753D01*
X103266957Y-152781097D01*
X103266959Y-152781097D01*
X103478288Y-152754025D01*
X103478289Y-152754025D01*
X103483416Y-152753368D01*
X103488366Y-152751883D01*
X103692429Y-152690661D01*
X103692434Y-152690659D01*
X103697384Y-152689174D01*
X103897994Y-152590896D01*
X104079860Y-152461173D01*
X104128151Y-152413051D01*
X104234435Y-152307137D01*
X104238096Y-152303489D01*
X104273573Y-152254118D01*
X104365435Y-152126277D01*
X104368453Y-152122077D01*
X104379692Y-152099338D01*
X104465136Y-151926453D01*
X104465137Y-151926451D01*
X104467430Y-151921811D01*
X104518570Y-151753489D01*
X104530865Y-151713023D01*
X104530865Y-151713021D01*
X104532370Y-151708069D01*
X104561529Y-151486590D01*
X104561958Y-151469029D01*
X104563074Y-151423365D01*
X104563074Y-151423361D01*
X104563156Y-151420000D01*
X104544852Y-151197361D01*
X104490431Y-150980702D01*
X104401354Y-150775840D01*
X104280014Y-150588277D01*
X104129670Y-150423051D01*
X104125619Y-150419852D01*
X104125615Y-150419848D01*
X103958414Y-150287800D01*
X103958410Y-150287798D01*
X103954359Y-150284598D01*
X103913053Y-150261796D01*
X103863084Y-150211364D01*
X103848312Y-150141921D01*
X103873428Y-150075516D01*
X103900780Y-150048909D01*
X103957570Y-150008401D01*
X104079860Y-149921173D01*
X104128151Y-149873051D01*
X104234435Y-149767137D01*
X104238096Y-149763489D01*
X104273573Y-149714118D01*
X104365435Y-149586277D01*
X104368453Y-149582077D01*
X104379692Y-149559338D01*
X104465136Y-149386453D01*
X104465137Y-149386451D01*
X104467430Y-149381811D01*
X104519213Y-149211375D01*
X104530865Y-149173023D01*
X104530865Y-149173021D01*
X104532370Y-149168069D01*
X104561529Y-148946590D01*
X104563156Y-148880000D01*
X104544852Y-148657361D01*
X104490431Y-148440702D01*
X104401354Y-148235840D01*
X104280014Y-148048277D01*
X104129670Y-147883051D01*
X104125619Y-147879852D01*
X104125615Y-147879848D01*
X103958414Y-147747800D01*
X103958410Y-147747798D01*
X103954359Y-147744598D01*
X103913053Y-147721796D01*
X103863084Y-147671364D01*
X103848312Y-147601921D01*
X103873428Y-147535516D01*
X103900780Y-147508909D01*
X103957570Y-147468401D01*
X104079860Y-147381173D01*
X104124702Y-147336488D01*
X104234435Y-147227137D01*
X104238096Y-147223489D01*
X104297594Y-147140689D01*
X104365435Y-147046277D01*
X104368453Y-147042077D01*
X104391186Y-146996081D01*
X104465136Y-146846453D01*
X104465137Y-146846451D01*
X104467430Y-146841811D01*
X104532370Y-146628069D01*
X104561529Y-146406590D01*
X104563156Y-146340000D01*
X104544852Y-146117361D01*
X104490431Y-145900702D01*
X104401354Y-145695840D01*
X104280014Y-145508277D01*
X104276532Y-145504450D01*
X104132798Y-145346488D01*
X104101746Y-145282642D01*
X104110141Y-145212143D01*
X104155317Y-145157375D01*
X104181761Y-145143706D01*
X104288297Y-145103767D01*
X104296705Y-145100615D01*
X104413261Y-145013261D01*
X104500615Y-144896705D01*
X104551745Y-144760316D01*
X104558500Y-144698134D01*
X104558500Y-142901866D01*
X104551745Y-142839684D01*
X104500615Y-142703295D01*
X104413261Y-142586739D01*
X104296705Y-142499385D01*
X104160316Y-142448255D01*
X104098134Y-142441500D01*
X102301866Y-142441500D01*
X102239684Y-142448255D01*
X102103295Y-142499385D01*
X101986739Y-142586739D01*
X101899385Y-142703295D01*
X101848255Y-142839684D01*
X101841500Y-142901866D01*
X101841500Y-144698134D01*
X101848255Y-144760316D01*
X101899385Y-144896705D01*
X101986739Y-145013261D01*
X102103295Y-145100615D01*
X102111704Y-145103767D01*
X102111705Y-145103768D01*
X102220451Y-145144535D01*
X102277216Y-145187176D01*
X102301916Y-145253738D01*
X102286709Y-145323087D01*
X102267316Y-145349568D01*
X102140629Y-145482138D01*
X102014743Y-145666680D01*
X101999003Y-145700590D01*
X101932531Y-145843792D01*
X101920688Y-145869305D01*
X101860989Y-146084570D01*
X101837251Y-146306695D01*
X101837548Y-146311848D01*
X101837548Y-146311851D01*
X101847631Y-146486727D01*
X101850110Y-146529715D01*
X101851247Y-146534761D01*
X101851248Y-146534767D01*
X101871119Y-146622939D01*
X101899222Y-146747639D01*
X101983266Y-146954616D01*
X101985965Y-146959020D01*
X102068538Y-147093767D01*
X102099987Y-147145088D01*
X102246250Y-147313938D01*
X102418126Y-147456632D01*
X102451974Y-147476411D01*
X102491445Y-147499476D01*
X102540169Y-147551114D01*
X102553240Y-147620897D01*
X102526509Y-147686669D01*
X102486055Y-147720027D01*
X102473607Y-147726507D01*
X102469474Y-147729610D01*
X102469471Y-147729612D01*
X102299100Y-147857530D01*
X102294965Y-147860635D01*
X102140629Y-148022138D01*
X102137715Y-148026410D01*
X102137714Y-148026411D01*
X102082494Y-148107361D01*
X102014743Y-148206680D01*
X101999003Y-148240590D01*
X101932531Y-148383792D01*
X101920688Y-148409305D01*
X101860989Y-148624570D01*
X101837251Y-148846695D01*
X101837548Y-148851848D01*
X101837548Y-148851851D01*
X101842897Y-148944616D01*
X101850110Y-149069715D01*
X101851247Y-149074761D01*
X101851248Y-149074767D01*
X101865722Y-149138990D01*
X101899222Y-149287639D01*
X101983266Y-149494616D01*
X102011760Y-149541114D01*
X102086159Y-149662522D01*
X102099987Y-149685088D01*
X102246250Y-149853938D01*
X102418126Y-149996632D01*
X102451974Y-150016411D01*
X102491445Y-150039476D01*
X102540169Y-150091114D01*
X102553240Y-150160897D01*
X102526509Y-150226669D01*
X102486055Y-150260027D01*
X102473607Y-150266507D01*
X102469474Y-150269610D01*
X102469471Y-150269612D01*
X102299100Y-150397530D01*
X102294965Y-150400635D01*
X102140629Y-150562138D01*
X102137715Y-150566410D01*
X102137714Y-150566411D01*
X102082494Y-150647361D01*
X102014743Y-150746680D01*
X101920688Y-150949305D01*
X101860989Y-151164570D01*
X101837251Y-151386695D01*
X62410074Y-151386695D01*
X62415136Y-151376453D01*
X62415137Y-151376451D01*
X62417430Y-151371811D01*
X62482370Y-151158069D01*
X62511529Y-150936590D01*
X62513156Y-150870000D01*
X62494852Y-150647361D01*
X62440431Y-150430702D01*
X62351354Y-150225840D01*
X62297064Y-150141921D01*
X62232822Y-150042617D01*
X62232820Y-150042614D01*
X62230014Y-150038277D01*
X62079670Y-149873051D01*
X62075619Y-149869852D01*
X62075615Y-149869848D01*
X61908414Y-149737800D01*
X61908410Y-149737798D01*
X61904359Y-149734598D01*
X61863053Y-149711796D01*
X61813084Y-149661364D01*
X61798312Y-149591921D01*
X61823428Y-149525516D01*
X61850780Y-149498909D01*
X61894603Y-149467650D01*
X62029860Y-149371173D01*
X62188096Y-149213489D01*
X62196064Y-149202401D01*
X62315435Y-149036277D01*
X62318453Y-149032077D01*
X62321254Y-149026411D01*
X62415136Y-148836453D01*
X62415137Y-148836451D01*
X62417430Y-148831811D01*
X62480395Y-148624570D01*
X62480865Y-148623023D01*
X62480865Y-148623021D01*
X62482370Y-148618069D01*
X62511529Y-148396590D01*
X62513156Y-148330000D01*
X62494852Y-148107361D01*
X62440431Y-147890702D01*
X62351354Y-147685840D01*
X62291940Y-147594000D01*
X62232822Y-147502617D01*
X62232820Y-147502614D01*
X62230014Y-147498277D01*
X62226532Y-147494450D01*
X62082798Y-147336488D01*
X62051746Y-147272642D01*
X62060141Y-147202143D01*
X62105317Y-147147375D01*
X62131761Y-147133706D01*
X62238297Y-147093767D01*
X62246705Y-147090615D01*
X62363261Y-147003261D01*
X62450615Y-146886705D01*
X62501745Y-146750316D01*
X62508500Y-146688134D01*
X62508500Y-144891866D01*
X62501745Y-144829684D01*
X62450615Y-144693295D01*
X62363261Y-144576739D01*
X62246705Y-144489385D01*
X62110316Y-144438255D01*
X62048134Y-144431500D01*
X60251866Y-144431500D01*
X60189684Y-144438255D01*
X60053295Y-144489385D01*
X59936739Y-144576739D01*
X59849385Y-144693295D01*
X59798255Y-144829684D01*
X59791500Y-144891866D01*
X59791500Y-146688134D01*
X59798255Y-146750316D01*
X59849385Y-146886705D01*
X59936739Y-147003261D01*
X60053295Y-147090615D01*
X60061704Y-147093767D01*
X60061705Y-147093768D01*
X60170451Y-147134535D01*
X60227216Y-147177176D01*
X60251916Y-147243738D01*
X60236709Y-147313087D01*
X60217316Y-147339568D01*
X60090629Y-147472138D01*
X60087715Y-147476410D01*
X60087714Y-147476411D01*
X60064190Y-147510896D01*
X59964743Y-147656680D01*
X59870688Y-147859305D01*
X59810989Y-148074570D01*
X59787251Y-148296695D01*
X59787548Y-148301848D01*
X59787548Y-148301851D01*
X59798927Y-148499203D01*
X59800110Y-148519715D01*
X59801247Y-148524761D01*
X59801248Y-148524767D01*
X59807826Y-148553955D01*
X59849222Y-148737639D01*
X59933266Y-148944616D01*
X59935965Y-148949020D01*
X60009927Y-149069715D01*
X60049987Y-149135088D01*
X60196250Y-149303938D01*
X60368126Y-149446632D01*
X60438595Y-149487811D01*
X60441445Y-149489476D01*
X60490169Y-149541114D01*
X60503240Y-149610897D01*
X60476509Y-149676669D01*
X60436055Y-149710027D01*
X60423607Y-149716507D01*
X60419474Y-149719610D01*
X60419471Y-149719612D01*
X60249100Y-149847530D01*
X60244965Y-149850635D01*
X60181040Y-149917529D01*
X60156470Y-149943240D01*
X60090629Y-150012138D01*
X60087715Y-150016410D01*
X60087714Y-150016411D01*
X60064190Y-150050896D01*
X59964743Y-150196680D01*
X59932331Y-150266507D01*
X59876654Y-150386453D01*
X59870688Y-150399305D01*
X59810989Y-150614570D01*
X59787251Y-150836695D01*
X59787548Y-150841848D01*
X59787548Y-150841851D01*
X59799642Y-151051593D01*
X59800110Y-151059715D01*
X59801247Y-151064761D01*
X59801248Y-151064767D01*
X59803805Y-151076112D01*
X59849222Y-151277639D01*
X59907028Y-151420000D01*
X59927956Y-151471538D01*
X59933266Y-151484616D01*
X59935965Y-151489020D01*
X60038001Y-151655528D01*
X60049987Y-151675088D01*
X60196250Y-151843938D01*
X60368126Y-151986632D01*
X60438595Y-152027811D01*
X60441445Y-152029476D01*
X60490169Y-152081114D01*
X60503240Y-152150897D01*
X60476509Y-152216669D01*
X60436055Y-152250027D01*
X60423607Y-152256507D01*
X60419474Y-152259610D01*
X60419471Y-152259612D01*
X60356174Y-152307137D01*
X60244965Y-152390635D01*
X60090629Y-152552138D01*
X59964743Y-152736680D01*
X59923486Y-152825562D01*
X59886653Y-152904912D01*
X59870688Y-152939305D01*
X59810989Y-153154570D01*
X59787251Y-153376695D01*
X53297999Y-153376695D01*
X53297999Y-153255331D01*
X53297629Y-153248510D01*
X53292105Y-153197648D01*
X53288479Y-153182396D01*
X53243324Y-153061946D01*
X53234786Y-153046351D01*
X53158285Y-152944276D01*
X53145724Y-152931715D01*
X53043649Y-152855214D01*
X53028054Y-152846676D01*
X52907606Y-152801522D01*
X52892351Y-152797895D01*
X52841486Y-152792369D01*
X52834672Y-152792000D01*
X52212115Y-152792000D01*
X52196876Y-152796475D01*
X52195671Y-152797865D01*
X52194000Y-152805548D01*
X52194000Y-153877885D01*
X51686000Y-153877885D01*
X51686000Y-152810116D01*
X51681525Y-152794877D01*
X51680135Y-152793672D01*
X51672452Y-152792001D01*
X51045331Y-152792001D01*
X51038510Y-152792371D01*
X50987648Y-152797895D01*
X50972396Y-152801521D01*
X50851946Y-152846676D01*
X50836351Y-152855214D01*
X50734276Y-152931715D01*
X50721715Y-152944276D01*
X50645214Y-153046351D01*
X50636676Y-153061946D01*
X50595297Y-153172322D01*
X50552655Y-153229087D01*
X50486093Y-153253786D01*
X50416744Y-153238578D01*
X50384121Y-153212891D01*
X50333151Y-153156876D01*
X50333145Y-153156870D01*
X50329670Y-153153051D01*
X50325619Y-153149852D01*
X50325615Y-153149848D01*
X50158414Y-153017800D01*
X50158410Y-153017798D01*
X50154359Y-153014598D01*
X49958789Y-152906638D01*
X49953920Y-152904914D01*
X49953916Y-152904912D01*
X49753087Y-152833795D01*
X49753083Y-152833794D01*
X49748212Y-152832069D01*
X49743119Y-152831162D01*
X49743116Y-152831161D01*
X49533373Y-152793800D01*
X49533367Y-152793799D01*
X49528284Y-152792894D01*
X49454452Y-152791992D01*
X49310081Y-152790228D01*
X49310079Y-152790228D01*
X49304911Y-152790165D01*
X49084091Y-152823955D01*
X48871756Y-152893357D01*
X48673607Y-152996507D01*
X48669474Y-152999610D01*
X48669471Y-152999612D01*
X48499100Y-153127530D01*
X48494965Y-153130635D01*
X48467183Y-153159707D01*
X48363055Y-153268671D01*
X48340629Y-153292138D01*
X48233201Y-153449621D01*
X48178293Y-153494621D01*
X48107768Y-153502792D01*
X48044021Y-153471538D01*
X48023324Y-153447054D01*
X47942822Y-153322617D01*
X47942820Y-153322614D01*
X47940014Y-153318277D01*
X47789670Y-153153051D01*
X47785619Y-153149852D01*
X47785615Y-153149848D01*
X47618414Y-153017800D01*
X47618410Y-153017798D01*
X47614359Y-153014598D01*
X47418789Y-152906638D01*
X47413920Y-152904914D01*
X47413916Y-152904912D01*
X47213087Y-152833795D01*
X47213083Y-152833794D01*
X47208212Y-152832069D01*
X47203119Y-152831162D01*
X47203116Y-152831161D01*
X46993373Y-152793800D01*
X46993367Y-152793799D01*
X46988284Y-152792894D01*
X46914452Y-152791992D01*
X46770081Y-152790228D01*
X46770079Y-152790228D01*
X46764911Y-152790165D01*
X46544091Y-152823955D01*
X46331756Y-152893357D01*
X46133607Y-152996507D01*
X46129474Y-152999610D01*
X46129471Y-152999612D01*
X45959100Y-153127530D01*
X45954965Y-153130635D01*
X45927183Y-153159707D01*
X45823055Y-153268671D01*
X45800629Y-153292138D01*
X45693201Y-153449621D01*
X45638293Y-153494621D01*
X45567768Y-153502792D01*
X45504021Y-153471538D01*
X45483324Y-153447054D01*
X45402822Y-153322617D01*
X45402820Y-153322614D01*
X45400014Y-153318277D01*
X45249670Y-153153051D01*
X45245619Y-153149852D01*
X45245615Y-153149848D01*
X45078414Y-153017800D01*
X45078410Y-153017798D01*
X45074359Y-153014598D01*
X44878789Y-152906638D01*
X44873920Y-152904914D01*
X44873916Y-152904912D01*
X44673087Y-152833795D01*
X44673083Y-152833794D01*
X44668212Y-152832069D01*
X44663119Y-152831162D01*
X44663116Y-152831161D01*
X44591361Y-152818380D01*
X44448284Y-152792894D01*
X44409311Y-152792418D01*
X44341441Y-152771585D01*
X44321756Y-152755522D01*
X43296855Y-151730621D01*
X43287753Y-151720478D01*
X43267897Y-151695782D01*
X43264032Y-151690975D01*
X43225578Y-151658708D01*
X43221931Y-151655528D01*
X43220119Y-151653885D01*
X43217925Y-151651691D01*
X43184651Y-151624358D01*
X43183853Y-151623696D01*
X43112526Y-151563846D01*
X43107856Y-151561278D01*
X43103739Y-151557897D01*
X43036541Y-151521866D01*
X43021914Y-151514023D01*
X43020755Y-151513394D01*
X42944619Y-151471538D01*
X42944611Y-151471535D01*
X42939213Y-151468567D01*
X42934131Y-151466955D01*
X42929437Y-151464438D01*
X42840469Y-151437238D01*
X42839441Y-151436918D01*
X42750694Y-151408765D01*
X42745398Y-151408171D01*
X42740302Y-151406613D01*
X42647743Y-151397210D01*
X42646607Y-151397089D01*
X42612992Y-151393319D01*
X42600270Y-151391892D01*
X42600266Y-151391892D01*
X42596773Y-151391500D01*
X42593246Y-151391500D01*
X42592261Y-151391445D01*
X42586581Y-151390998D01*
X42557175Y-151388011D01*
X42549663Y-151387248D01*
X42549661Y-151387248D01*
X42543538Y-151386626D01*
X42501259Y-151390623D01*
X42497891Y-151390941D01*
X42486033Y-151391500D01*
X41191170Y-151391500D01*
X41123049Y-151371498D01*
X41082293Y-151327772D01*
X41080615Y-151323295D01*
X41075230Y-151316109D01*
X40998642Y-151213919D01*
X40993261Y-151206739D01*
X40876705Y-151119385D01*
X40864132Y-151114672D01*
X40758203Y-151074960D01*
X40701439Y-151032318D01*
X40676739Y-150965756D01*
X40691947Y-150896408D01*
X40713493Y-150867727D01*
X40814435Y-150767137D01*
X40818096Y-150763489D01*
X40830175Y-150746680D01*
X40945435Y-150586277D01*
X40948453Y-150582077D01*
X40958308Y-150562138D01*
X41045136Y-150386453D01*
X41045137Y-150386451D01*
X41047430Y-150381811D01*
X41112370Y-150168069D01*
X41141529Y-149946590D01*
X41143156Y-149880000D01*
X41124852Y-149657361D01*
X41070431Y-149440702D01*
X40981354Y-149235840D01*
X40860014Y-149048277D01*
X40709670Y-148883051D01*
X40705619Y-148879852D01*
X40705615Y-148879848D01*
X40538414Y-148747800D01*
X40538410Y-148747798D01*
X40534359Y-148744598D01*
X40492569Y-148721529D01*
X40442598Y-148671097D01*
X40427826Y-148601654D01*
X40452942Y-148535248D01*
X40480294Y-148508641D01*
X40655328Y-148383792D01*
X40663200Y-148377139D01*
X40814052Y-148226812D01*
X40820730Y-148218965D01*
X40945003Y-148046020D01*
X40950313Y-148037183D01*
X41044670Y-147846267D01*
X41048469Y-147836672D01*
X41110377Y-147632910D01*
X41112555Y-147622837D01*
X41113986Y-147611962D01*
X41111775Y-147597778D01*
X41098617Y-147594000D01*
X38463225Y-147594000D01*
X38449694Y-147597973D01*
X38448257Y-147607966D01*
X38478565Y-147742446D01*
X38481645Y-147752275D01*
X38561770Y-147949603D01*
X38566413Y-147958794D01*
X38677694Y-148140388D01*
X38683777Y-148148699D01*
X38823213Y-148309667D01*
X38830580Y-148316883D01*
X38994434Y-148452916D01*
X39002881Y-148458831D01*
X39071969Y-148499203D01*
X39120693Y-148550842D01*
X39133764Y-148620625D01*
X39107033Y-148686396D01*
X39066584Y-148719752D01*
X39053607Y-148726507D01*
X39049474Y-148729610D01*
X39049471Y-148729612D01*
X38893531Y-148846695D01*
X38874965Y-148860635D01*
X38720629Y-149022138D01*
X38717715Y-149026410D01*
X38717714Y-149026411D01*
X38688174Y-149069715D01*
X38594743Y-149206680D01*
X38579003Y-149240590D01*
X38511296Y-149386453D01*
X38500688Y-149409305D01*
X38440989Y-149624570D01*
X38417251Y-149846695D01*
X33208500Y-149846695D01*
X33208500Y-147074183D01*
X38444389Y-147074183D01*
X38445912Y-147082607D01*
X38458292Y-147086000D01*
X39507885Y-147086000D01*
X39523124Y-147081525D01*
X39524329Y-147080135D01*
X39526000Y-147072452D01*
X39526000Y-147067885D01*
X40034000Y-147067885D01*
X40038475Y-147083124D01*
X40039865Y-147084329D01*
X40047548Y-147086000D01*
X41098344Y-147086000D01*
X41111875Y-147082027D01*
X41113180Y-147072947D01*
X41071214Y-146905875D01*
X41067894Y-146896124D01*
X40982972Y-146700814D01*
X40978105Y-146691739D01*
X40862426Y-146512926D01*
X40856136Y-146504757D01*
X40712806Y-146347240D01*
X40705273Y-146340215D01*
X40538139Y-146208222D01*
X40529552Y-146202517D01*
X40492116Y-146181851D01*
X40442146Y-146131419D01*
X40427374Y-146061976D01*
X40452490Y-145995571D01*
X40479842Y-145968964D01*
X40655327Y-145843792D01*
X40663200Y-145837139D01*
X40814052Y-145686812D01*
X40820730Y-145678965D01*
X40945003Y-145506020D01*
X40950313Y-145497183D01*
X41044670Y-145306267D01*
X41048469Y-145296672D01*
X41110377Y-145092910D01*
X41112555Y-145082837D01*
X41113986Y-145071962D01*
X41111775Y-145057778D01*
X41098617Y-145054000D01*
X40052115Y-145054000D01*
X40036876Y-145058475D01*
X40035671Y-145059865D01*
X40034000Y-145067548D01*
X40034000Y-147067885D01*
X39526000Y-147067885D01*
X39526000Y-145072115D01*
X39521525Y-145056876D01*
X39520135Y-145055671D01*
X39512452Y-145054000D01*
X38463225Y-145054000D01*
X38449694Y-145057973D01*
X38448257Y-145067966D01*
X38478565Y-145202446D01*
X38481645Y-145212275D01*
X38561770Y-145409603D01*
X38566413Y-145418794D01*
X38677694Y-145600388D01*
X38683777Y-145608699D01*
X38823213Y-145769667D01*
X38830580Y-145776883D01*
X38994434Y-145912916D01*
X39002881Y-145918831D01*
X39072479Y-145959501D01*
X39121203Y-146011140D01*
X39134274Y-146080923D01*
X39107543Y-146146694D01*
X39067087Y-146180053D01*
X39058462Y-146184542D01*
X39049738Y-146190036D01*
X38879433Y-146317905D01*
X38871726Y-146324748D01*
X38724590Y-146478717D01*
X38718104Y-146486727D01*
X38598098Y-146662649D01*
X38593000Y-146671623D01*
X38503338Y-146864783D01*
X38499775Y-146874470D01*
X38444389Y-147074183D01*
X33208500Y-147074183D01*
X33208500Y-144534183D01*
X38444389Y-144534183D01*
X38445912Y-144542607D01*
X38458292Y-144546000D01*
X39507885Y-144546000D01*
X39523124Y-144541525D01*
X39524329Y-144540135D01*
X39526000Y-144532452D01*
X39526000Y-144527885D01*
X40034000Y-144527885D01*
X40038475Y-144543124D01*
X40039865Y-144544329D01*
X40047548Y-144546000D01*
X41098344Y-144546000D01*
X41111875Y-144542027D01*
X41113180Y-144532947D01*
X41071214Y-144365875D01*
X41067894Y-144356124D01*
X40982972Y-144160814D01*
X40978105Y-144151739D01*
X40862426Y-143972926D01*
X40856136Y-143964757D01*
X40712806Y-143807240D01*
X40705273Y-143800215D01*
X40538139Y-143668222D01*
X40529552Y-143662517D01*
X40343117Y-143559599D01*
X40333705Y-143555369D01*
X40132959Y-143484280D01*
X40122988Y-143481646D01*
X40051837Y-143468972D01*
X40038540Y-143470432D01*
X40034000Y-143484989D01*
X40034000Y-144527885D01*
X39526000Y-144527885D01*
X39526000Y-143483102D01*
X39522082Y-143469758D01*
X39507806Y-143467771D01*
X39469324Y-143473660D01*
X39459288Y-143476051D01*
X39256868Y-143542212D01*
X39247359Y-143546209D01*
X39058463Y-143644542D01*
X39049738Y-143650036D01*
X38879433Y-143777905D01*
X38871726Y-143784748D01*
X38724590Y-143938717D01*
X38718104Y-143946727D01*
X38598098Y-144122649D01*
X38593000Y-144131623D01*
X38503338Y-144324783D01*
X38499775Y-144334470D01*
X38444389Y-144534183D01*
X33208500Y-144534183D01*
X33208500Y-143398640D01*
X45466463Y-143398640D01*
X45484163Y-143579160D01*
X45541418Y-143751273D01*
X45545065Y-143757295D01*
X45545066Y-143757297D01*
X45575313Y-143807240D01*
X45635380Y-143906424D01*
X45761382Y-144036902D01*
X45913159Y-144136222D01*
X45919763Y-144138678D01*
X45919765Y-144138679D01*
X46076558Y-144196990D01*
X46076560Y-144196990D01*
X46083168Y-144199448D01*
X46166995Y-144210633D01*
X46255980Y-144222507D01*
X46255984Y-144222507D01*
X46262961Y-144223438D01*
X46269972Y-144222800D01*
X46269976Y-144222800D01*
X46412459Y-144209832D01*
X46443600Y-144206998D01*
X46450302Y-144204820D01*
X46450304Y-144204820D01*
X46609409Y-144153124D01*
X46609412Y-144153123D01*
X46616108Y-144150947D01*
X46771912Y-144058069D01*
X46903266Y-143932982D01*
X47003643Y-143781902D01*
X47068055Y-143612338D01*
X47068742Y-143607450D01*
X47104629Y-143547160D01*
X47168160Y-143515471D01*
X47190357Y-143513500D01*
X47203903Y-143513500D01*
X47272896Y-143534068D01*
X47311912Y-143559599D01*
X47383159Y-143606222D01*
X47389763Y-143608678D01*
X47389765Y-143608679D01*
X47546558Y-143666990D01*
X47546560Y-143666990D01*
X47553168Y-143669448D01*
X47636995Y-143680633D01*
X47725980Y-143692507D01*
X47725984Y-143692507D01*
X47732961Y-143693438D01*
X47739972Y-143692800D01*
X47739976Y-143692800D01*
X47882459Y-143679832D01*
X47913600Y-143676998D01*
X47920302Y-143674820D01*
X47920304Y-143674820D01*
X48079409Y-143623124D01*
X48079412Y-143623123D01*
X48086108Y-143620947D01*
X48241912Y-143528069D01*
X48373266Y-143402982D01*
X48473643Y-143251902D01*
X48538055Y-143082338D01*
X48541917Y-143054861D01*
X48562748Y-142906639D01*
X48562748Y-142906636D01*
X48563299Y-142902717D01*
X48563616Y-142880000D01*
X48543397Y-142699745D01*
X48534368Y-142673818D01*
X48486064Y-142535106D01*
X48486062Y-142535103D01*
X48483745Y-142528448D01*
X48405122Y-142402624D01*
X48391359Y-142380598D01*
X48387626Y-142374624D01*
X48359625Y-142346427D01*
X48264778Y-142250915D01*
X48264774Y-142250912D01*
X48259815Y-142245918D01*
X48248697Y-142238862D01*
X48200538Y-142208300D01*
X48106666Y-142148727D01*
X48077463Y-142138328D01*
X47942425Y-142090243D01*
X47942420Y-142090242D01*
X47935790Y-142087881D01*
X47928802Y-142087048D01*
X47928799Y-142087047D01*
X47805698Y-142072368D01*
X47755680Y-142066404D01*
X47748677Y-142067140D01*
X47748676Y-142067140D01*
X47582288Y-142084628D01*
X47582286Y-142084629D01*
X47575288Y-142085364D01*
X47403579Y-142143818D01*
X47267039Y-142227819D01*
X47201019Y-142246500D01*
X46888767Y-142246500D01*
X46877584Y-142245973D01*
X46870091Y-142244298D01*
X46862165Y-142244547D01*
X46862164Y-142244547D01*
X46802014Y-142246438D01*
X46798055Y-142246500D01*
X46770144Y-142246500D01*
X46766210Y-142246997D01*
X46766209Y-142246997D01*
X46766144Y-142247005D01*
X46754307Y-142247938D01*
X46722490Y-142248938D01*
X46718029Y-142249078D01*
X46710110Y-142249327D01*
X46692454Y-142254456D01*
X46690658Y-142254978D01*
X46671306Y-142258986D01*
X46664235Y-142259880D01*
X46651203Y-142261526D01*
X46643834Y-142264443D01*
X46643832Y-142264444D01*
X46610097Y-142277800D01*
X46598869Y-142281645D01*
X46556407Y-142293982D01*
X46549585Y-142298016D01*
X46549579Y-142298019D01*
X46538968Y-142304294D01*
X46521218Y-142312990D01*
X46509756Y-142317528D01*
X46509751Y-142317531D01*
X46502383Y-142320448D01*
X46495968Y-142325109D01*
X46466625Y-142346427D01*
X46456707Y-142352943D01*
X46438019Y-142363995D01*
X46418637Y-142375458D01*
X46404313Y-142389782D01*
X46389281Y-142402621D01*
X46372893Y-142414528D01*
X46350580Y-142441500D01*
X46344712Y-142448593D01*
X46336722Y-142457373D01*
X46218908Y-142575187D01*
X46156596Y-142609213D01*
X46142986Y-142611402D01*
X46134210Y-142612324D01*
X46112288Y-142614628D01*
X46112286Y-142614628D01*
X46105288Y-142615364D01*
X45933579Y-142673818D01*
X45885665Y-142703295D01*
X45785095Y-142765166D01*
X45785092Y-142765168D01*
X45779088Y-142768862D01*
X45774053Y-142773793D01*
X45774050Y-142773795D01*
X45661552Y-142883962D01*
X45649493Y-142895771D01*
X45551235Y-143048238D01*
X45548826Y-143054858D01*
X45548824Y-143054861D01*
X45536428Y-143088920D01*
X45489197Y-143218685D01*
X45466463Y-143398640D01*
X33208500Y-143398640D01*
X33208500Y-140600634D01*
X51591500Y-140600634D01*
X51598255Y-140662816D01*
X51649385Y-140799205D01*
X51736739Y-140915761D01*
X51853295Y-141003115D01*
X51989684Y-141054245D01*
X52051866Y-141061000D01*
X54148134Y-141061000D01*
X54210316Y-141054245D01*
X54346705Y-141003115D01*
X54463261Y-140915761D01*
X54550615Y-140799205D01*
X54601745Y-140662816D01*
X54608500Y-140600634D01*
X54608500Y-138840000D01*
X97486502Y-138840000D01*
X97506457Y-139068087D01*
X97507881Y-139073400D01*
X97507881Y-139073402D01*
X97562125Y-139275840D01*
X97565716Y-139289243D01*
X97568039Y-139294224D01*
X97568039Y-139294225D01*
X97660151Y-139491762D01*
X97660154Y-139491767D01*
X97662477Y-139496749D01*
X97793802Y-139684300D01*
X97955700Y-139846198D01*
X97960208Y-139849355D01*
X97960211Y-139849357D01*
X98020899Y-139891851D01*
X98143251Y-139977523D01*
X98148233Y-139979846D01*
X98148238Y-139979849D01*
X98345775Y-140071961D01*
X98350757Y-140074284D01*
X98356065Y-140075706D01*
X98356067Y-140075707D01*
X98566598Y-140132119D01*
X98566600Y-140132119D01*
X98571913Y-140133543D01*
X98800000Y-140153498D01*
X99028087Y-140133543D01*
X99033400Y-140132119D01*
X99033402Y-140132119D01*
X99243933Y-140075707D01*
X99243935Y-140075706D01*
X99249243Y-140074284D01*
X99254225Y-140071961D01*
X99451762Y-139979849D01*
X99451767Y-139979846D01*
X99456749Y-139977523D01*
X99579101Y-139891851D01*
X99586465Y-139886695D01*
X101737251Y-139886695D01*
X101737548Y-139891848D01*
X101737548Y-139891851D01*
X101743011Y-139986590D01*
X101750110Y-140109715D01*
X101751247Y-140114761D01*
X101751248Y-140114767D01*
X101759869Y-140153019D01*
X101799222Y-140327639D01*
X101883266Y-140534616D01*
X101999987Y-140725088D01*
X102146250Y-140893938D01*
X102318126Y-141036632D01*
X102511000Y-141149338D01*
X102719692Y-141229030D01*
X102724760Y-141230061D01*
X102724763Y-141230062D01*
X102832017Y-141251883D01*
X102938597Y-141273567D01*
X102943772Y-141273757D01*
X102943774Y-141273757D01*
X103156673Y-141281564D01*
X103156677Y-141281564D01*
X103161837Y-141281753D01*
X103166957Y-141281097D01*
X103166959Y-141281097D01*
X103378288Y-141254025D01*
X103378289Y-141254025D01*
X103383416Y-141253368D01*
X103388366Y-141251883D01*
X103592429Y-141190661D01*
X103592434Y-141190659D01*
X103597384Y-141189174D01*
X103797994Y-141090896D01*
X103979860Y-140961173D01*
X104138096Y-140803489D01*
X104141175Y-140799205D01*
X104265435Y-140626277D01*
X104268453Y-140622077D01*
X104367430Y-140421811D01*
X104432370Y-140208069D01*
X104461529Y-139986590D01*
X104463156Y-139920000D01*
X104444852Y-139697361D01*
X104390431Y-139480702D01*
X104301354Y-139275840D01*
X104261906Y-139214862D01*
X104182822Y-139092617D01*
X104182820Y-139092614D01*
X104180014Y-139088277D01*
X104029670Y-138923051D01*
X104025619Y-138919852D01*
X104025615Y-138919848D01*
X103858414Y-138787800D01*
X103858410Y-138787798D01*
X103854359Y-138784598D01*
X103813053Y-138761796D01*
X103763084Y-138711364D01*
X103748312Y-138641921D01*
X103773428Y-138575516D01*
X103800780Y-138548909D01*
X103844603Y-138517650D01*
X103979860Y-138421173D01*
X104000310Y-138400795D01*
X104134435Y-138267137D01*
X104138096Y-138263489D01*
X104197594Y-138180689D01*
X104265435Y-138086277D01*
X104268453Y-138082077D01*
X104308914Y-138000211D01*
X104365136Y-137886453D01*
X104365137Y-137886451D01*
X104367430Y-137881811D01*
X104432370Y-137668069D01*
X104461529Y-137446590D01*
X104461828Y-137434366D01*
X104463074Y-137383365D01*
X104463074Y-137383361D01*
X104463156Y-137380000D01*
X104444852Y-137157361D01*
X104390431Y-136940702D01*
X104301354Y-136735840D01*
X104180014Y-136548277D01*
X104029670Y-136383051D01*
X104025619Y-136379852D01*
X104025615Y-136379848D01*
X103858414Y-136247800D01*
X103858410Y-136247798D01*
X103854359Y-136244598D01*
X103813053Y-136221796D01*
X103763084Y-136171364D01*
X103748312Y-136101921D01*
X103773428Y-136035516D01*
X103800780Y-136008909D01*
X103869292Y-135960040D01*
X103979860Y-135881173D01*
X104010383Y-135850757D01*
X104134435Y-135727137D01*
X104138096Y-135723489D01*
X104184220Y-135659301D01*
X104265435Y-135546277D01*
X104268453Y-135542077D01*
X104308914Y-135460211D01*
X104365136Y-135346453D01*
X104365137Y-135346451D01*
X104367430Y-135341811D01*
X104432370Y-135128069D01*
X104461529Y-134906590D01*
X104462331Y-134873776D01*
X104463074Y-134843365D01*
X104463074Y-134843361D01*
X104463156Y-134840000D01*
X104444852Y-134617361D01*
X104390431Y-134400702D01*
X104301354Y-134195840D01*
X104180014Y-134008277D01*
X104176532Y-134004450D01*
X104032798Y-133846488D01*
X104001746Y-133782642D01*
X104010141Y-133712143D01*
X104055317Y-133657375D01*
X104081761Y-133643706D01*
X104188297Y-133603767D01*
X104196705Y-133600615D01*
X104313261Y-133513261D01*
X104400615Y-133396705D01*
X104451745Y-133260316D01*
X104458500Y-133198134D01*
X104458500Y-131401866D01*
X104451745Y-131339684D01*
X104400615Y-131203295D01*
X104313261Y-131086739D01*
X104196705Y-130999385D01*
X104060316Y-130948255D01*
X103998134Y-130941500D01*
X102201866Y-130941500D01*
X102139684Y-130948255D01*
X102003295Y-130999385D01*
X101886739Y-131086739D01*
X101799385Y-131203295D01*
X101748255Y-131339684D01*
X101741500Y-131401866D01*
X101741500Y-133198134D01*
X101748255Y-133260316D01*
X101799385Y-133396705D01*
X101886739Y-133513261D01*
X102003295Y-133600615D01*
X102011704Y-133603767D01*
X102011705Y-133603768D01*
X102120451Y-133644535D01*
X102177216Y-133687176D01*
X102201916Y-133753738D01*
X102186709Y-133823087D01*
X102167316Y-133849568D01*
X102040629Y-133982138D01*
X101914743Y-134166680D01*
X101820688Y-134369305D01*
X101760989Y-134584570D01*
X101737251Y-134806695D01*
X101737548Y-134811848D01*
X101737548Y-134811851D01*
X101743011Y-134906590D01*
X101750110Y-135029715D01*
X101751247Y-135034761D01*
X101751248Y-135034767D01*
X101772275Y-135128069D01*
X101799222Y-135247639D01*
X101883266Y-135454616D01*
X101885965Y-135459020D01*
X101996099Y-135638743D01*
X101999987Y-135645088D01*
X102146250Y-135813938D01*
X102318126Y-135956632D01*
X102334709Y-135966322D01*
X102391445Y-135999476D01*
X102440169Y-136051114D01*
X102453240Y-136120897D01*
X102426509Y-136186669D01*
X102386055Y-136220027D01*
X102373607Y-136226507D01*
X102369474Y-136229610D01*
X102369471Y-136229612D01*
X102283015Y-136294525D01*
X102194965Y-136360635D01*
X102191393Y-136364373D01*
X102082567Y-136478253D01*
X102040629Y-136522138D01*
X101914743Y-136706680D01*
X101820688Y-136909305D01*
X101760989Y-137124570D01*
X101737251Y-137346695D01*
X101737548Y-137351848D01*
X101737548Y-137351851D01*
X101743011Y-137446590D01*
X101750110Y-137569715D01*
X101751247Y-137574761D01*
X101751248Y-137574767D01*
X101765336Y-137637278D01*
X101799222Y-137787639D01*
X101883266Y-137994616D01*
X101885965Y-137999020D01*
X101996099Y-138178743D01*
X101999987Y-138185088D01*
X102146250Y-138353938D01*
X102318126Y-138496632D01*
X102374861Y-138529785D01*
X102391445Y-138539476D01*
X102440169Y-138591114D01*
X102453240Y-138660897D01*
X102426509Y-138726669D01*
X102386055Y-138760027D01*
X102373607Y-138766507D01*
X102369474Y-138769610D01*
X102369471Y-138769612D01*
X102345247Y-138787800D01*
X102194965Y-138900635D01*
X102040629Y-139062138D01*
X101914743Y-139246680D01*
X101820688Y-139449305D01*
X101760989Y-139664570D01*
X101737251Y-139886695D01*
X99586465Y-139886695D01*
X99639789Y-139849357D01*
X99639792Y-139849355D01*
X99644300Y-139846198D01*
X99806198Y-139684300D01*
X99937523Y-139496749D01*
X99939846Y-139491767D01*
X99939849Y-139491762D01*
X100031961Y-139294225D01*
X100031961Y-139294224D01*
X100034284Y-139289243D01*
X100037876Y-139275840D01*
X100092119Y-139073402D01*
X100092119Y-139073400D01*
X100093543Y-139068087D01*
X100113498Y-138840000D01*
X100093543Y-138611913D01*
X100087970Y-138591114D01*
X100035707Y-138396067D01*
X100035706Y-138396065D01*
X100034284Y-138390757D01*
X100015293Y-138350031D01*
X99939849Y-138188238D01*
X99939846Y-138188233D01*
X99937523Y-138183251D01*
X99853031Y-138062584D01*
X99809357Y-138000211D01*
X99809355Y-138000208D01*
X99806198Y-137995700D01*
X99644300Y-137833802D01*
X99639792Y-137830645D01*
X99639789Y-137830643D01*
X99561611Y-137775902D01*
X99456749Y-137702477D01*
X99451767Y-137700154D01*
X99451762Y-137700151D01*
X99417543Y-137684195D01*
X99364258Y-137637278D01*
X99344797Y-137569001D01*
X99365339Y-137501041D01*
X99417543Y-137455805D01*
X99451762Y-137439849D01*
X99451767Y-137439846D01*
X99456749Y-137437523D01*
X99579868Y-137351314D01*
X99639789Y-137309357D01*
X99639792Y-137309355D01*
X99644300Y-137306198D01*
X99806198Y-137144300D01*
X99937523Y-136956749D01*
X99939846Y-136951767D01*
X99939849Y-136951762D01*
X100031961Y-136754225D01*
X100031961Y-136754224D01*
X100034284Y-136749243D01*
X100037876Y-136735840D01*
X100092119Y-136533402D01*
X100092119Y-136533400D01*
X100093543Y-136528087D01*
X100113498Y-136300000D01*
X100093543Y-136071913D01*
X100091579Y-136064583D01*
X100035707Y-135856067D01*
X100035706Y-135856065D01*
X100034284Y-135850757D01*
X99996780Y-135770328D01*
X99939849Y-135648238D01*
X99939846Y-135648233D01*
X99937523Y-135643251D01*
X99863432Y-135537438D01*
X99809357Y-135460211D01*
X99809355Y-135460208D01*
X99806198Y-135455700D01*
X99644300Y-135293802D01*
X99639792Y-135290645D01*
X99639789Y-135290643D01*
X99561611Y-135235902D01*
X99456749Y-135162477D01*
X99451767Y-135160154D01*
X99451762Y-135160151D01*
X99254225Y-135068039D01*
X99254224Y-135068039D01*
X99249243Y-135065716D01*
X99243935Y-135064294D01*
X99243933Y-135064293D01*
X99033402Y-135007881D01*
X99033400Y-135007881D01*
X99028087Y-135006457D01*
X98800000Y-134986502D01*
X98571913Y-135006457D01*
X98566600Y-135007881D01*
X98566598Y-135007881D01*
X98356067Y-135064293D01*
X98356065Y-135064294D01*
X98350757Y-135065716D01*
X98345776Y-135068039D01*
X98345775Y-135068039D01*
X98148238Y-135160151D01*
X98148233Y-135160154D01*
X98143251Y-135162477D01*
X98038389Y-135235902D01*
X97960211Y-135290643D01*
X97960208Y-135290645D01*
X97955700Y-135293802D01*
X97793802Y-135455700D01*
X97790645Y-135460208D01*
X97790643Y-135460211D01*
X97736568Y-135537438D01*
X97662477Y-135643251D01*
X97660154Y-135648233D01*
X97660151Y-135648238D01*
X97603220Y-135770328D01*
X97565716Y-135850757D01*
X97564294Y-135856065D01*
X97564293Y-135856067D01*
X97508421Y-136064583D01*
X97506457Y-136071913D01*
X97486502Y-136300000D01*
X97506457Y-136528087D01*
X97507881Y-136533400D01*
X97507881Y-136533402D01*
X97562125Y-136735840D01*
X97565716Y-136749243D01*
X97568039Y-136754224D01*
X97568039Y-136754225D01*
X97660151Y-136951762D01*
X97660154Y-136951767D01*
X97662477Y-136956749D01*
X97793802Y-137144300D01*
X97955700Y-137306198D01*
X97960208Y-137309355D01*
X97960211Y-137309357D01*
X98020132Y-137351314D01*
X98143251Y-137437523D01*
X98148233Y-137439846D01*
X98148238Y-137439849D01*
X98182457Y-137455805D01*
X98235742Y-137502722D01*
X98255203Y-137570999D01*
X98234661Y-137638959D01*
X98182457Y-137684195D01*
X98148238Y-137700151D01*
X98148233Y-137700154D01*
X98143251Y-137702477D01*
X98038389Y-137775902D01*
X97960211Y-137830643D01*
X97960208Y-137830645D01*
X97955700Y-137833802D01*
X97793802Y-137995700D01*
X97790645Y-138000208D01*
X97790643Y-138000211D01*
X97746969Y-138062584D01*
X97662477Y-138183251D01*
X97660154Y-138188233D01*
X97660151Y-138188238D01*
X97584707Y-138350031D01*
X97565716Y-138390757D01*
X97564294Y-138396065D01*
X97564293Y-138396067D01*
X97512030Y-138591114D01*
X97506457Y-138611913D01*
X97486502Y-138840000D01*
X54608500Y-138840000D01*
X54608500Y-138599366D01*
X54601745Y-138537184D01*
X54550615Y-138400795D01*
X54463261Y-138284239D01*
X54346705Y-138196885D01*
X54326317Y-138189242D01*
X54269553Y-138146599D01*
X54244854Y-138080038D01*
X54260062Y-138010689D01*
X54271666Y-137993168D01*
X54364945Y-137875056D01*
X54370650Y-137866469D01*
X54481714Y-137665278D01*
X54485944Y-137655866D01*
X54562659Y-137439232D01*
X54565293Y-137429261D01*
X54582647Y-137331837D01*
X54581187Y-137318540D01*
X54566630Y-137314000D01*
X51631904Y-137314000D01*
X51618560Y-137317918D01*
X51616573Y-137332194D01*
X51626110Y-137394515D01*
X51628499Y-137404543D01*
X51699898Y-137622988D01*
X51703895Y-137632497D01*
X51810011Y-137836344D01*
X51815500Y-137845061D01*
X51928902Y-137996099D01*
X51953807Y-138062584D01*
X51938814Y-138131980D01*
X51888684Y-138182253D01*
X51872375Y-138189732D01*
X51853295Y-138196885D01*
X51736739Y-138284239D01*
X51649385Y-138400795D01*
X51598255Y-138537184D01*
X51591500Y-138599366D01*
X51591500Y-140600634D01*
X33208500Y-140600634D01*
X33208500Y-137060000D01*
X34176654Y-137060000D01*
X34176924Y-137064119D01*
X34195445Y-137346695D01*
X34196017Y-137355426D01*
X34196819Y-137359459D01*
X34196820Y-137359465D01*
X34252970Y-137641747D01*
X34253776Y-137645797D01*
X34255103Y-137649706D01*
X34255104Y-137649710D01*
X34317595Y-137833802D01*
X34348941Y-137926145D01*
X34381320Y-137991803D01*
X34476638Y-138185088D01*
X34479885Y-138191673D01*
X34482179Y-138195106D01*
X34633232Y-138421173D01*
X34644367Y-138437838D01*
X34647081Y-138440932D01*
X34647085Y-138440938D01*
X34786024Y-138599366D01*
X34839573Y-138660427D01*
X34842662Y-138663136D01*
X35059062Y-138852915D01*
X35059068Y-138852919D01*
X35062162Y-138855633D01*
X35065588Y-138857922D01*
X35065593Y-138857926D01*
X35163060Y-138923051D01*
X35308327Y-139020115D01*
X35312026Y-139021939D01*
X35312031Y-139021942D01*
X35416382Y-139073402D01*
X35573855Y-139151059D01*
X35577760Y-139152384D01*
X35577761Y-139152385D01*
X35850290Y-139244896D01*
X35850294Y-139244897D01*
X35854203Y-139246224D01*
X35858247Y-139247028D01*
X35858253Y-139247030D01*
X36140535Y-139303180D01*
X36140541Y-139303181D01*
X36144574Y-139303983D01*
X36148679Y-139304252D01*
X36148686Y-139304253D01*
X36435881Y-139323076D01*
X36440000Y-139323346D01*
X36444119Y-139323076D01*
X36731314Y-139304253D01*
X36731321Y-139304252D01*
X36735426Y-139303983D01*
X36739459Y-139303181D01*
X36739465Y-139303180D01*
X37021747Y-139247030D01*
X37021753Y-139247028D01*
X37025797Y-139246224D01*
X37029706Y-139244897D01*
X37029710Y-139244896D01*
X37302239Y-139152385D01*
X37302240Y-139152384D01*
X37306145Y-139151059D01*
X37463618Y-139073402D01*
X37567969Y-139021942D01*
X37567974Y-139021939D01*
X37571673Y-139020115D01*
X37716940Y-138923051D01*
X37814407Y-138857926D01*
X37814412Y-138857922D01*
X37817838Y-138855633D01*
X37820932Y-138852919D01*
X37820938Y-138852915D01*
X38037338Y-138663136D01*
X38040427Y-138660427D01*
X38093976Y-138599366D01*
X38232915Y-138440938D01*
X38232919Y-138440932D01*
X38235633Y-138437838D01*
X38246769Y-138421173D01*
X38397821Y-138195106D01*
X38400115Y-138191673D01*
X38403363Y-138185088D01*
X38498680Y-137991803D01*
X38531059Y-137926145D01*
X38562405Y-137833802D01*
X38624896Y-137649710D01*
X38624897Y-137649706D01*
X38626224Y-137645797D01*
X38627030Y-137641747D01*
X38683180Y-137359465D01*
X38683181Y-137359459D01*
X38683983Y-137355426D01*
X38684556Y-137346695D01*
X38703076Y-137064119D01*
X38703346Y-137060000D01*
X38693469Y-136909305D01*
X38684253Y-136768686D01*
X38684252Y-136768679D01*
X38683983Y-136764574D01*
X38681925Y-136754225D01*
X38627030Y-136478253D01*
X38627028Y-136478247D01*
X38626224Y-136474203D01*
X38531059Y-136193855D01*
X38435202Y-135999476D01*
X38401942Y-135932031D01*
X38401939Y-135932026D01*
X38400115Y-135928327D01*
X38360744Y-135869405D01*
X38237926Y-135685593D01*
X38237922Y-135685588D01*
X38235633Y-135682162D01*
X38232919Y-135679068D01*
X38232915Y-135679062D01*
X38043136Y-135462662D01*
X38040427Y-135459573D01*
X37854601Y-135296607D01*
X37820938Y-135267085D01*
X37820932Y-135267081D01*
X37817838Y-135264367D01*
X37814412Y-135262078D01*
X37814407Y-135262074D01*
X37575106Y-135102179D01*
X37571673Y-135099885D01*
X37567974Y-135098061D01*
X37567969Y-135098058D01*
X37382220Y-135006457D01*
X37306145Y-134968941D01*
X37132239Y-134909908D01*
X37029710Y-134875104D01*
X37029706Y-134875103D01*
X37025797Y-134873776D01*
X37021753Y-134872972D01*
X37021747Y-134872970D01*
X36739465Y-134816820D01*
X36739459Y-134816819D01*
X36735426Y-134816017D01*
X36731321Y-134815748D01*
X36731314Y-134815747D01*
X36444119Y-134796924D01*
X36440000Y-134796654D01*
X36435881Y-134796924D01*
X36148686Y-134815747D01*
X36148679Y-134815748D01*
X36144574Y-134816017D01*
X36140541Y-134816819D01*
X36140535Y-134816820D01*
X35858253Y-134872970D01*
X35858247Y-134872972D01*
X35854203Y-134873776D01*
X35850294Y-134875103D01*
X35850290Y-134875104D01*
X35747761Y-134909908D01*
X35573855Y-134968941D01*
X35497780Y-135006457D01*
X35312031Y-135098058D01*
X35312026Y-135098061D01*
X35308327Y-135099885D01*
X35304894Y-135102179D01*
X35065593Y-135262074D01*
X35065588Y-135262078D01*
X35062162Y-135264367D01*
X35059068Y-135267081D01*
X35059062Y-135267085D01*
X35025399Y-135296607D01*
X34839573Y-135459573D01*
X34836864Y-135462662D01*
X34647085Y-135679062D01*
X34647081Y-135679068D01*
X34644367Y-135682162D01*
X34642078Y-135685588D01*
X34642074Y-135685593D01*
X34519256Y-135869405D01*
X34479885Y-135928327D01*
X34478061Y-135932026D01*
X34478058Y-135932031D01*
X34444798Y-135999476D01*
X34348941Y-136193855D01*
X34253776Y-136474203D01*
X34252972Y-136478247D01*
X34252970Y-136478253D01*
X34198076Y-136754225D01*
X34196017Y-136764574D01*
X34195748Y-136768679D01*
X34195747Y-136768686D01*
X34186531Y-136909305D01*
X34176654Y-137060000D01*
X33208500Y-137060000D01*
X33208500Y-134622263D01*
X51590064Y-134622263D01*
X51626404Y-134859744D01*
X51640621Y-134903240D01*
X51699434Y-135083183D01*
X51699437Y-135083189D01*
X51701042Y-135088101D01*
X51703429Y-135092687D01*
X51703431Y-135092691D01*
X51784093Y-135247639D01*
X51811975Y-135301200D01*
X51956223Y-135493320D01*
X52129912Y-135659301D01*
X52167351Y-135684840D01*
X52212352Y-135739751D01*
X52220523Y-135810275D01*
X52189269Y-135874022D01*
X52164790Y-135894716D01*
X52162674Y-135896085D01*
X52154502Y-135902378D01*
X51984520Y-136057050D01*
X51977494Y-136064583D01*
X51835055Y-136244944D01*
X51829350Y-136253531D01*
X51718286Y-136454722D01*
X51714056Y-136464134D01*
X51637341Y-136680768D01*
X51634707Y-136690739D01*
X51617353Y-136788163D01*
X51618813Y-136801460D01*
X51633370Y-136806000D01*
X54568096Y-136806000D01*
X54581440Y-136802082D01*
X54583427Y-136787806D01*
X54573890Y-136725485D01*
X54571501Y-136715457D01*
X54500102Y-136497012D01*
X54496105Y-136487503D01*
X54389989Y-136283656D01*
X54384495Y-136274931D01*
X54246507Y-136091148D01*
X54239664Y-136083441D01*
X54073509Y-135924661D01*
X54065502Y-135918177D01*
X54032644Y-135895763D01*
X53987641Y-135840852D01*
X53979468Y-135770328D01*
X54010722Y-135706580D01*
X54035204Y-135685884D01*
X54037635Y-135684311D01*
X54041977Y-135681502D01*
X54219670Y-135519814D01*
X54280347Y-135442983D01*
X54365367Y-135335330D01*
X54365370Y-135335325D01*
X54368568Y-135331276D01*
X54382885Y-135305342D01*
X54482177Y-135125474D01*
X54482179Y-135125470D01*
X54484674Y-135120950D01*
X54491322Y-135102179D01*
X54563144Y-134899360D01*
X54563145Y-134899356D01*
X54564870Y-134894485D01*
X54565778Y-134889389D01*
X54606095Y-134663052D01*
X54606096Y-134663046D01*
X54607001Y-134657963D01*
X54609936Y-134417737D01*
X54573596Y-134180256D01*
X54517385Y-134008277D01*
X54500566Y-133956817D01*
X54500563Y-133956811D01*
X54498958Y-133951899D01*
X54388025Y-133738800D01*
X54243777Y-133546680D01*
X54070088Y-133380699D01*
X53956345Y-133303109D01*
X53875891Y-133248226D01*
X53875890Y-133248225D01*
X53871622Y-133245314D01*
X53866939Y-133243140D01*
X53866935Y-133243138D01*
X53658405Y-133146342D01*
X53658401Y-133146341D01*
X53653710Y-133144163D01*
X53422202Y-133079960D01*
X53417065Y-133079411D01*
X53229407Y-133059356D01*
X53229399Y-133059356D01*
X53226072Y-133059000D01*
X52991598Y-133059000D01*
X52989025Y-133059212D01*
X52989014Y-133059212D01*
X52888054Y-133067513D01*
X52813063Y-133073678D01*
X52580056Y-133132206D01*
X52451229Y-133188221D01*
X52364474Y-133225943D01*
X52364471Y-133225945D01*
X52359737Y-133228003D01*
X52158023Y-133358498D01*
X51980330Y-133520186D01*
X51956141Y-133550815D01*
X51834633Y-133704670D01*
X51834630Y-133704675D01*
X51831432Y-133708724D01*
X51828939Y-133713240D01*
X51828937Y-133713243D01*
X51755382Y-133846488D01*
X51715326Y-133919050D01*
X51713602Y-133923919D01*
X51713600Y-133923923D01*
X51682192Y-134012617D01*
X51635130Y-134145515D01*
X51634223Y-134150608D01*
X51634222Y-134150611D01*
X51594378Y-134374297D01*
X51592999Y-134382037D01*
X51592936Y-134387201D01*
X51590525Y-134584570D01*
X51590064Y-134622263D01*
X33208500Y-134622263D01*
X33208500Y-131298134D01*
X62301500Y-131298134D01*
X62308255Y-131360316D01*
X62359385Y-131496705D01*
X62446739Y-131613261D01*
X62563295Y-131700615D01*
X62699684Y-131751745D01*
X62761866Y-131758500D01*
X64558134Y-131758500D01*
X64620316Y-131751745D01*
X64756705Y-131700615D01*
X64873261Y-131613261D01*
X64960615Y-131496705D01*
X64982799Y-131437529D01*
X65004598Y-131379382D01*
X65047240Y-131322618D01*
X65113802Y-131297918D01*
X65183150Y-131313126D01*
X65217817Y-131341114D01*
X65246250Y-131373938D01*
X65418126Y-131516632D01*
X65611000Y-131629338D01*
X65819692Y-131709030D01*
X65824760Y-131710061D01*
X65824763Y-131710062D01*
X65919862Y-131729410D01*
X66038597Y-131753567D01*
X66043772Y-131753757D01*
X66043774Y-131753757D01*
X66256673Y-131761564D01*
X66256677Y-131761564D01*
X66261837Y-131761753D01*
X66266957Y-131761097D01*
X66266959Y-131761097D01*
X66478288Y-131734025D01*
X66478289Y-131734025D01*
X66483416Y-131733368D01*
X66488366Y-131731883D01*
X66692429Y-131670661D01*
X66692434Y-131670659D01*
X66697384Y-131669174D01*
X66897994Y-131570896D01*
X67079860Y-131441173D01*
X67122714Y-131398469D01*
X67223616Y-131297918D01*
X67238096Y-131283489D01*
X67368453Y-131102077D01*
X67369776Y-131103028D01*
X67416645Y-131059857D01*
X67486580Y-131047625D01*
X67552026Y-131075144D01*
X67579875Y-131106994D01*
X67639987Y-131205088D01*
X67786250Y-131373938D01*
X67958126Y-131516632D01*
X68151000Y-131629338D01*
X68359692Y-131709030D01*
X68364760Y-131710061D01*
X68364763Y-131710062D01*
X68459862Y-131729410D01*
X68578597Y-131753567D01*
X68583772Y-131753757D01*
X68583774Y-131753757D01*
X68796673Y-131761564D01*
X68796677Y-131761564D01*
X68801837Y-131761753D01*
X68806957Y-131761097D01*
X68806959Y-131761097D01*
X69018288Y-131734025D01*
X69018289Y-131734025D01*
X69023416Y-131733368D01*
X69028366Y-131731883D01*
X69232429Y-131670661D01*
X69232434Y-131670659D01*
X69237384Y-131669174D01*
X69437994Y-131570896D01*
X69619860Y-131441173D01*
X69662714Y-131398469D01*
X69763616Y-131297918D01*
X69778096Y-131283489D01*
X69908453Y-131102077D01*
X69909640Y-131102930D01*
X69956960Y-131059362D01*
X70026897Y-131047145D01*
X70092338Y-131074678D01*
X70120166Y-131106511D01*
X70177694Y-131200388D01*
X70183777Y-131208699D01*
X70323213Y-131369667D01*
X70330580Y-131376883D01*
X70494434Y-131512916D01*
X70502881Y-131518831D01*
X70686756Y-131626279D01*
X70696042Y-131630729D01*
X70895001Y-131706703D01*
X70904899Y-131709579D01*
X71008250Y-131730606D01*
X71022299Y-131729410D01*
X71026000Y-131719065D01*
X71026000Y-131718517D01*
X71534000Y-131718517D01*
X71538064Y-131732359D01*
X71551478Y-131734393D01*
X71558184Y-131733534D01*
X71568262Y-131731392D01*
X71772255Y-131670191D01*
X71781842Y-131666433D01*
X71973095Y-131572739D01*
X71981945Y-131567464D01*
X72155328Y-131443792D01*
X72163200Y-131437139D01*
X72314052Y-131286812D01*
X72320730Y-131278965D01*
X72445003Y-131106020D01*
X72448620Y-131100000D01*
X97486502Y-131100000D01*
X97506457Y-131328087D01*
X97507881Y-131333400D01*
X97507881Y-131333402D01*
X97536759Y-131441173D01*
X97565716Y-131549243D01*
X97568039Y-131554224D01*
X97568039Y-131554225D01*
X97660151Y-131751762D01*
X97660154Y-131751767D01*
X97662477Y-131756749D01*
X97793802Y-131944300D01*
X97955700Y-132106198D01*
X97960208Y-132109355D01*
X97960211Y-132109357D01*
X98038389Y-132164098D01*
X98143251Y-132237523D01*
X98148233Y-132239846D01*
X98148238Y-132239849D01*
X98345775Y-132331961D01*
X98350757Y-132334284D01*
X98356065Y-132335706D01*
X98356067Y-132335707D01*
X98566598Y-132392119D01*
X98566600Y-132392119D01*
X98571913Y-132393543D01*
X98800000Y-132413498D01*
X99028087Y-132393543D01*
X99033400Y-132392119D01*
X99033402Y-132392119D01*
X99243933Y-132335707D01*
X99243935Y-132335706D01*
X99249243Y-132334284D01*
X99254225Y-132331961D01*
X99451762Y-132239849D01*
X99451767Y-132239846D01*
X99456749Y-132237523D01*
X99561611Y-132164098D01*
X99639789Y-132109357D01*
X99639792Y-132109355D01*
X99644300Y-132106198D01*
X99806198Y-131944300D01*
X99937523Y-131756749D01*
X99939846Y-131751767D01*
X99939849Y-131751762D01*
X100031961Y-131554225D01*
X100031961Y-131554224D01*
X100034284Y-131549243D01*
X100063242Y-131441173D01*
X100092119Y-131333402D01*
X100092119Y-131333400D01*
X100093543Y-131328087D01*
X100113498Y-131100000D01*
X100093543Y-130871913D01*
X100038783Y-130667548D01*
X100035707Y-130656067D01*
X100035706Y-130656065D01*
X100034284Y-130650757D01*
X100028337Y-130638003D01*
X99939849Y-130448238D01*
X99939846Y-130448233D01*
X99937523Y-130443251D01*
X99825732Y-130283597D01*
X99809357Y-130260211D01*
X99809355Y-130260208D01*
X99806198Y-130255700D01*
X99644300Y-130093802D01*
X99639792Y-130090645D01*
X99639789Y-130090643D01*
X99525757Y-130010797D01*
X99456749Y-129962477D01*
X99451767Y-129960154D01*
X99451762Y-129960151D01*
X99417543Y-129944195D01*
X99364258Y-129897278D01*
X99344797Y-129829001D01*
X99365339Y-129761041D01*
X99417543Y-129715805D01*
X99451762Y-129699849D01*
X99451767Y-129699846D01*
X99456749Y-129697523D01*
X99628338Y-129577375D01*
X99639789Y-129569357D01*
X99639792Y-129569355D01*
X99644300Y-129566198D01*
X99806198Y-129404300D01*
X99819889Y-129384748D01*
X99901481Y-129268222D01*
X99937523Y-129216749D01*
X99939846Y-129211767D01*
X99939849Y-129211762D01*
X100031961Y-129014225D01*
X100031961Y-129014224D01*
X100034284Y-129009243D01*
X100093543Y-128788087D01*
X100113498Y-128560000D01*
X100093543Y-128331913D01*
X100078613Y-128276195D01*
X100035707Y-128116067D01*
X100035706Y-128116065D01*
X100034284Y-128110757D01*
X100023326Y-128087257D01*
X99939849Y-127908238D01*
X99939846Y-127908233D01*
X99937523Y-127903251D01*
X99806198Y-127715700D01*
X99644300Y-127553802D01*
X99639792Y-127550645D01*
X99639789Y-127550643D01*
X99537228Y-127478829D01*
X99456749Y-127422477D01*
X99451767Y-127420154D01*
X99451762Y-127420151D01*
X99254225Y-127328039D01*
X99254224Y-127328039D01*
X99249243Y-127325716D01*
X99243935Y-127324294D01*
X99243933Y-127324293D01*
X99033402Y-127267881D01*
X99033400Y-127267881D01*
X99028087Y-127266457D01*
X98800000Y-127246502D01*
X98571913Y-127266457D01*
X98566600Y-127267881D01*
X98566598Y-127267881D01*
X98356067Y-127324293D01*
X98356065Y-127324294D01*
X98350757Y-127325716D01*
X98345776Y-127328039D01*
X98345775Y-127328039D01*
X98148238Y-127420151D01*
X98148233Y-127420154D01*
X98143251Y-127422477D01*
X98062772Y-127478829D01*
X97960211Y-127550643D01*
X97960208Y-127550645D01*
X97955700Y-127553802D01*
X97793802Y-127715700D01*
X97662477Y-127903251D01*
X97660154Y-127908233D01*
X97660151Y-127908238D01*
X97576674Y-128087257D01*
X97565716Y-128110757D01*
X97564294Y-128116065D01*
X97564293Y-128116067D01*
X97521387Y-128276195D01*
X97506457Y-128331913D01*
X97486502Y-128560000D01*
X97506457Y-128788087D01*
X97565716Y-129009243D01*
X97568039Y-129014224D01*
X97568039Y-129014225D01*
X97660151Y-129211762D01*
X97660154Y-129211767D01*
X97662477Y-129216749D01*
X97698519Y-129268222D01*
X97780112Y-129384748D01*
X97793802Y-129404300D01*
X97955700Y-129566198D01*
X97960208Y-129569355D01*
X97960211Y-129569357D01*
X97971662Y-129577375D01*
X98143251Y-129697523D01*
X98148233Y-129699846D01*
X98148238Y-129699849D01*
X98182457Y-129715805D01*
X98235742Y-129762722D01*
X98255203Y-129830999D01*
X98234661Y-129898959D01*
X98182457Y-129944195D01*
X98148238Y-129960151D01*
X98148233Y-129960154D01*
X98143251Y-129962477D01*
X98074243Y-130010797D01*
X97960211Y-130090643D01*
X97960208Y-130090645D01*
X97955700Y-130093802D01*
X97793802Y-130255700D01*
X97790645Y-130260208D01*
X97790643Y-130260211D01*
X97774268Y-130283597D01*
X97662477Y-130443251D01*
X97660154Y-130448233D01*
X97660151Y-130448238D01*
X97571663Y-130638003D01*
X97565716Y-130650757D01*
X97564294Y-130656065D01*
X97564293Y-130656067D01*
X97561217Y-130667548D01*
X97506457Y-130871913D01*
X97486502Y-131100000D01*
X72448620Y-131100000D01*
X72450313Y-131097183D01*
X72544670Y-130906267D01*
X72548469Y-130896672D01*
X72610377Y-130692910D01*
X72612555Y-130682837D01*
X72613986Y-130671962D01*
X72611775Y-130657778D01*
X72598617Y-130654000D01*
X71552115Y-130654000D01*
X71536876Y-130658475D01*
X71535671Y-130659865D01*
X71534000Y-130667548D01*
X71534000Y-131718517D01*
X71026000Y-131718517D01*
X71026000Y-130127885D01*
X71534000Y-130127885D01*
X71538475Y-130143124D01*
X71539865Y-130144329D01*
X71547548Y-130146000D01*
X72598344Y-130146000D01*
X72611875Y-130142027D01*
X72613180Y-130132947D01*
X72571214Y-129965875D01*
X72567894Y-129956124D01*
X72482972Y-129760814D01*
X72478105Y-129751739D01*
X72362426Y-129572926D01*
X72356136Y-129564757D01*
X72212806Y-129407240D01*
X72205273Y-129400215D01*
X72038139Y-129268222D01*
X72029552Y-129262517D01*
X71843117Y-129159599D01*
X71833705Y-129155369D01*
X71632959Y-129084280D01*
X71622988Y-129081646D01*
X71551837Y-129068972D01*
X71538540Y-129070432D01*
X71534000Y-129084989D01*
X71534000Y-130127885D01*
X71026000Y-130127885D01*
X71026000Y-129083102D01*
X71022082Y-129069758D01*
X71007806Y-129067771D01*
X70969324Y-129073660D01*
X70959288Y-129076051D01*
X70756868Y-129142212D01*
X70747359Y-129146209D01*
X70558463Y-129244542D01*
X70549738Y-129250036D01*
X70379433Y-129377905D01*
X70371726Y-129384748D01*
X70224590Y-129538717D01*
X70218109Y-129546722D01*
X70113498Y-129700074D01*
X70058587Y-129745076D01*
X69988062Y-129753247D01*
X69924315Y-129721993D01*
X69903618Y-129697509D01*
X69822822Y-129572617D01*
X69822820Y-129572614D01*
X69820014Y-129568277D01*
X69669670Y-129403051D01*
X69665619Y-129399852D01*
X69665615Y-129399848D01*
X69498414Y-129267800D01*
X69498410Y-129267798D01*
X69494359Y-129264598D01*
X69458028Y-129244542D01*
X69442136Y-129235769D01*
X69298789Y-129156638D01*
X69293920Y-129154914D01*
X69293916Y-129154912D01*
X69093087Y-129083795D01*
X69093083Y-129083794D01*
X69088212Y-129082069D01*
X69083119Y-129081162D01*
X69083116Y-129081161D01*
X68873373Y-129043800D01*
X68873367Y-129043799D01*
X68868284Y-129042894D01*
X68794452Y-129041992D01*
X68650081Y-129040228D01*
X68650079Y-129040228D01*
X68644911Y-129040165D01*
X68424091Y-129073955D01*
X68211756Y-129143357D01*
X68013607Y-129246507D01*
X68009474Y-129249610D01*
X68009471Y-129249612D01*
X67839100Y-129377530D01*
X67834965Y-129380635D01*
X67831393Y-129384373D01*
X67723729Y-129497037D01*
X67680629Y-129542138D01*
X67573201Y-129699621D01*
X67518293Y-129744621D01*
X67447768Y-129752792D01*
X67384021Y-129721538D01*
X67363324Y-129697054D01*
X67282822Y-129572617D01*
X67282820Y-129572614D01*
X67280014Y-129568277D01*
X67129670Y-129403051D01*
X67125619Y-129399852D01*
X67125615Y-129399848D01*
X66958414Y-129267800D01*
X66958410Y-129267798D01*
X66954359Y-129264598D01*
X66918028Y-129244542D01*
X66902136Y-129235769D01*
X66758789Y-129156638D01*
X66753920Y-129154914D01*
X66753916Y-129154912D01*
X66553087Y-129083795D01*
X66553083Y-129083794D01*
X66548212Y-129082069D01*
X66543119Y-129081162D01*
X66543116Y-129081161D01*
X66333373Y-129043800D01*
X66333367Y-129043799D01*
X66328284Y-129042894D01*
X66254452Y-129041992D01*
X66110081Y-129040228D01*
X66110079Y-129040228D01*
X66104911Y-129040165D01*
X65884091Y-129073955D01*
X65671756Y-129143357D01*
X65473607Y-129246507D01*
X65469474Y-129249610D01*
X65469471Y-129249612D01*
X65299100Y-129377530D01*
X65294965Y-129380635D01*
X65238537Y-129439684D01*
X65214283Y-129465064D01*
X65152759Y-129500494D01*
X65081846Y-129497037D01*
X65024060Y-129455791D01*
X65005207Y-129422243D01*
X64963767Y-129311703D01*
X64960615Y-129303295D01*
X64873261Y-129186739D01*
X64756705Y-129099385D01*
X64620316Y-129048255D01*
X64558134Y-129041500D01*
X62761866Y-129041500D01*
X62699684Y-129048255D01*
X62563295Y-129099385D01*
X62446739Y-129186739D01*
X62359385Y-129303295D01*
X62308255Y-129439684D01*
X62301500Y-129501866D01*
X62301500Y-131298134D01*
X33208500Y-131298134D01*
X33208500Y-129205530D01*
X33228502Y-129137409D01*
X33282158Y-129090916D01*
X33352432Y-129080812D01*
X33417012Y-129110306D01*
X33448508Y-129151881D01*
X33537438Y-129340869D01*
X33706568Y-129607375D01*
X33780757Y-129697054D01*
X33889914Y-129829001D01*
X33907767Y-129850582D01*
X34137860Y-130066654D01*
X34141062Y-130068981D01*
X34141064Y-130068982D01*
X34170533Y-130090392D01*
X34393221Y-130252184D01*
X34396690Y-130254091D01*
X34396693Y-130254093D01*
X34617898Y-130375702D01*
X34669821Y-130404247D01*
X34673490Y-130405700D01*
X34673495Y-130405702D01*
X34959628Y-130518990D01*
X34963298Y-130520443D01*
X35269025Y-130598940D01*
X35582179Y-130638500D01*
X35897821Y-130638500D01*
X36210975Y-130598940D01*
X36516702Y-130520443D01*
X36520372Y-130518990D01*
X36806505Y-130405702D01*
X36806510Y-130405700D01*
X36810179Y-130404247D01*
X36862102Y-130375702D01*
X37083307Y-130254093D01*
X37083310Y-130254091D01*
X37086779Y-130252184D01*
X37309467Y-130090392D01*
X37338936Y-130068982D01*
X37338938Y-130068981D01*
X37342140Y-130066654D01*
X37572233Y-129850582D01*
X37590087Y-129829001D01*
X37699243Y-129697054D01*
X37773432Y-129607375D01*
X37942562Y-129340869D01*
X37944246Y-129337290D01*
X37944250Y-129337283D01*
X38013336Y-129190466D01*
X39648257Y-129190466D01*
X39678565Y-129324946D01*
X39681645Y-129334775D01*
X39761770Y-129532103D01*
X39766413Y-129541294D01*
X39877694Y-129722888D01*
X39883777Y-129731199D01*
X40023213Y-129892167D01*
X40030580Y-129899383D01*
X40194434Y-130035416D01*
X40202881Y-130041331D01*
X40386756Y-130148779D01*
X40396042Y-130153229D01*
X40595001Y-130229203D01*
X40604899Y-130232079D01*
X40708250Y-130253106D01*
X40722299Y-130251910D01*
X40726000Y-130241565D01*
X40726000Y-130241017D01*
X41234000Y-130241017D01*
X41238064Y-130254859D01*
X41251478Y-130256893D01*
X41258184Y-130256034D01*
X41268262Y-130253892D01*
X41472255Y-130192691D01*
X41481842Y-130188933D01*
X41673095Y-130095239D01*
X41681945Y-130089964D01*
X41855328Y-129966292D01*
X41863200Y-129959639D01*
X42014052Y-129809312D01*
X42020730Y-129801465D01*
X42148022Y-129624319D01*
X42149147Y-129625127D01*
X42196669Y-129581376D01*
X42266607Y-129569161D01*
X42332046Y-129596697D01*
X42359870Y-129628528D01*
X42417690Y-129722883D01*
X42423777Y-129731199D01*
X42563213Y-129892167D01*
X42570580Y-129899383D01*
X42734434Y-130035416D01*
X42742881Y-130041331D01*
X42926756Y-130148779D01*
X42936042Y-130153229D01*
X43135001Y-130229203D01*
X43144899Y-130232079D01*
X43248250Y-130253106D01*
X43262299Y-130251910D01*
X43266000Y-130241565D01*
X43266000Y-130241017D01*
X43774000Y-130241017D01*
X43778064Y-130254859D01*
X43791478Y-130256893D01*
X43798184Y-130256034D01*
X43808262Y-130253892D01*
X44012255Y-130192691D01*
X44021842Y-130188933D01*
X44213095Y-130095239D01*
X44221945Y-130089964D01*
X44395328Y-129966292D01*
X44403200Y-129959639D01*
X44554052Y-129809312D01*
X44560730Y-129801465D01*
X44688022Y-129624319D01*
X44689279Y-129625222D01*
X44736373Y-129581862D01*
X44806311Y-129569645D01*
X44871751Y-129597178D01*
X44899579Y-129629011D01*
X44959987Y-129727588D01*
X45106250Y-129896438D01*
X45278126Y-130039132D01*
X45471000Y-130151838D01*
X45679692Y-130231530D01*
X45684760Y-130232561D01*
X45684763Y-130232562D01*
X45779336Y-130251803D01*
X45898597Y-130276067D01*
X45903772Y-130276257D01*
X45903774Y-130276257D01*
X46116673Y-130284064D01*
X46116677Y-130284064D01*
X46121837Y-130284253D01*
X46126957Y-130283597D01*
X46126959Y-130283597D01*
X46338288Y-130256525D01*
X46338289Y-130256525D01*
X46343416Y-130255868D01*
X46348366Y-130254383D01*
X46552429Y-130193161D01*
X46552434Y-130193159D01*
X46557384Y-130191674D01*
X46757994Y-130093396D01*
X46939860Y-129963673D01*
X47048091Y-129855819D01*
X47110462Y-129821904D01*
X47181268Y-129827092D01*
X47238030Y-129869738D01*
X47255012Y-129900841D01*
X47278567Y-129963673D01*
X47299385Y-130019205D01*
X47386739Y-130135761D01*
X47503295Y-130223115D01*
X47639684Y-130274245D01*
X47701866Y-130281000D01*
X49498134Y-130281000D01*
X49560316Y-130274245D01*
X49696705Y-130223115D01*
X49813261Y-130135761D01*
X49900615Y-130019205D01*
X49951745Y-129882816D01*
X49958500Y-129820634D01*
X49958500Y-128024366D01*
X49951745Y-127962184D01*
X49900615Y-127825795D01*
X49813261Y-127709239D01*
X49696705Y-127621885D01*
X49560316Y-127570755D01*
X49498134Y-127564000D01*
X47701866Y-127564000D01*
X47639684Y-127570755D01*
X47503295Y-127621885D01*
X47386739Y-127709239D01*
X47299385Y-127825795D01*
X47296233Y-127834203D01*
X47254919Y-127944407D01*
X47212277Y-128001171D01*
X47145716Y-128025871D01*
X47076367Y-128010663D01*
X47043743Y-127984976D01*
X46993151Y-127929375D01*
X46993142Y-127929366D01*
X46989670Y-127925551D01*
X46985619Y-127922352D01*
X46985615Y-127922348D01*
X46818414Y-127790300D01*
X46818410Y-127790298D01*
X46814359Y-127787098D01*
X46778028Y-127767042D01*
X46762136Y-127758269D01*
X46618789Y-127679138D01*
X46613920Y-127677414D01*
X46613916Y-127677412D01*
X46413087Y-127606295D01*
X46413083Y-127606294D01*
X46408212Y-127604569D01*
X46403119Y-127603662D01*
X46403116Y-127603661D01*
X46193373Y-127566300D01*
X46193367Y-127566299D01*
X46188284Y-127565394D01*
X46114452Y-127564492D01*
X45970081Y-127562728D01*
X45970079Y-127562728D01*
X45964911Y-127562665D01*
X45744091Y-127596455D01*
X45531756Y-127665857D01*
X45333607Y-127769007D01*
X45329474Y-127772110D01*
X45329471Y-127772112D01*
X45159100Y-127900030D01*
X45154965Y-127903135D01*
X45129541Y-127929740D01*
X45061280Y-128001171D01*
X45000629Y-128064638D01*
X44997715Y-128068910D01*
X44997714Y-128068911D01*
X44958742Y-128126042D01*
X44894337Y-128220457D01*
X44892898Y-128222566D01*
X44837987Y-128267569D01*
X44767462Y-128275740D01*
X44703715Y-128244486D01*
X44683018Y-128220002D01*
X44602426Y-128095426D01*
X44596136Y-128087257D01*
X44452806Y-127929740D01*
X44445273Y-127922715D01*
X44278139Y-127790722D01*
X44269552Y-127785017D01*
X44083117Y-127682099D01*
X44073705Y-127677869D01*
X43872959Y-127606780D01*
X43862988Y-127604146D01*
X43791837Y-127591472D01*
X43778540Y-127592932D01*
X43774000Y-127607489D01*
X43774000Y-130241017D01*
X43266000Y-130241017D01*
X43266000Y-129194615D01*
X43261525Y-129179376D01*
X43260135Y-129178171D01*
X43252452Y-129176500D01*
X41252115Y-129176500D01*
X41236876Y-129180975D01*
X41235671Y-129182365D01*
X41234000Y-129190048D01*
X41234000Y-130241017D01*
X40726000Y-130241017D01*
X40726000Y-129194615D01*
X40721525Y-129179376D01*
X40720135Y-129178171D01*
X40712452Y-129176500D01*
X39663225Y-129176500D01*
X39649694Y-129180473D01*
X39648257Y-129190466D01*
X38013336Y-129190466D01*
X38075267Y-129058856D01*
X38075269Y-129058852D01*
X38076956Y-129055266D01*
X38174495Y-128755072D01*
X38193264Y-128656683D01*
X39644389Y-128656683D01*
X39645912Y-128665107D01*
X39658292Y-128668500D01*
X40707885Y-128668500D01*
X40723124Y-128664025D01*
X40724329Y-128662635D01*
X40726000Y-128654952D01*
X40726000Y-128650385D01*
X41234000Y-128650385D01*
X41238475Y-128665624D01*
X41239865Y-128666829D01*
X41247548Y-128668500D01*
X43247885Y-128668500D01*
X43263124Y-128664025D01*
X43264329Y-128662635D01*
X43266000Y-128654952D01*
X43266000Y-127605602D01*
X43262082Y-127592258D01*
X43247806Y-127590271D01*
X43209324Y-127596160D01*
X43199288Y-127598551D01*
X42996868Y-127664712D01*
X42987359Y-127668709D01*
X42798463Y-127767042D01*
X42789738Y-127772536D01*
X42619433Y-127900405D01*
X42611726Y-127907248D01*
X42464590Y-128061217D01*
X42458104Y-128069227D01*
X42353193Y-128223021D01*
X42298282Y-128268024D01*
X42227757Y-128276195D01*
X42164010Y-128244941D01*
X42143313Y-128220457D01*
X42062427Y-128095426D01*
X42056136Y-128087257D01*
X41912806Y-127929740D01*
X41905273Y-127922715D01*
X41738139Y-127790722D01*
X41729552Y-127785017D01*
X41543117Y-127682099D01*
X41533705Y-127677869D01*
X41332959Y-127606780D01*
X41322988Y-127604146D01*
X41251837Y-127591472D01*
X41238540Y-127592932D01*
X41234000Y-127607489D01*
X41234000Y-128650385D01*
X40726000Y-128650385D01*
X40726000Y-127605602D01*
X40722082Y-127592258D01*
X40707806Y-127590271D01*
X40669324Y-127596160D01*
X40659288Y-127598551D01*
X40456868Y-127664712D01*
X40447359Y-127668709D01*
X40258463Y-127767042D01*
X40249738Y-127772536D01*
X40079433Y-127900405D01*
X40071726Y-127907248D01*
X39924590Y-128061217D01*
X39918104Y-128069227D01*
X39798098Y-128245149D01*
X39793000Y-128254123D01*
X39703338Y-128447283D01*
X39699775Y-128456970D01*
X39644389Y-128656683D01*
X38193264Y-128656683D01*
X38233641Y-128445020D01*
X38253460Y-128130000D01*
X38233641Y-127814980D01*
X38174495Y-127504928D01*
X38076956Y-127204734D01*
X38070818Y-127191690D01*
X37944250Y-126922717D01*
X37944246Y-126922710D01*
X37942562Y-126919131D01*
X37773432Y-126652625D01*
X37572233Y-126409418D01*
X37342140Y-126193346D01*
X37086779Y-126007816D01*
X37036443Y-125980143D01*
X36813648Y-125857660D01*
X36813647Y-125857659D01*
X36810179Y-125855753D01*
X36806505Y-125854298D01*
X36806500Y-125854296D01*
X36799822Y-125851652D01*
X36743848Y-125807978D01*
X36720371Y-125740975D01*
X36736847Y-125671916D01*
X36788042Y-125622728D01*
X36846205Y-125608500D01*
X106274266Y-125608500D01*
X106342387Y-125628502D01*
G37*
G04 #@! TD.AperFunction*
G04 #@! TD*
M02*
