G04 #@! TF.GenerationSoftware,KiCad,Pcbnew,6.0.9+dfsg-1~bpo11+1*
G04 #@! TF.CreationDate,2022-12-29T09:56:33-05:00*
G04 #@! TF.ProjectId,io,696f2e6b-6963-4616-945f-706362585858,rev?*
G04 #@! TF.SameCoordinates,Original*
G04 #@! TF.FileFunction,Soldermask,Top*
G04 #@! TF.FilePolarity,Negative*
%FSLAX46Y46*%
G04 Gerber Fmt 4.6, Leading zero omitted, Abs format (unit mm)*
G04 Created by KiCad (PCBNEW 6.0.9+dfsg-1~bpo11+1) date 2022-12-29 09:56:33*
%MOMM*%
%LPD*%
G01*
G04 APERTURE LIST*
G04 Aperture macros list*
%AMRoundRect*
0 Rectangle with rounded corners*
0 $1 Rounding radius*
0 $2 $3 $4 $5 $6 $7 $8 $9 X,Y pos of 4 corners*
0 Add a 4 corners polygon primitive as box body*
4,1,4,$2,$3,$4,$5,$6,$7,$8,$9,$2,$3,0*
0 Add four circle primitives for the rounded corners*
1,1,$1+$1,$2,$3*
1,1,$1+$1,$4,$5*
1,1,$1+$1,$6,$7*
1,1,$1+$1,$8,$9*
0 Add four rect primitives between the rounded corners*
20,1,$1+$1,$2,$3,$4,$5,0*
20,1,$1+$1,$4,$5,$6,$7,0*
20,1,$1+$1,$6,$7,$8,$9,0*
20,1,$1+$1,$8,$9,$2,$3,0*%
G04 Aperture macros list end*
%ADD10RoundRect,0.450000X0.475000X-0.337500X0.475000X0.337500X-0.475000X0.337500X-0.475000X-0.337500X0*%
%ADD11RoundRect,0.450000X-0.337500X-0.475000X0.337500X-0.475000X0.337500X0.475000X-0.337500X0.475000X0*%
%ADD12RoundRect,0.450000X-0.650000X0.325000X-0.650000X-0.325000X0.650000X-0.325000X0.650000X0.325000X0*%
%ADD13RoundRect,0.450000X-0.475000X0.337500X-0.475000X-0.337500X0.475000X-0.337500X0.475000X0.337500X0*%
%ADD14RoundRect,0.450000X0.450000X-0.325000X0.450000X0.325000X-0.450000X0.325000X-0.450000X-0.325000X0*%
%ADD15RoundRect,0.200000X-0.850000X-0.850000X0.850000X-0.850000X0.850000X0.850000X-0.850000X0.850000X0*%
%ADD16O,2.100000X2.100000*%
%ADD17RoundRect,0.200000X0.850000X-0.850000X0.850000X0.850000X-0.850000X0.850000X-0.850000X-0.850000X0*%
%ADD18RoundRect,0.200000X-0.850000X0.850000X-0.850000X-0.850000X0.850000X-0.850000X0.850000X0.850000X0*%
%ADD19RoundRect,0.449999X0.450001X-0.350001X0.450001X0.350001X-0.450001X0.350001X-0.450001X-0.350001X0*%
%ADD20RoundRect,0.449999X0.350001X0.450001X-0.350001X0.450001X-0.350001X-0.450001X0.350001X-0.450001X0*%
%ADD21RoundRect,0.449999X-0.450001X0.350001X-0.450001X-0.350001X0.450001X-0.350001X0.450001X0.350001X0*%
%ADD22RoundRect,0.449999X-0.350001X-0.450001X0.350001X-0.450001X0.350001X0.450001X-0.350001X0.450001X0*%
%ADD23RoundRect,0.450000X0.350000X0.450000X-0.350000X0.450000X-0.350000X-0.450000X0.350000X-0.450000X0*%
%ADD24O,3.900000X3.900000*%
%ADD25RoundRect,0.200000X1.000000X-0.952500X1.000000X0.952500X-1.000000X0.952500X-1.000000X-0.952500X0*%
%ADD26O,2.400000X2.305000*%
%ADD27RoundRect,0.350000X-0.875000X-0.150000X0.875000X-0.150000X0.875000X0.150000X-0.875000X0.150000X0*%
%ADD28RoundRect,0.200000X-0.800000X-0.205000X0.800000X-0.205000X0.800000X0.205000X-0.800000X0.205000X0*%
%ADD29C,2.000000*%
%ADD30O,2.000000X2.000000*%
%ADD31C,4.400000*%
%ADD32RoundRect,0.200000X0.750000X-0.500000X0.750000X0.500000X-0.750000X0.500000X-0.750000X-0.500000X0*%
%ADD33RoundRect,0.200000X0.850000X0.850000X-0.850000X0.850000X-0.850000X-0.850000X0.850000X-0.850000X0*%
%ADD34RoundRect,0.350000X-0.150000X0.587500X-0.150000X-0.587500X0.150000X-0.587500X0.150000X0.587500X0*%
%ADD35RoundRect,0.450000X0.325000X0.450000X-0.325000X0.450000X-0.325000X-0.450000X0.325000X-0.450000X0*%
%ADD36RoundRect,0.450000X0.450000X-0.350000X0.450000X0.350000X-0.450000X0.350000X-0.450000X-0.350000X0*%
G04 APERTURE END LIST*
D10*
G04 #@! TO.C,C1*
X58010000Y-139920000D03*
X58010000Y-137845000D03*
G04 #@! TD*
G04 #@! TO.C,C2*
X55860000Y-139920000D03*
X55860000Y-137845000D03*
G04 #@! TD*
D11*
G04 #@! TO.C,C4*
X81372500Y-139490000D03*
X83447500Y-139490000D03*
G04 #@! TD*
D12*
G04 #@! TO.C,C5*
X56060000Y-132035000D03*
X56060000Y-134985000D03*
G04 #@! TD*
D10*
G04 #@! TO.C,C6*
X90200000Y-130992500D03*
X90200000Y-128917500D03*
G04 #@! TD*
D13*
G04 #@! TO.C,C7*
X90200000Y-135600000D03*
X90200000Y-137675000D03*
G04 #@! TD*
D10*
G04 #@! TO.C,C8*
X86575000Y-129837500D03*
X86575000Y-127762500D03*
G04 #@! TD*
G04 #@! TO.C,C9*
X84025000Y-129875000D03*
X84025000Y-127800000D03*
G04 #@! TD*
D14*
G04 #@! TO.C,D1*
X66200000Y-135100000D03*
X66200000Y-133050000D03*
G04 #@! TD*
D15*
G04 #@! TO.C,P1*
X61150000Y-145790000D03*
D16*
X61150000Y-148330000D03*
X61150000Y-150870000D03*
X61150000Y-153410000D03*
G04 #@! TD*
D17*
G04 #@! TO.C,P2*
X63660000Y-130400000D03*
D16*
X66200000Y-130400000D03*
X68740000Y-130400000D03*
X71280000Y-130400000D03*
G04 #@! TD*
D15*
G04 #@! TO.C,P5*
X103200000Y-143800000D03*
D16*
X103200000Y-146340000D03*
X103200000Y-148880000D03*
X103200000Y-151420000D03*
G04 #@! TD*
D15*
G04 #@! TO.C,P6*
X103100000Y-132300000D03*
D16*
X103100000Y-134840000D03*
X103100000Y-137380000D03*
X103100000Y-139920000D03*
G04 #@! TD*
D18*
G04 #@! TO.C,P7*
X48600000Y-128922500D03*
D16*
X46060000Y-128922500D03*
X43520000Y-128922500D03*
X40980000Y-128922500D03*
G04 #@! TD*
D19*
G04 #@! TO.C,R1*
X71500000Y-135100000D03*
X71500000Y-133100000D03*
G04 #@! TD*
G04 #@! TO.C,R2*
X63800000Y-135100000D03*
X63800000Y-133100000D03*
G04 #@! TD*
D20*
G04 #@! TO.C,R3*
X66710000Y-141690000D03*
X64710000Y-141690000D03*
G04 #@! TD*
G04 #@! TO.C,R4*
X66710000Y-145190000D03*
X64710000Y-145190000D03*
G04 #@! TD*
G04 #@! TO.C,R5*
X66810000Y-148590000D03*
X64810000Y-148590000D03*
G04 #@! TD*
D19*
G04 #@! TO.C,R6*
X74800000Y-134800000D03*
X74800000Y-132800000D03*
G04 #@! TD*
D20*
G04 #@! TO.C,R7*
X71210000Y-148490000D03*
X69210000Y-148490000D03*
G04 #@! TD*
D19*
G04 #@! TO.C,R8*
X74800000Y-129800000D03*
X74800000Y-127800000D03*
G04 #@! TD*
G04 #@! TO.C,R9*
X77500000Y-134800000D03*
X77500000Y-132800000D03*
G04 #@! TD*
D20*
G04 #@! TO.C,R10*
X45050000Y-145610000D03*
X43050000Y-145610000D03*
G04 #@! TD*
G04 #@! TO.C,R11*
X71210000Y-145090000D03*
X69210000Y-145090000D03*
G04 #@! TD*
D21*
G04 #@! TO.C,R12*
X77500000Y-127800000D03*
X77500000Y-129800000D03*
G04 #@! TD*
D20*
G04 #@! TO.C,R13*
X71210000Y-141690000D03*
X69210000Y-141690000D03*
G04 #@! TD*
G04 #@! TO.C,R15*
X71310000Y-151890000D03*
X69310000Y-151890000D03*
G04 #@! TD*
G04 #@! TO.C,R16*
X45050000Y-148090000D03*
X43050000Y-148090000D03*
G04 #@! TD*
G04 #@! TO.C,R17*
X66910000Y-151790000D03*
X64910000Y-151790000D03*
G04 #@! TD*
G04 #@! TO.C,R18*
X93600000Y-143600000D03*
X91600000Y-143600000D03*
G04 #@! TD*
D22*
G04 #@! TO.C,R19*
X69350000Y-155350000D03*
X71350000Y-155350000D03*
G04 #@! TD*
D20*
G04 #@! TO.C,R20*
X93700000Y-147300000D03*
X91700000Y-147300000D03*
G04 #@! TD*
G04 #@! TO.C,R21*
X93700000Y-151100000D03*
X91700000Y-151100000D03*
G04 #@! TD*
G04 #@! TO.C,R22*
X93700000Y-154600000D03*
X91700000Y-154600000D03*
G04 #@! TD*
G04 #@! TO.C,R23*
X94700000Y-131655000D03*
X92700000Y-131655000D03*
G04 #@! TD*
G04 #@! TO.C,R24*
X94700000Y-128055000D03*
X92700000Y-128055000D03*
G04 #@! TD*
D23*
G04 #@! TO.C,R25*
X94700000Y-135400000D03*
X92700000Y-135400000D03*
G04 #@! TD*
G04 #@! TO.C,R26*
X94700000Y-139100000D03*
X92700000Y-139100000D03*
G04 #@! TD*
D24*
G04 #@! TO.C,U1*
X36440000Y-137060000D03*
D25*
X53100000Y-139600000D03*
D26*
X53100000Y-137060000D03*
X53100000Y-134520000D03*
G04 #@! TD*
D27*
G04 #@! TO.C,U2*
X74560000Y-141745000D03*
X74560000Y-143015000D03*
X74560000Y-144285000D03*
X74560000Y-145555000D03*
X74560000Y-146825000D03*
X74560000Y-148095000D03*
X74560000Y-149365000D03*
X74560000Y-150635000D03*
X83860000Y-150635000D03*
X83860000Y-149365000D03*
X83860000Y-148095000D03*
X83860000Y-146825000D03*
X83860000Y-145555000D03*
X83860000Y-144285000D03*
X83860000Y-143015000D03*
X83860000Y-141745000D03*
G04 #@! TD*
D28*
G04 #@! TO.C,U3*
X81070700Y-131802500D03*
X81070700Y-132437500D03*
X81070700Y-133072500D03*
X81070700Y-133707500D03*
X81070700Y-134342500D03*
X81070700Y-134977500D03*
X81070700Y-135612500D03*
X81070700Y-136247500D03*
X86379300Y-136247500D03*
X86379300Y-135612500D03*
X86379300Y-134977500D03*
X86379300Y-134342500D03*
X86379300Y-133707500D03*
X86379300Y-133072500D03*
X86379300Y-132437500D03*
X86379300Y-131802500D03*
G04 #@! TD*
D14*
G04 #@! TO.C,D2*
X68800000Y-135125000D03*
X68800000Y-133075000D03*
G04 #@! TD*
D22*
G04 #@! TO.C,R14*
X64840000Y-155350000D03*
X66840000Y-155350000D03*
G04 #@! TD*
D13*
G04 #@! TO.C,C3*
X58510000Y-132895000D03*
X58510000Y-134970000D03*
G04 #@! TD*
D10*
G04 #@! TO.C,C10*
X81400000Y-129862500D03*
X81400000Y-127787500D03*
G04 #@! TD*
D29*
G04 #@! TO.C,R31*
X98800000Y-131100000D03*
D30*
X98800000Y-128560000D03*
G04 #@! TD*
D31*
G04 #@! TO.C,REF\u002A\u002A*
X35770000Y-155980000D03*
G04 #@! TD*
D32*
G04 #@! TO.C,JP1*
X61700000Y-140040000D03*
X61700000Y-138740000D03*
X61700000Y-137440000D03*
G04 #@! TD*
D33*
G04 #@! TO.C,P4*
X39780000Y-152420000D03*
D16*
X39780000Y-149880000D03*
X39780000Y-147340000D03*
X39780000Y-144800000D03*
G04 #@! TD*
D34*
G04 #@! TO.C,D4*
X49270000Y-144982500D03*
X47370000Y-144982500D03*
X48320000Y-146857500D03*
G04 #@! TD*
D14*
G04 #@! TO.C,D9*
X58250000Y-128730000D03*
X58250000Y-126680000D03*
G04 #@! TD*
D23*
G04 #@! TO.C,R29*
X89000000Y-151000000D03*
X87000000Y-151000000D03*
G04 #@! TD*
G04 #@! TO.C,R30*
X89000000Y-154600000D03*
X87000000Y-154600000D03*
G04 #@! TD*
D35*
G04 #@! TO.C,D8*
X99925000Y-151000000D03*
X97875000Y-151000000D03*
G04 #@! TD*
D18*
G04 #@! TO.C,J1*
X80180000Y-154190000D03*
D16*
X77640000Y-154190000D03*
G04 #@! TD*
D35*
G04 #@! TO.C,D7*
X99925000Y-148500000D03*
X97875000Y-148500000D03*
G04 #@! TD*
D31*
G04 #@! TO.C,REF\u002A\u002A*
X107440000Y-128100000D03*
G04 #@! TD*
D36*
G04 #@! TO.C,R33*
X55650000Y-128720000D03*
X55650000Y-126720000D03*
G04 #@! TD*
D34*
G04 #@! TO.C,D3*
X54340000Y-144962500D03*
X52440000Y-144962500D03*
X53390000Y-146837500D03*
G04 #@! TD*
D18*
G04 #@! TO.C,P3*
X51940000Y-154150000D03*
D16*
X49400000Y-154150000D03*
X46860000Y-154150000D03*
X44320000Y-154150000D03*
G04 #@! TD*
D23*
G04 #@! TO.C,R28*
X89000000Y-147300000D03*
X87000000Y-147300000D03*
G04 #@! TD*
D29*
G04 #@! TO.C,R32*
X98800000Y-136300000D03*
D30*
X98800000Y-138840000D03*
G04 #@! TD*
D35*
G04 #@! TO.C,D5*
X99925000Y-143600000D03*
X97875000Y-143600000D03*
G04 #@! TD*
D31*
G04 #@! TO.C,REF\u002A\u002A*
X35740000Y-128130000D03*
G04 #@! TD*
D35*
G04 #@! TO.C,D6*
X99925000Y-146100000D03*
X97875000Y-146100000D03*
G04 #@! TD*
D31*
G04 #@! TO.C,REF\u002A\u002A*
X107500000Y-156000000D03*
G04 #@! TD*
D23*
G04 #@! TO.C,R27*
X89000000Y-143600000D03*
X87000000Y-143600000D03*
G04 #@! TD*
M02*
