M48
; DRILL file {KiCad 6.0.9+dfsg-1~bpo11+1} date Thu 29 Dec 2022 09:56:36 AM EST
; FORMAT={3:3/ absolute / metric / suppress leading zeros}
; #@! TF.CreationDate,2022-12-29T09:56:36-05:00
; #@! TF.GenerationSoftware,Kicad,Pcbnew,6.0.9+dfsg-1~bpo11+1
; #@! TF.FileFunction,MixedPlating,1,2
FMAT,2
METRIC,TZ
; #@! TA.AperFunction,Plated,PTH,ViaDrill
T1C0.400
; #@! TA.AperFunction,Plated,PTH,ComponentDrill
T2C0.800
; #@! TA.AperFunction,Plated,PTH,ComponentDrill
T3C1.000
; #@! TA.AperFunction,Plated,PTH,ComponentDrill
T4C1.100
; #@! TA.AperFunction,Plated,PTH,ComponentDrill
T5C3.000
; #@! TA.AperFunction,NonPlated,NPTH,ComponentDrill
T6C3.500
%
G90
G05
T1
X46280Y-143410
X47750Y-142880
X50140Y-145780
X55640Y-144540
X59780Y-129150
X72540Y-141060
X72730Y-152220
X76360Y-145420
X76410Y-148970
X76430Y-142930
X79850Y-126940
X82110Y-148940
X82760Y-127060
X82980Y-133030
X83030Y-131970
X83080Y-134380
X83096Y-135250
X84720Y-139850
X84960Y-135210
X84990Y-134030
X85380Y-127060
X99960Y-142130
X101260Y-145740
X101290Y-148240
X101410Y-150660
T2
X98800Y-128560
X98800Y-131100
X98800Y-136300
X98800Y-138840
T3
X39780Y-144800
X39780Y-147340
X39780Y-149880
X39780Y-152420
X40980Y-128923
X43520Y-128923
X44320Y-154150
X46060Y-128923
X46860Y-154150
X48600Y-128923
X49400Y-154150
X51940Y-154150
X61150Y-145790
X61150Y-148330
X61150Y-150870
X61150Y-153410
X63660Y-130400
X66200Y-130400
X68740Y-130400
X71280Y-130400
X77640Y-154190
X80180Y-154190
X103100Y-132300
X103100Y-134840
X103100Y-137380
X103100Y-139920
X103200Y-143800
X103200Y-146340
X103200Y-148880
X103200Y-151420
T4
X53100Y-134520
X53100Y-137060
X53100Y-139600
T5
X35740Y-128130
X35770Y-155980
X107440Y-128100
X107500Y-156000
T6
X36440Y-137060
T0
M30
